<svg xmlns="http://www.w3.org/2000/svg" xmlns:xlink="http://www.w3.org/1999/xlink" width="2800" zoomAndPan="magnify" viewBox="0 0 2100 2250.000011" height="3000" preserveAspectRatio="xMidYMid meet" version="1.0"><path fill="#ffffff" d="M 1225.535156 1514.261719 C 1316.128906 2142.820312 1313.042969 2124.242188 1311.050781 2148.222656 C 1310.167969 2158.792969 1308.316406 2167.898438 1311.019531 2181.753906 C 1314.09375 2197.519531 1320.207031 2204.78125 1316.476562 2211.503906 C 1311.574219 2220.339844 1294.390625 2219.789062 1288.324219 2219.664062 C 1214.414062 2218.152344 1193.835938 2246.859375 1117.121094 2237.734375 C 1097.957031 2235.453125 1075 2230.777344 1042.273438 2234.671875 C 1028.988281 2236.25 1027.378906 2237.664062 1022.992188 2236.457031 C 992.105469 2227.972656 993.882812 2136.800781 992.242188 2066.371094 C 988.925781 1924.328125 970.382812 1809.238281 965.535156 1809.292969 C 960.753906 1809.355469 946.222656 1922.0625 952.296875 2065.84375 C 956.386719 2162.558594 967.105469 2209.695312 935.179688 2235.476562 C 918.433594 2249.007812 907.183594 2242.726562 796.761719 2241.257812 C 719.988281 2240.238281 650.492188 2242.269531 643.808594 2219.960938 C 640.808594 2209.96875 651.796875 2200.839844 636.488281 2161.492188 C 625.746094 2133.886719 638.265625 2100.683594 641.789062 2089.207031 C 644.757812 2079.546875 651.960938 1946.066406 666.378906 1679.097656 C 669.449219 1622.304688 694.832031 1524.433594 737.898438 1487.292969 C 815.695312 1420.195312 906.441406 1578 1225.542969 1514.261719 Z M 1225.535156 1514.261719 " fill-opacity="1" fill-rule="nonzero"/><path fill="#ffffff" d="M 336.554688 502.671875 C 363.675781 1074.285156 390.808594 1645.890625 417.933594 2217.503906 C 435.390625 2214.882812 452.855469 2212.261719 470.3125 2209.644531 C 438.457031 1638.988281 406.613281 1068.34375 374.757812 497.6875 C 362.023438 499.351562 349.289062 501.003906 336.554688 502.664062 Z M 336.554688 502.671875 " fill-opacity="1" fill-rule="nonzero"/><path fill="#010101" d="M 334.234375 502.671875 C 337.960938 702.511719 339.117188 680.765625 411.289062 2217.503906 C 411.511719 2222.199219 415.335938 2224.558594 419.695312 2223.910156 C 437.160156 2221.296875 454.617188 2218.691406 472.082031 2216.074219 C 474.800781 2215.664062 477.121094 2212.292969 476.972656 2209.644531 C 381.898438 499.769531 381.558594 653.363281 382.433594 497.6875 C 382.457031 493.925781 378.878906 489.480469 374.75 490.007812 C 362.015625 491.636719 349.28125 493.238281 336.546875 494.835938 C 325.371094 496.242188 327.28125 511.730469 338.625 510.207031 C 350.664062 508.59375 362.703125 506.960938 374.75 505.363281 C 372.191406 502.804688 369.628906 500.238281 367.070312 497.679688 C 379.976562 607.714844 384.671875 719.867188 386.953125 830.816406 C 387.464844 855.550781 456.550781 2083.164062 463.636719 2209.628906 C 465.265625 2207.488281 466.898438 2205.339844 468.527344 2203.199219 C 451.070312 2205.816406 433.613281 2208.453125 416.15625 2211.082031 C 418.960938 2213.214844 421.757812 2215.355469 424.5625 2217.488281 C 352.519531 714.90625 351.175781 664.136719 338.855469 502.65625 C 338.632812 499.722656 334.164062 499.636719 334.21875 502.65625 Z M 334.234375 502.671875 " fill-opacity="1" fill-rule="nonzero"/><path fill="#ffffff" d="M 395.011719 218.175781 C 304.320312 221.335938 213.628906 224.507812 122.933594 227.667969 C 83.074219 310.671875 59.800781 399.507812 53.332031 490.253906 C 114.820312 514.621094 176.320312 538.976562 237.808594 563.34375 C 290.210938 448.285156 342.613281 333.234375 395.011719 218.175781 Z M 395.011719 218.175781 " fill-opacity="1" fill-rule="nonzero"/><path fill="#010101" d="M 395.074219 217.953125 C 353.128906 208.300781 306.214844 214.621094 263.511719 215.558594 C 116.179688 218.796875 118.5 218.476562 116.121094 223.679688 C 77.652344 307.886719 57.542969 398.273438 49.152344 490.246094 C 48.742188 494.707031 49.027344 492.566406 235.769531 570.746094 C 238.613281 571.9375 243.171875 569.996094 244.453125 567.214844 C 297.296875 452.359375 349.242188 337.097656 401.652344 222.046875 C 405.714844 213.125 392.484375 205.300781 388.390625 214.296875 C 335.988281 329.355469 283.140625 444.199219 231.179688 559.457031 C 234.074219 558.28125 236.964844 557.097656 239.863281 555.925781 C 175.871094 532 209.113281 544.75 104.992188 505.339844 C 94.835938 501.5 70.148438 497.171875 62.882812 489.40625 C 48.085938 473.585938 62.675781 427.667969 66.675781 407.644531 C 72.597656 378.054688 83.507812 349.625 92.921875 320.980469 C 125.640625 221.390625 126.066406 235.773438 163.761719 234.535156 C 253.300781 231.609375 214.847656 232.296875 304.335938 228.015625 C 334.359375 226.578125 366.113281 227.234375 395.089844 218.402344 C 395.300781 218.339844 395.324219 218.007812 395.089844 217.953125 Z M 395.074219 217.953125 " fill-opacity="1" fill-rule="nonzero"/><path fill="#000000" d="M 299.824219 133.511719 C 252.886719 309.960938 205.9375 486.414062 158.992188 662.859375 C 151.84375 689.722656 171.566406 716.238281 199.347656 717.117188 L 950.550781 741.042969 C 969.523438 741.644531 986.664062 729.792969 992.792969 711.832031 C 1050.773438 541.945312 1108.746094 372.066406 1166.726562 202.179688 C 1175.960938 175.117188 1156.8125 146.710938 1128.257812 145.117188 C 866.820312 130.574219 605.386719 116.03125 343.941406 101.496094 C 323.5 100.359375 305.078125 113.730469 299.816406 133.503906 Z M 299.824219 133.511719 " fill-opacity="1" fill-rule="nonzero"/><path fill="#010101" d="M 295.210938 132.238281 C 253.046875 286.066406 211.449219 443.363281 161.589844 630.4375 C 157.78125 644.722656 151.367188 660.132812 151.691406 675.140625 C 152.09375 693.601562 163.484375 710.558594 180.074219 718.378906 C 193.351562 724.628906 179.902344 722.363281 574.945312 735.117188 C 970.753906 747.890625 956.410156 749.472656 970.960938 743.398438 C 994.707031 733.484375 1000.078125 709.761719 1007.628906 687.566406 C 1020.371094 650.125 1143.808594 287.214844 1156.046875 251.214844 C 1164.261719 227.070312 1181.0625 197.714844 1171.796875 171.765625 C 1155.863281 127.160156 1099.605469 137.941406 1022.140625 133.714844 C 336.570312 96.289062 346.097656 94.851562 333.578125 97.074219 C 314.34375 100.492188 301.316406 114.230469 295.339844 132.269531 C 293.457031 137.972656 302.3125 140.3125 304.28125 134.734375 C 318.339844 94.972656 366.613281 107.964844 399.300781 109.789062 C 436.210938 111.84375 1072.890625 147.59375 1091.34375 148.636719 C 1110.207031 149.703125 1135.144531 146.554688 1150.398438 159.785156 C 1177.445312 183.238281 1152.617188 225.828125 1143.488281 252.480469 C 1131.660156 287.023438 1018.300781 618.054688 1007.457031 649.714844 C 996.902344 680.550781 990.699219 733.332031 950.503906 734.835938 C 950.042969 734.851562 198.265625 712.542969 188.722656 709.320312 C 142.191406 693.625 174.828125 625.96875 183.367188 593.820312 C 223.984375 440.875 264.894531 288.003906 304.429688 134.78125 C 305.96875 128.8125 296.832031 126.292969 295.210938 132.238281 Z M 295.210938 132.238281 " fill-opacity="1" fill-rule="nonzero"/><path fill="#ffffff" d="M 337.742188 133.511719 C 290.804688 309.960938 243.859375 486.414062 196.914062 662.859375 C 189.765625 689.722656 209.484375 716.238281 237.265625 717.117188 L 988.472656 741.042969 C 1007.445312 741.644531 1024.582031 729.792969 1030.710938 711.832031 C 1088.691406 541.945312 1146.667969 372.066406 1204.648438 202.179688 C 1213.882812 175.117188 1194.734375 146.710938 1166.179688 145.117188 C 1133.652344 143.3125 586.597656 112.878906 381.859375 101.496094 C 361.421875 100.359375 342.996094 113.730469 337.734375 133.503906 Z M 337.742188 133.511719 " fill-opacity="1" fill-rule="nonzero"/><path fill="#010101" d="M 333.128906 132.238281 C 290.96875 286.066406 249.367188 443.363281 199.507812 630.4375 C 195.414062 645.789062 188.566406 661.996094 189.894531 678.117188 C 191.324219 695.527344 202.238281 710.949219 217.996094 718.378906 C 231.246094 724.621094 218.015625 722.371094 615.175781 735.191406 C 1009.46875 747.921875 994.40625 749.683594 1009.621094 743.089844 C 1035.394531 731.925781 1040.332031 702.898438 1048.484375 678.925781 C 1060.734375 642.921875 1184.664062 278.578125 1196.902344 242.574219 C 1204.5625 220.0625 1218.347656 195.101562 1209.429688 171.09375 C 1202.902344 153.503906 1187.3125 142.46875 1169.160156 139.878906 C 1131.890625 134.554688 1092.601562 135.5 1054.992188 133.441406 C 371.605469 96.132812 384.054688 94.851562 371.496094 97.082031 C 352.261719 100.5 339.234375 114.238281 333.261719 132.277344 C 331.375 137.980469 340.230469 140.320312 342.203125 134.742188 C 356.226562 95.066406 404.234375 107.957031 436.859375 109.773438 C 473.527344 111.8125 1104.070312 147.214844 1121.8125 148.21875 C 1138.429688 149.160156 1160.390625 147.175781 1176.285156 152.785156 C 1218.425781 167.652344 1194.136719 215.308594 1184.371094 243.847656 C 1172.539062 278.390625 1059.179688 609.425781 1048.339844 641.085938 C 1037.496094 672.746094 1030.449219 733.246094 988.464844 734.835938 C 988 734.851562 236.167969 712.535156 226.640625 709.320312 C 180.265625 693.679688 212.816406 625.707031 221.285156 593.820312 C 261.902344 440.875 302.8125 288.003906 342.347656 134.78125 C 343.886719 128.8125 334.753906 126.292969 333.128906 132.238281 Z M 333.128906 132.238281 " fill-opacity="1" fill-rule="nonzero"/><path fill="#ffffff" d="M 354.527344 1320.636719 C 357.84375 1381.378906 361.15625 1442.109375 364.472656 1502.851562 C 406.898438 1500.476562 449.324219 1498.113281 491.75 1495.742188 C 486.804688 1432.707031 481.851562 1369.671875 476.902344 1306.636719 C 436.109375 1311.304688 395.324219 1315.96875 354.527344 1320.636719 Z M 354.527344 1320.636719 " fill-opacity="1" fill-rule="nonzero"/><path fill="#010101" d="M 352.496094 1320.636719 C 349.628906 1380.875 356.558594 1442.660156 359.652344 1502.851562 C 359.78125 1505.347656 361.761719 1507.8125 364.472656 1507.671875 C 406.890625 1505.4375 449.308594 1502.996094 491.75 1501.035156 C 494.46875 1500.910156 497.226562 1498.707031 497.042969 1495.742188 C 493.070312 1432.660156 488.070312 1369.65625 483.234375 1306.636719 C 482.992188 1303.527344 480.511719 1299.90625 476.910156 1300.3125 C 436.117188 1304.910156 395.328125 1309.59375 354.535156 1314.261719 C 346.476562 1315.183594 346.382812 1327.949219 354.535156 1327.011719 C 395.328125 1322.34375 436.125 1317.695312 476.910156 1312.957031 L 470.589844 1306.636719 C 475.652344 1369.695312 480.542969 1432.757812 486.472656 1495.742188 C 488.234375 1493.976562 489.996094 1492.214844 491.765625 1490.445312 C 449.355469 1493.230469 406.914062 1495.515625 364.488281 1498.019531 C 366.097656 1499.628906 367.703125 1501.234375 369.3125 1502.84375 C 365.816406 1442.371094 365.925781 1379.972656 356.5 1320.089844 C 356.128906 1317.738281 352.617188 1318.449219 352.511719 1320.628906 Z M 352.496094 1320.636719 " fill-opacity="1" fill-rule="nonzero"/><path fill="#ffffff" d="M 457.289062 1370.503906 C 475.605469 1366.789062 493.914062 1363.070312 512.226562 1359.351562 C 514.359375 1389.421875 516.492188 1419.5 518.617188 1449.566406 C 502.753906 1449.804688 486.886719 1450.039062 471.023438 1450.277344 C 466.449219 1423.6875 461.867188 1397.097656 457.289062 1370.503906 Z M 457.289062 1370.503906 " fill-opacity="1" fill-rule="nonzero"/><path fill="#010101" d="M 456.402344 1373.71875 C 474.710938 1376.808594 495.945312 1369.316406 513.949219 1365.621094 C 511.207031 1363.535156 508.464844 1361.441406 505.726562 1359.355469 C 507.960938 1389.421875 510.339844 1419.484375 512.335938 1449.566406 C 514.429688 1447.472656 516.523438 1445.378906 518.625 1443.277344 C 502.691406 1443.4375 486.964844 1444.953125 471.03125 1445 C 472.722656 1446.289062 474.414062 1447.582031 476.117188 1448.871094 C 471.996094 1423.070312 471.246094 1392.488281 460.808594 1368.449219 C 459.0625 1364.421875 453.496094 1366.925781 453.25 1370.496094 C 451.425781 1396.546875 461.214844 1426.042969 465.960938 1451.667969 C 466.371094 1453.871094 468.882812 1455.59375 471.046875 1455.539062 C 486.964844 1455.117188 502.722656 1456.160156 518.640625 1455.851562 C 521.847656 1455.789062 525.1875 1453.015625 524.933594 1449.558594 C 522.660156 1419.507812 520.78125 1389.414062 518.75 1359.347656 C 518.449219 1354.933594 514.855469 1352.214844 510.527344 1353.078125 C 492.992188 1356.601562 470.820312 1357.902344 455.636719 1367.621094 C 453.449219 1369.019531 453.425781 1373.210938 456.433594 1373.710938 Z M 456.402344 1373.71875 " fill-opacity="1" fill-rule="nonzero"/><path fill="#ffffff" d="M 1597.476562 848.820312 C 1494.824219 969.125 1425.234375 1038.644531 1374.402344 1081.511719 C 1362.152344 1091.84375 1338.019531 1115.132812 1333.011719 1147.28125 C 1326.761719 1187.394531 1362.160156 1225.941406 1402.246094 1232.371094 C 1442.335938 1238.800781 1483.0625 1219.1875 1511.902344 1190.609375 C 1540.742188 1162.035156 1559.835938 1125.3125 1578.46875 1089.238281 C 1613.519531 1021.359375 1630.515625 997.378906 1645.605469 959.242188 C 1673.929688 887.667969 1666.496094 871.449219 1660.921875 864.160156 C 1645.808594 844.402344 1611.203125 847.089844 1597.476562 848.820312 Z M 1597.476562 848.820312 " fill-opacity="1" fill-rule="nonzero"/><path fill="#010101" d="M 1596.09375 847.4375 C 1570.539062 872.902344 1480.882812 981.25 1392.695312 1060.328125 C 1383.390625 1068.667969 1373.527344 1076.457031 1364.464844 1085.050781 C 1284.597656 1160.78125 1353.027344 1245.933594 1429.949219 1237.007812 C 1527.210938 1225.726562 1569.203125 1113.664062 1607.957031 1043.035156 C 1622.617188 1016.3125 1637.996094 989.90625 1649.347656 961.546875 C 1658.019531 939.886719 1673.9375 898.0625 1669.855469 874.246094 C 1665.792969 850.492188 1637.570312 843.410156 1616.890625 843.550781 C 1610.367188 843.597656 1603.9375 844.324219 1597.476562 845.121094 C 1592.820312 845.699219 1592.765625 853.09375 1597.476562 852.507812 C 1616.636719 850.136719 1652.246094 850.4375 1660.011719 871.332031 C 1666.109375 887.746094 1654.933594 920.882812 1649.175781 937.304688 C 1632.523438 984.828125 1610.570312 1018.863281 1582.441406 1072.375 C 1552.980469 1128.410156 1521.808594 1198.046875 1455.828125 1222.292969 C 1410.113281 1239.09375 1369.957031 1225.109375 1348.351562 1193.230469 C 1325.363281 1159.3125 1338.34375 1122.359375 1367.445312 1093.296875 C 1379.324219 1081.433594 1387.539062 1076.8125 1422.4375 1043.566406 C 1496.761719 972.757812 1583.855469 870.96875 1599.171875 849.804688 C 1600.5 847.972656 1597.632812 845.898438 1596.09375 847.429688 Z M 1596.09375 847.4375 " fill-opacity="1" fill-rule="nonzero"/><path fill="#ffffff" d="M 643.800781 2219.960938 C 640.800781 2209.96875 651.789062 2200.839844 636.480469 2161.492188 C 625.738281 2133.886719 638.257812 2100.683594 641.78125 2089.207031 C 644.75 2079.546875 651.953125 1946.066406 666.371094 1679.097656 C 669.441406 1622.304688 694.824219 1524.433594 737.890625 1487.292969 C 815.6875 1420.195312 906.433594 1578.003906 1225.535156 1514.265625 C 1316.128906 2142.820312 1313.042969 2124.242188 1311.050781 2148.222656 C 1310.167969 2158.792969 1308.316406 2167.898438 1311.019531 2181.753906 C 1314.09375 2197.519531 1320.207031 2204.78125 1316.476562 2211.503906 " fill-opacity="1" fill-rule="nonzero"/><path fill="#010101" d="M 646.101562 2219.324219 C 645.003906 2214.441406 648.320312 2206.082031 647.957031 2194.335938 C 646.945312 2161.707031 630.949219 2158.402344 638.914062 2118.039062 C 640.777344 2108.59375 644.269531 2099.769531 646.691406 2090.511719 C 653.050781 2066.191406 666.457031 1767.816406 672.007812 1678.671875 C 674.710938 1635.265625 687.933594 1578.457031 708.6875 1537.753906 C 790.90625 1376.554688 862.65625 1591.175781 1226.894531 1519.226562 L 1220.566406 1515.632812 C 1223.632812 1537.507812 1304.738281 2111.847656 1305.023438 2134.460938 C 1305.269531 2153.902344 1299.351562 2167.480469 1307.148438 2193.003906 C 1308.246094 2196.597656 1312.671875 2204.457031 1310.835938 2208.214844 C 1307.171875 2215.726562 1318.414062 2222.347656 1322.09375 2214.796875 C 1327.566406 2203.585938 1319.433594 2191.164062 1317.285156 2180.023438 C 1314.882812 2167.535156 1317.324219 2155.324219 1317.890625 2142.8125 C 1318.824219 2122.082031 1316.621094 2108.972656 1303.347656 2014.71875 C 1290.496094 1923.5 1241.734375 1588.976562 1230.480469 1512.894531 C 1230.054688 1510.011719 1226.601562 1508.816406 1224.152344 1509.300781 C 955.1875 1562.847656 845.199219 1455.03125 769.699219 1466.597656 C 727.816406 1473.011719 700.761719 1523.121094 685.777344 1562.761719 C 665.730469 1615.796875 661.851562 1658.863281 659.125 1708.632812 C 636.984375 2112.460938 637.300781 2085.621094 637.378906 2085.140625 C 636.503906 2090.519531 630.917969 2104.539062 628.597656 2121.507812 C 622.933594 2163 640.5 2164.96875 641.597656 2197.734375 C 641.84375 2205.128906 639.300781 2213.40625 641.480469 2220.59375 C 642.378906 2223.546875 646.765625 2222.324219 646.09375 2219.324219 Z M 646.101562 2219.324219 " fill-opacity="1" fill-rule="nonzero"/><path fill="#010101" d="M 1023.617188 2234.15625 C 984.167969 2218.722656 1012.667969 2048.898438 978.1875 1839.847656 C 973.726562 1812.800781 971.648438 1805.707031 966.949219 1804.441406 C 961.378906 1802.941406 959.429688 1809.269531 958.417969 1813.3125 C 947.871094 1855.226562 944.023438 1981.789062 945.421875 2043.171875 C 948.070312 2159.683594 962.753906 2204.457031 930.566406 2230.863281 C 924.078125 2236.1875 933.351562 2245.375 939.785156 2240.082031 C 974.316406 2211.699219 963.394531 2148.378906 959.933594 2092.003906 C 950.816406 1943.65625 963.300781 1815.121094 969.269531 1812.375 C 968.695312 1812.636719 968.070312 1814.03125 966.796875 1814.160156 C 965.542969 1814.292969 961.820312 1812.46875 961.871094 1812.453125 C 962.183594 1812.398438 962.183594 1813.046875 962.257812 1813.265625 C 974.738281 1847.800781 984.375 1993.816406 986.0625 2049.308594 C 988.023438 2114.050781 982.921875 2230.46875 1022.351562 2238.746094 C 1025.410156 2239.386719 1026.453125 2235.246094 1023.617188 2234.132812 Z M 1023.617188 2234.15625 " fill-opacity="1" fill-rule="nonzero"/><path fill="#000000" d="M 958.070312 880.605469 C 902.308594 864.570312 902.40625 792.230469 832.542969 770.167969 C 723.0625 735.585938 666.660156 860.496094 622.75 965.882812 C 559.511719 1117.652344 546.292969 1381.59375 620.917969 1430.371094 C 639.597656 1442.582031 652.453125 1440.070312 662.398438 1453.578125 C 680.9375 1478.738281 653.234375 1512.828125 654.71875 1544.039062 C 655.863281 1568.078125 675.234375 1588.171875 697.421875 1597.5 C 727.953125 1610.335938 712.429688 1606.78125 1191.671875 1617.714844 C 1220.535156 1618.371094 1255.339844 1615.78125 1269.019531 1590.351562 C 1284.15625 1562.222656 1261.691406 1529.253906 1240.550781 1505.316406 C 1247.257812 1500.261719 1255.898438 1492.101562 1260.632812 1479.945312 C 1271.949219 1450.925781 1253.191406 1419.257812 1246.46875 1406.027344 C 1230.953125 1375.480469 1219.632812 1325.175781 1240.402344 1239.101562 C 1259.359375 1250.925781 1375.941406 1322.160156 1451.023438 1296.898438 C 1461 1293.542969 1499.707031 1280.523438 1502.34375 1257.742188 C 1503.832031 1244.835938 1492.984375 1235.386719 1498.292969 1226.359375 C 1504.011719 1216.636719 1519.179688 1223.152344 1534.265625 1213.546875 C 1548.042969 1204.769531 1557.417969 1185.308594 1555.039062 1170.078125 C 1551.105469 1144.863281 1517.914062 1150.078125 1483.703125 1115.265625 C 1452.136719 1083.140625 1456.453125 1054.339844 1419.539062 1033.027344 C 1401.632812 1022.6875 1392.761719 1024.9375 1388.992188 1026.511719 C 1373.304688 1033.082031 1377.925781 1056.582031 1366.3125 1062.578125 C 1347.332031 1072.367188 1296.910156 1029.292969 1260.679688 972.496094 C 1221 910.28125 1232.582031 885.273438 1200.636719 863.78125 C 1166.09375 840.546875 1120.492188 848.21875 1069.835938 856.734375 C 991.949219 869.832031 988.6875 889.421875 958.039062 880.605469 Z M 958.070312 880.605469 " fill-opacity="1" fill-rule="nonzero"/><path fill="#010101" d="M 959.230469 876.417969 C 912.964844 861.996094 905.390625 802.183594 855.648438 773.800781 C 830.804688 759.621094 799.035156 754.511719 771.175781 760.933594 C 693.953125 778.738281 648.25 887.460938 618.675781 958.355469 C 571.984375 1070.273438 543.609375 1260.964844 578.105469 1373.988281 C 604.449219 1460.292969 650.328125 1434.714844 660.683594 1464.273438 C 669.585938 1489.703125 639.625 1522.980469 650.59375 1557.964844 C 661.652344 1593.242188 698.449219 1608.621094 732.21875 1612.582031 C 752.769531 1614.996094 1194.324219 1623.996094 1194.800781 1623.996094 C 1224.910156 1624.105469 1259.644531 1619.855469 1273.871094 1593.1875 C 1290.464844 1562.074219 1267.464844 1527.769531 1244.421875 1501.464844 C 1244.050781 1504.324219 1243.6875 1507.175781 1243.316406 1510.035156 C 1260.195312 1497.125 1270.710938 1478.824219 1269.621094 1457.125 C 1267.023438 1405.324219 1211.0625 1385.929688 1245.976562 1240.65625 C 1243.152344 1241.808594 1240.324219 1242.949219 1237.503906 1244.101562 C 1292.898438 1278.722656 1381.378906 1320.34375 1444.863281 1304.957031 C 1467.105469 1299.5625 1500.15625 1285.238281 1507.203125 1263.878906 C 1511.957031 1249.472656 1503.316406 1240.308594 1502.960938 1232.632812 C 1502.550781 1223.746094 1517.179688 1227.757812 1531.003906 1222.078125 C 1553.964844 1212.648438 1566.296875 1182.691406 1559.945312 1164.058594 C 1554.125 1146.980469 1534.960938 1142.289062 1517.773438 1132.960938 C 1470.558594 1107.328125 1468.535156 1074.917969 1446.640625 1047.648438 C 1434.492188 1032.523438 1408.023438 1015.066406 1389.964844 1019.519531 C 1381.234375 1021.675781 1375.523438 1028.492188 1372.269531 1036.535156 C 1369.941406 1042.285156 1369.164062 1053.835938 1363.121094 1057.089844 C 1351.441406 1063.367188 1308.632812 1031.375 1272.945312 979.457031 C 1233.84375 922.574219 1236.996094 892.875 1217.953125 870.480469 C 1186.332031 833.289062 1128.019531 840.746094 1080.554688 848.535156 C 984.800781 864.246094 989.296875 882.777344 959.761719 874.476562 C 951.851562 872.25 948.472656 884.554688 956.371094 886.773438 C 994.273438 897.429688 994.523438 869.832031 1114.117188 856.480469 C 1138.257812 853.78125 1164.71875 852.644531 1187.207031 863.449219 C 1221.554688 879.941406 1218.980469 906.222656 1238.417969 945.996094 C 1270.578125 1011.820312 1347.5 1092.910156 1374.09375 1064.59375 C 1383.011719 1055.105469 1380.910156 1030.640625 1397.414062 1031.574219 C 1410.890625 1032.339844 1432.25 1044.179688 1447.5 1071.996094 C 1458.75 1092.53125 1466.855469 1111.363281 1492.03125 1131.015625 C 1515.253906 1149.136719 1534.667969 1152.042969 1544.1875 1161.554688 C 1555.917969 1173.277344 1545.601562 1205.148438 1523.300781 1211.855469 C 1513.292969 1214.859375 1499.855469 1212.613281 1493.417969 1222.734375 C 1480.472656 1243.089844 1524.359375 1260.886719 1461.539062 1286.675781 C 1445.859375 1293.109375 1429.847656 1296.558594 1412.832031 1296.304688 C 1357.902344 1295.46875 1289.898438 1263.097656 1243.316406 1234.148438 C 1240.234375 1232.230469 1235.695312 1234.023438 1234.847656 1237.59375 C 1222.644531 1288.9375 1216.324219 1348.503906 1236.390625 1397.3125 C 1244.574219 1417.210938 1264.503906 1444.769531 1257.117188 1473.042969 C 1250.480469 1498.460938 1228.8125 1500.230469 1236.695312 1509.195312 C 1291.3125 1571.277344 1269.566406 1606.949219 1216.429688 1611.105469 C 1202.273438 1612.210938 1216.03125 1612.003906 775.324219 1601.742188 C 740.273438 1600.921875 699.191406 1601.476562 673.914062 1572.949219 C 647.792969 1543.457031 669.632812 1515.414062 674.449219 1484.628906 C 676.726562 1470.039062 674.378906 1454.699219 662.933594 1444.304688 C 651 1433.46875 632.152344 1431.894531 620.753906 1422.132812 C 544.179688 1356.53125 565.246094 1033.15625 690.40625 843.96875 C 724.269531 792.777344 765.765625 759.742188 825.554688 774.519531 C 896.734375 792.097656 897.308594 867.9375 956.894531 884.832031 C 962.296875 886.363281 964.53125 878.109375 959.207031 876.449219 Z M 959.230469 876.417969 " fill-opacity="1" fill-rule="nonzero"/><path fill="#ffffff" d="M 1060.363281 547.214844 C 1082.566406 550.863281 1103.105469 572.410156 1112.101562 592.199219 C 1119.898438 609.347656 1118.558594 624.128906 1113.785156 649.910156 C 1099.402344 727.566406 1088.644531 785.648438 1052.257812 792.277344 C 1031.691406 796.027344 1008.835938 776.636719 1006.738281 845.351562 C 1005.472656 887.011719 1013.371094 890.203125 1004.925781 899.871094 C 983.914062 923.941406 950.117188 962.683594 933.210938 955.457031 C 914.71875 947.550781 902.492188 880.714844 900.832031 878.171875 C 889.921875 861.394531 909.867188 836.78125 920.605469 821.402344 C 938.527344 795.738281 956.222656 754.804688 953.734375 688.316406 C 934.207031 685.8125 919.820312 675.628906 917.761719 664.253906 C 914.75 647.5 935.847656 636.394531 963.109375 649.308594 C 975.929688 579.773438 1024.882812 541.390625 1060.363281 547.214844 Z M 1060.363281 547.214844 " fill-opacity="1" fill-rule="nonzero"/><path fill="#010101" d="M 1059.265625 551.195312 C 1089.386719 559.519531 1112.820312 592.492188 1110.957031 623.394531 C 1109.6875 644.34375 1095.648438 709.011719 1089.882812 729.195312 C 1084.503906 748.035156 1076.652344 776.1875 1056.089844 784 C 1039.722656 790.222656 1016.308594 775.640625 1005.332031 806.132812 C 993.710938 838.425781 1003.972656 887.96875 1001.222656 893.535156 C 1003.230469 889.476562 973.519531 928.554688 950.691406 943.695312 C 938.542969 951.746094 931.9375 956.53125 918.882812 917.34375 C 912.6875 898.742188 909.167969 881.152344 908.449219 878.519531 C 907.640625 875.527344 905.546875 873.1875 904.917969 870.140625 C 898.257812 837.863281 965.085938 819.253906 960.574219 688.324219 C 960.480469 685.644531 958.542969 682.164062 955.566406 681.746094 C 945.550781 680.324219 933.0625 676.625 927.019531 668.511719 C 924.160156 664.675781 924.191406 661.105469 924.449219 663.285156 C 922.277344 644.886719 950.605469 651.070312 959.703125 655.171875 C 963.339844 656.816406 968.773438 655.820312 969.664062 651.113281 C 974.949219 623.203125 986.5625 595.917969 1007.042969 575.738281 C 1020.109375 562.855469 1039.351562 550.714844 1058.601562 553.644531 C 1066.992188 554.921875 1070.609375 542.085938 1062.148438 540.792969 C 1038.59375 537.207031 1016.332031 548.523438 999.476562 564.300781 C 976.222656 586.070312 962.46875 616.585938 956.585938 647.515625 C 959.910156 646.160156 963.234375 644.808594 966.546875 643.457031 C 905.207031 615.699219 886.09375 685.496094 951.941406 694.902344 C 950.273438 692.707031 948.605469 690.511719 946.933594 688.324219 C 950.875 805.160156 897.703125 823.457031 891.394531 860.785156 C 890.253906 867.554688 890.539062 875.84375 894.804688 881.625 C 896.179688 883.488281 894.828125 879.722656 894.921875 881.734375 C 894.996094 883.265625 904.757812 927.738281 916.757812 948.03125 C 938.628906 985.023438 972.546875 947.851562 1008.03125 907.082031 C 1016.671875 897.152344 1016.5 893.953125 1015.15625 880.699219 C 1013.316406 862.554688 1011.390625 818.699219 1021.855469 803.898438 C 1021.792969 803.984375 1021.59375 804.085938 1022.433594 803.25 C 1030.085938 795.601562 1042.851562 801.75 1056.074219 798.621094 C 1092.148438 790.089844 1103.902344 735.324219 1111.820312 696.269531 C 1123.273438 639.777344 1129.203125 614.078125 1117.671875 588.960938 C 1107.679688 567.199219 1086.113281 545.539062 1060.371094 543.097656 C 1055.648438 542.648438 1054.890625 549.996094 1059.273438 551.210938 Z M 1059.265625 551.195312 " fill-opacity="1" fill-rule="nonzero"/><path fill="#ffffff" d="M 928.9375 793.597656 C 923.890625 791.042969 904.308594 792.949219 889.972656 805.714844 C 881.382812 873.605469 870.035156 911.136719 860.710938 933.222656 C 860.382812 933.980469 853.238281 950.90625 857.347656 953.726562 C 864.140625 958.386719 893.929688 919.3125 906.8125 926.066406 C 912.730469 929.175781 909.101562 938.820312 918.867188 950.09375 C 925.035156 957.210938 934.871094 963.050781 938.402344 960.503906 C 942.160156 957.789062 936.996094 946.832031 933.714844 933.417969 C 931.851562 925.8125 930.863281 918.480469 932.707031 877.707031 C 935.335938 819.757812 938.96875 798.691406 928.9375 793.605469 Z M 928.9375 793.597656 " fill-opacity="1" fill-rule="nonzero"/><path fill="#010101" d="M 930.210938 791.410156 C 919.261719 786.464844 900.390625 793.453125 890.609375 801.039062 C 882.339844 807.445312 889.332031 815.992188 872.191406 885.707031 C 868.5625 900.472656 864.257812 915.132812 858.554688 929.242188 C 856.21875 935.015625 845.785156 959.34375 859.8125 957.527344 C 867.695312 956.507812 879.796875 942.140625 892.78125 933.472656 C 909.886719 922.042969 905.769531 934.320312 911.394531 945.332031 C 917.617188 957.527344 938.195312 972 942.691406 960.308594 C 944.847656 954.699219 939.765625 943.78125 936.988281 932.054688 C 932.359375 912.460938 938.371094 858.335938 939.023438 819.578125 C 939.175781 810.515625 940.257812 795.738281 930.691406 790.601562 C 926.75 788.484375 923.234375 794.488281 927.183594 796.605469 C 935.3125 800.972656 931.949219 818.480469 929.269531 876.585938 C 928.480469 893.734375 926.371094 917.851562 930.335938 934.351562 C 934.925781 953.476562 940.558594 960.757812 931.402344 955.890625 C 908.414062 943.664062 919.78125 921.167969 902.777344 921.777344 C 885.421875 922.40625 866.597656 950.371094 858.886719 950.570312 C 860.453125 950.535156 859.140625 951.074219 859.671875 948.925781 C 866.503906 921.476562 879.195312 909.609375 891.386719 819.773438 C 893.226562 806.226562 892.355469 807.695312 895.40625 805.398438 C 903.636719 799.21875 920.035156 792.71875 928.265625 796.054688 C 930.90625 797.128906 932.832031 792.601562 930.21875 791.417969 Z M 930.210938 791.410156 " fill-opacity="1" fill-rule="nonzero"/><path fill="#ffffff" d="M 1016.4375 820.957031 C 1020.96875 821.566406 1022.828125 832.894531 1044.382812 857.3125 C 1017.25 916.792969 1007.867188 953.144531 1004.597656 975.917969 C 1004.484375 976.699219 1001.988281 994.15625 997.058594 994.289062 C 988.921875 994.496094 983.378906 947.226562 968.988281 945.941406 C 963.300781 945.433594 961.117188 953.933594 946.542969 959.074219 C 944.824219 959.675781 934.878906 963.082031 933.394531 960.601562 C 931.757812 957.867188 941.324219 949.519531 945.660156 945.410156 C 949.957031 941.335938 956.964844 933.957031 979.019531 888.550781 C 1002.097656 841.054688 1008.617188 819.910156 1016.4375 820.96875 Z M 1016.4375 820.957031 " fill-opacity="1" fill-rule="nonzero"/><path fill="#010101" d="M 1015.757812 823.40625 C 1018.863281 824.070312 1021.375 835.808594 1042.070312 859.617188 C 1041.902344 858.304688 1041.730469 856.988281 1041.5625 855.675781 C 994.4375 958.121094 1006.585938 968.65625 997.921875 988.253906 C 997.589844 988.996094 996.347656 990.765625 996.832031 990.816406 C 997.730469 990.902344 997.105469 990.523438 996.863281 990.160156 C 988.882812 978.183594 985.320312 943.191406 968.984375 942.425781 C 960.449219 942.023438 959.253906 952.691406 940.179688 957.328125 C 939.515625 957.488281 938.257812 957.558594 937.714844 957.851562 C 937.261719 957.898438 936.804688 957.9375 936.347656 957.984375 C 936.472656 959.753906 936.75 960.164062 937.191406 959.203125 C 938.265625 958.570312 939.832031 955.933594 940.761719 954.96875 C 950.558594 944.769531 953.007812 947.21875 972.203125 910.015625 C 997.738281 860.527344 1010.332031 823.875 1016.429688 824.457031 C 1020.882812 824.875 1020.859375 817.917969 1016.429688 817.5 C 1008.617188 816.765625 1003.917969 827.910156 1001.144531 833.390625 C 987.375 860.582031 968.347656 907.3125 950.699219 933.71875 C 946.0625 940.664062 939.855469 945.363281 934.324219 951.570312 C 923.351562 963.871094 934.089844 970.878906 955.125 959.066406 C 964.539062 953.773438 965.9375 948.59375 969.800781 949.761719 C 979.832031 952.78125 984.714844 990.941406 993.578125 996.722656 C 1003.859375 1003.429688 1007.21875 981.921875 1008.117188 976.074219 C 1014.382812 935.410156 1030.417969 896.269531 1047.179688 858.984375 C 1049.296875 854.261719 1043.152344 854.417969 1025.820312 827.988281 C 1023.710938 824.773438 1021.40625 819.277344 1017.101562 818.535156 C 1013.941406 817.996094 1012.527344 822.734375 1015.757812 823.429688 Z M 1015.757812 823.40625 " fill-opacity="1" fill-rule="nonzero"/><path fill="#ffffff" d="M 1173.644531 1141.425781 C 1055.269531 1177.613281 946.84375 1211.878906 842.535156 1244.992188 C 803.539062 1257.371094 739.996094 1278.40625 727.929688 1324.546875 C 723.582031 1341.195312 723.140625 1371.757812 741.191406 1391.792969 C 752.824219 1404.707031 767.90625 1408.5625 773.355469 1409.953125 C 873.761719 1435.601562 1145.855469 1263.460938 1145.855469 1263.460938 C 1218.285156 1217.636719 1253.261719 1191.871094 1247.929688 1171.082031 C 1242.945312 1151.664062 1204.792969 1144.398438 1173.644531 1141.425781 Z M 1173.644531 1141.425781 " fill-opacity="1" fill-rule="nonzero"/><path fill="#010101" d="M 1173.125 1139.539062 C 1132.570312 1148.875 836.257812 1242.132812 812.226562 1251.027344 C 773.316406 1265.421875 727.574219 1288.421875 722.027344 1334.371094 C 719.097656 1358.605469 725.425781 1385.511719 745.296875 1401.199219 C 781.183594 1429.535156 841.769531 1413.253906 885.089844 1398.632812 C 1008.925781 1356.84375 1193.15625 1245.355469 1234.785156 1205.925781 C 1266.222656 1176.152344 1255.472656 1153.6875 1212.296875 1143.308594 C 1199.625 1140.265625 1186.625 1138.765625 1173.652344 1137.730469 C 1168.859375 1137.34375 1169.023438 1144.585938 1173.652344 1145.117188 C 1191.503906 1147.179688 1227.855469 1152.328125 1240.007812 1165.742188 C 1257.257812 1184.769531 1210.542969 1215.515625 1187.617188 1231.105469 C 1102.441406 1289.023438 915.328125 1396.554688 813.222656 1407.472656 C 761.445312 1413.007812 737.414062 1390.882812 731.214844 1362.210938 C 720.691406 1313.511719 751.625 1285.648438 797.449219 1265.515625 C 834.960938 1249.039062 1135.933594 1158.007812 1174.175781 1143.300781 C 1176.496094 1142.414062 1175.636719 1138.949219 1173.132812 1139.53125 Z M 1173.125 1139.539062 " fill-opacity="1" fill-rule="nonzero"/><path fill="#8650e1" d="M 1876.828125 768.769531 C 1900.839844 752.617188 1924.839844 736.46875 1948.851562 720.316406 C 1954.808594 716.304688 1962.835938 720.542969 1962.890625 727.71875 C 1963.648438 822.695312 1964.414062 917.667969 1965.171875 1012.640625 C 1965.226562 1019.820312 1957.28125 1024.1875 1951.253906 1020.277344 C 1927.019531 1004.558594 1902.777344 988.832031 1878.542969 973.113281 C 1877.800781 885.289062 1877.5625 856.585938 1876.828125 768.769531 Z M 1876.828125 768.769531 " fill-opacity="1" fill-rule="nonzero"/><path fill="#ffffff" d="M 1548.65625 786.210938 C 1549.691406 832.917969 1550.734375 879.625 1551.769531 926.332031 C 1657.640625 927.699219 1763.515625 929.074219 1869.386719 930.441406 C 1870.011719 881.886719 1870.636719 833.328125 1871.265625 784.773438 C 1763.726562 785.253906 1656.1875 785.722656 1548.648438 786.203125 Z M 1548.65625 786.210938 " fill-opacity="1" fill-rule="nonzero"/><path fill="#010101" d="M 1545.175781 786.210938 C 1544.390625 832.917969 1545.765625 879.640625 1546.738281 926.332031 C 1546.792969 929.082031 1549.003906 931.324219 1551.777344 931.367188 C 1634.246094 932.558594 1845.996094 935.558594 1869.394531 935.828125 C 1872.324219 935.859375 1874.742188 933.339844 1874.773438 930.449219 C 1875.335938 881.894531 1875.894531 833.335938 1876.457031 784.78125 C 1876.488281 781.992188 1874.054688 779.582031 1871.273438 779.597656 C 1787.550781 780.082031 1572.472656 780.746094 1548.65625 780.917969 C 1541.855469 780.964844 1541.839844 791.503906 1548.65625 791.496094 C 1632.382812 791.34375 1847.453125 790.035156 1871.273438 789.960938 C 1869.539062 788.226562 1867.816406 786.503906 1866.085938 784.773438 C 1865.390625 833.328125 1864.703125 881.886719 1864.007812 930.441406 C 1865.800781 928.648438 1867.59375 926.855469 1869.386719 925.0625 C 1786.914062 923.878906 1575.167969 921.5625 1551.769531 921.292969 C 1553.445312 922.96875 1555.121094 924.644531 1556.808594 926.332031 C 1555.703125 879.617188 1554.992188 832.855469 1552.132812 786.210938 C 1551.863281 781.777344 1545.253906 781.699219 1545.175781 786.210938 Z M 1545.175781 786.210938 " fill-opacity="1" fill-rule="nonzero"/><path fill="#8650e1" d="M 1365.515625 722.535156 C 1366.597656 808.003906 1367.679688 893.472656 1368.769531 978.941406 C 1368.960938 994.394531 1381.363281 1006.921875 1396.820312 1007.277344 C 1512.613281 1009.914062 1628.40625 1012.542969 1744.195312 1015.175781 C 1760.214844 1015.539062 1773.4375 1002.710938 1773.554688 986.691406 L 1775.515625 719.644531 C 1775.632812 703.625 1762.613281 690.605469 1746.59375 690.726562 C 1629.0625 691.640625 1511.53125 692.558594 1394 693.472656 C 1378.089844 693.59375 1365.3125 706.632812 1365.523438 722.542969 Z M 1365.515625 722.535156 " fill-opacity="1" fill-rule="nonzero"/><path fill="#ffffff" d="M 1294.875 624.207031 C 1295.148438 644.128906 1295.410156 664.042969 1295.679688 683.964844 C 1402.886719 688.144531 1513.554688 690.992188 1627.414062 692.21875 C 1624.527344 684.484375 1619.339844 673.496094 1609.773438 663.117188 C 1580.539062 631.394531 1534.367188 631.261719 1505.519531 630.9375 C 1444.855469 630.265625 1377.199219 627.792969 1294.875 624.207031 Z M 1294.875 624.207031 " fill-opacity="1" fill-rule="nonzero"/><path fill="#010101" d="M 1292.558594 624.207031 C 1290.726562 643.9375 1291.515625 664.152344 1291.730469 683.964844 C 1291.753906 686.167969 1293.523438 687.820312 1295.679688 687.914062 C 1405.335938 692.441406 1517.675781 695.171875 1627.414062 696.199219 C 1629.804688 696.222656 1632.191406 693.601562 1631.257812 691.160156 C 1603.921875 619.894531 1529.132812 627.296875 1467.152344 625.992188 C 1411.417969 624.816406 1350.476562 622.390625 1294.882812 620.003906 C 1289.472656 619.769531 1289.488281 628.171875 1294.882812 628.410156 C 1534.125 638.960938 1535.632812 631.84375 1569.503906 642.730469 C 1594.613281 650.804688 1614.15625 668.457031 1623.582031 693.277344 C 1624.867188 691.601562 1626.140625 689.917969 1627.421875 688.238281 C 1520.5625 686.917969 1393.09375 683.570312 1295.6875 680.015625 C 1297 681.332031 1298.324219 682.652344 1299.636719 683.964844 C 1299.320312 664.136719 1299.566406 643.898438 1297.203125 624.207031 C 1296.847656 621.261719 1292.84375 621.191406 1292.566406 624.207031 Z M 1292.558594 624.207031 " fill-opacity="1" fill-rule="nonzero"/><path fill="#ffffff" d="M 1296.902344 624.996094 C 1272.621094 616.480469 1248.339844 607.964844 1224.058594 599.449219 C 1216.765625 596.890625 1209.074219 602.121094 1208.757812 609.839844 C 1205.574219 688.5625 1204.277344 690.441406 1208.269531 694.566406 C 1212.621094 699.066406 1215.851562 697.25 1292.644531 682.542969 C 1294.890625 652.105469 1294.644531 655.425781 1296.894531 624.988281 Z M 1296.902344 624.996094 " fill-opacity="1" fill-rule="nonzero"/><path fill="#010101" d="M 1298.066406 622.992188 C 1290.394531 618.652344 1235.242188 599.980469 1224.648438 597.316406 C 1217.683594 595.5625 1210.28125 598.480469 1207.484375 605.445312 C 1205.558594 610.234375 1206.625 606.960938 1203.535156 683.988281 C 1203.273438 690.535156 1204.5625 697.472656 1212.066406 698.925781 C 1216.175781 699.730469 1213.085938 700.125 1293.316406 684.992188 C 1296.546875 684.382812 1294.683594 678.175781 1295.039062 672.589844 C 1295.070312 672.121094 1298.230469 625.476562 1298.269531 624.996094 C 1298.414062 623.242188 1295.625 623.226562 1295.519531 624.996094 C 1294.9375 634.253906 1294.3125 638.324219 1292.289062 664.996094 C 1291.136719 680.25 1290.503906 677.035156 1290.109375 682.550781 C 1290.726562 681.738281 1291.34375 680.921875 1291.960938 680.109375 C 1289.882812 680.511719 1217.507812 694.546875 1215.125 694.53125 C 1205.148438 694.460938 1207.9375 688.695312 1210.613281 622.855469 C 1210.804688 618.0625 1210.125 612.46875 1211.269531 607.816406 C 1212.652344 602.152344 1218.292969 600.074219 1223.464844 601.589844 C 1225.984375 602.328125 1283.316406 625.132812 1296.273438 627.230469 C 1298.71875 627.621094 1300.515625 624.378906 1298.058594 622.992188 Z M 1298.066406 622.992188 " fill-opacity="1" fill-rule="nonzero"/><path fill="#ffffff" d="M 1551.171875 654.996094 C 1537.441406 644.121094 1550.300781 624.742188 1545.472656 583.195312 C 1545.007812 579.183594 1543.910156 570.894531 1548.824219 565.269531 C 1553.996094 559.355469 1560.460938 559.8125 1598.34375 556.054688 C 1605.523438 555.34375 1613.351562 554.78125 1619.371094 558.753906 C 1624.457031 562.105469 1627.207031 569.417969 1624.007812 574.601562 C 1605.910156 577.121094 1587.820312 579.648438 1569.71875 582.167969 C 1570.671875 607.980469 1571.613281 633.789062 1572.5625 659.601562 C 1560.726562 660.851562 1554.472656 657.613281 1551.167969 654.996094 Z M 1551.171875 654.996094 " fill-opacity="1" fill-rule="nonzero"/><path fill="#010101" d="M 1552.503906 653.65625 C 1542.84375 643.316406 1553.214844 626.554688 1550.222656 588.882812 C 1549.714844 582.492188 1547.269531 573.707031 1551.792969 568.21875 C 1556.800781 562.128906 1569.851562 563.042969 1576.820312 562.339844 C 1585.65625 561.449219 1594.527344 560.222656 1603.398438 559.757812 C 1609.917969 559.417969 1625.847656 562.046875 1620.453125 572.507812 C 1621.273438 571.875 1622.097656 571.242188 1622.917969 570.609375 C 1604.828125 573.125 1586.753906 575.738281 1568.675781 578.335938 C 1562.449219 579.230469 1567.570312 590.144531 1570.308594 659.585938 C 1571.066406 658.828125 1571.816406 658.078125 1572.570312 657.320312 C 1565.847656 657.824219 1558.515625 657.519531 1552.964844 653.1875 C 1550.097656 650.945312 1546.929688 654.972656 1549.890625 657.167969 C 1556.429688 662.019531 1564.710938 662.621094 1572.570312 661.839844 C 1573.753906 661.726562 1574.875 660.898438 1574.835938 659.578125 C 1573.957031 633.78125 1574.535156 607.957031 1573.699219 582.144531 C 1572.726562 583.421875 1571.761719 584.695312 1570.785156 585.96875 C 1582.863281 584.339844 1594.945312 582.71875 1607.023438 581.078125 C 1622.175781 579.023438 1629.207031 580.359375 1629.488281 570.050781 C 1629.710938 561.78125 1623.660156 555.058594 1616.046875 552.671875 C 1606.480469 549.664062 1595.34375 552.199219 1585.632812 553.152344 C 1569.21875 554.765625 1542.765625 552.585938 1540.941406 574.820312 C 1540.214844 583.730469 1542.394531 592.941406 1542.472656 601.898438 C 1542.742188 630.9375 1535.199219 647.160156 1550.222656 656.609375 C 1552.078125 657.777344 1553.933594 655.179688 1552.503906 653.648438 Z M 1552.503906 653.65625 " fill-opacity="1" fill-rule="nonzero"/><path fill="#8650e1" d="M 1598.195312 536.011719 C 1596.722656 536.820312 1573.367188 550.027344 1575.539062 568.898438 C 1576.984375 581.433594 1587.941406 591.210938 1599.929688 595.152344 C 1611.914062 599.09375 1624.875 598.351562 1637.46875 597.554688 C 1879.347656 582.363281 1873.367188 582.894531 1879.300781 580.878906 C 1892.585938 576.363281 1900.011719 559.449219 1894.347656 546.621094 C 1886.867188 529.683594 1861.132812 523.761719 1844.496094 525.632812 C 1637.445312 548.886719 1631.164062 517.820312 1598.1875 536.003906 Z M 1598.195312 536.011719 " fill-opacity="1" fill-rule="nonzero"/><path fill="#ffffff" d="M 1487.761719 1009.296875 C 1491.957031 1021.636719 1496.144531 1033.976562 1500.332031 1046.320312 C 1545.152344 1047.78125 1589.984375 1049.230469 1634.8125 1050.691406 C 1638.667969 1038.089844 1642.523438 1025.484375 1646.378906 1012.882812 C 1593.507812 1011.683594 1540.632812 1010.484375 1487.761719 1009.296875 Z M 1487.761719 1009.296875 " fill-opacity="1" fill-rule="nonzero"/><path fill="#010101" d="M 1485.25 1009.992188 C 1495.980469 1047.046875 1495.503906 1050.40625 1500.339844 1050.617188 C 1545.152344 1052.546875 1589.984375 1053.976562 1634.820312 1055.460938 C 1636.953125 1055.53125 1638.8125 1053.921875 1639.410156 1051.960938 C 1643.273438 1039.355469 1647.191406 1026.773438 1650.890625 1014.125 C 1651.757812 1011.171875 1649.371094 1008.238281 1646.378906 1008.199219 C 1593.5 1007.617188 1540.632812 1006.3125 1487.761719 1005.230469 C 1482.535156 1005.121094 1482.542969 1013.214844 1487.761719 1013.34375 C 1540.632812 1014.660156 1593.523438 1015.738281 1646.378906 1017.554688 C 1644.871094 1015.578125 1643.375 1013.605469 1641.867188 1011.628906 C 1637.863281 1024.1875 1634.070312 1036.8125 1630.21875 1049.417969 C 1631.75 1048.25 1633.28125 1047.082031 1634.8125 1045.917969 C 1589.988281 1044.488281 1545.167969 1042.996094 1500.332031 1042.015625 C 1501.714844 1043.066406 1503.089844 1044.117188 1504.476562 1045.167969 C 1500.070312 1032.863281 1495.03125 1020.761719 1490.273438 1008.59375 C 1489.082031 1005.539062 1484.28125 1006.683594 1485.242188 1009.976562 Z M 1485.25 1009.992188 " fill-opacity="1" fill-rule="nonzero"/><path fill="#ffffff" d="M 1542.976562 1048.753906 C 1544.699219 1130.011719 1546.429688 1211.265625 1548.152344 1292.515625 C 1563.160156 1292.757812 1578.160156 1292.996094 1593.160156 1293.226562 C 1592.054688 1212.417969 1590.957031 1131.617188 1589.851562 1050.808594 C 1574.226562 1050.121094 1558.59375 1049.433594 1542.96875 1048.753906 Z M 1542.976562 1048.753906 " fill-opacity="1" fill-rule="nonzero"/><path fill="#010101" d="M 1540 1048.753906 C 1540.199219 1130.011719 1542.621094 1211.28125 1544.289062 1292.515625 C 1544.335938 1294.625 1546.019531 1296.339844 1548.152344 1296.378906 C 1563.152344 1296.628906 1578.160156 1296.875 1593.160156 1297.121094 C 1595.246094 1297.152344 1597.078125 1295.3125 1597.046875 1293.234375 C 1595.996094 1212.425781 1594.953125 1131.625 1593.902344 1050.816406 C 1593.871094 1048.550781 1592.0625 1046.859375 1589.851562 1046.765625 C 1574.226562 1046.070312 1558.59375 1045.390625 1542.96875 1044.703125 C 1537.742188 1044.472656 1537.757812 1052.585938 1542.96875 1052.816406 C 1558.59375 1053.503906 1574.226562 1054.191406 1589.851562 1054.875 C 1588.5 1053.519531 1587.144531 1052.167969 1585.800781 1050.824219 C 1586.960938 1131.632812 1588.113281 1212.433594 1589.273438 1293.242188 C 1590.570312 1291.945312 1591.867188 1290.644531 1593.160156 1289.355469 C 1578.160156 1289.132812 1563.152344 1288.898438 1548.152344 1288.675781 L 1552.015625 1292.539062 C 1550.238281 1211.289062 1549.203125 1129.980469 1545.949219 1048.777344 C 1545.796875 1044.972656 1540 1044.933594 1540.007812 1048.777344 Z M 1540 1048.753906 " fill-opacity="1" fill-rule="nonzero"/><path fill="#ffffff" d="M 1503.09375 1296.828125 C 1458.164062 1606.71875 1413.234375 1916.609375 1368.304688 2226.496094 C 1375.917969 2225.277344 1383.519531 2224.0625 1391.132812 2222.84375 C 1447.113281 1915.898438 1503.09375 1608.945312 1559.070312 1302 C 1540.417969 1300.273438 1521.753906 1298.550781 1503.09375 1296.828125 Z M 1503.09375 1296.828125 " fill-opacity="1" fill-rule="nonzero"/><path fill="#010101" d="M 1501.761719 1296.464844 C 1493.117188 1336.1875 1495.734375 1320.40625 1365.304688 2225.679688 C 1364.953125 2228.152344 1366.628906 2229.914062 1369.140625 2229.511719 C 1392.996094 2225.648438 1393.652344 2226.140625 1394.101562 2223.667969 C 1404.941406 2163.59375 1415.082031 2103.402344 1425.945312 2043.328125 C 1567.070312 1262.980469 1569.054688 1299.117188 1559.078125 1298.066406 C 1540.425781 1296.101562 1521.777344 1294.148438 1503.101562 1292.414062 C 1497.433594 1291.890625 1497.472656 1300.730469 1503.101562 1301.257812 C 1521.746094 1302.980469 1540.410156 1304.472656 1559.078125 1305.953125 C 1557.8125 1304.292969 1556.542969 1302.625 1555.277344 1300.960938 C 1549.101562 1337.5 1460.070312 1831.917969 1388.179688 2222.039062 C 1388.898438 2221.320312 1389.609375 2220.609375 1390.328125 2219.890625 C 1382.71875 2221.09375 1375.105469 2222.300781 1367.492188 2223.507812 C 1368.769531 2224.78125 1370.042969 2226.054688 1371.328125 2227.339844 C 1504.566406 1313.976562 1501.585938 1336.125 1504.484375 1296.835938 C 1504.597656 1295.289062 1502.109375 1294.957031 1501.777344 1296.472656 Z M 1501.761719 1296.464844 " fill-opacity="1" fill-rule="nonzero"/><path fill="#ffffff" d="M 1630.675781 1296.828125 C 1675.605469 1606.71875 1720.535156 1916.609375 1765.464844 2226.496094 C 1757.851562 2225.277344 1750.246094 2224.0625 1742.636719 2222.84375 C 1686.65625 1915.898438 1630.675781 1608.945312 1574.695312 1302 C 1593.351562 1300.273438 1612.015625 1298.550781 1630.675781 1296.828125 Z M 1630.675781 1296.828125 " fill-opacity="1" fill-rule="nonzero"/><path fill="#010101" d="M 1629.300781 1296.828125 C 1632.332031 1337.878906 1629.339844 1314.78125 1762.457031 2227.332031 C 1763.734375 2226.058594 1765.007812 2224.78125 1766.289062 2223.5 C 1758.679688 2222.292969 1751.066406 2221.085938 1743.457031 2219.882812 C 1744.171875 2220.601562 1744.886719 2221.3125 1745.601562 2222.03125 C 1642.707031 1663.6875 1580.816406 1314.585938 1578.507812 1300.957031 C 1577.238281 1302.617188 1575.972656 1304.285156 1574.703125 1305.945312 C 1593.375 1304.464844 1612.03125 1302.972656 1630.683594 1301.25 C 1636.300781 1300.730469 1636.355469 1291.882812 1630.683594 1292.410156 C 1612.007812 1294.132812 1593.359375 1296.085938 1574.703125 1298.058594 C 1572.039062 1298.335938 1570.371094 1300.335938 1570.902344 1303.050781 C 1584.457031 1372.28125 1740.574219 2225.601562 1741.824219 2225.808594 C 1749.429688 2227.046875 1757.03125 2228.273438 1764.636719 2229.511719 C 1767.140625 2229.921875 1768.824219 2228.152344 1768.46875 2225.679688 C 1637.886719 1319.363281 1640.613281 1336 1632.011719 1296.464844 C 1631.6875 1294.964844 1629.191406 1295.277344 1629.308594 1296.828125 Z M 1629.300781 1296.828125 " fill-opacity="1" fill-rule="nonzero"/><path fill="#ffffff" d="M 1506.34375 2233.375 C 1518.695312 2233.011719 1531.042969 2232.65625 1543.390625 2232.292969 C 1560.121094 1923.253906 1576.859375 1614.207031 1593.589844 1305.167969 C 1571.125 1303.097656 1548.671875 1301.03125 1526.207031 1298.960938 C 1519.589844 1610.433594 1512.96875 1921.902344 1506.351562 2233.375 Z M 1506.34375 2233.375 " fill-opacity="1" fill-rule="nonzero"/><path fill="#010101" d="M 1506.34375 2236.417969 C 1518.695312 2236.179688 1531.042969 2235.941406 1543.390625 2235.699219 C 1545.324219 2235.664062 1546.675781 2234.164062 1546.800781 2232.292969 C 1561.714844 1999.132812 1582.59375 1529.765625 1595.925781 1305.167969 C 1596.003906 1303.824219 1594.789062 1302.957031 1593.589844 1302.832031 C 1571.132812 1300.5625 1548.675781 1298.34375 1526.207031 1296.257812 C 1522.109375 1295.878906 1524.589844 1249.550781 1507.433594 2027.523438 C 1505.921875 2096.136719 1503.269531 2164.753906 1502.441406 2233.375 C 1502.382812 2238.421875 1510.117188 2238.40625 1510.261719 2233.375 C 1511.105469 2205.726562 1510.054688 2221.265625 1528.910156 1298.960938 C 1528.007812 1299.867188 1527.109375 1300.761719 1526.207031 1301.667969 C 1548.664062 1303.714844 1571.121094 1305.628906 1593.589844 1307.492188 C 1592.8125 1306.710938 1592.039062 1305.941406 1591.257812 1305.160156 C 1582.015625 1493.976562 1548.089844 2049.292969 1539.984375 2232.285156 L 1543.390625 2228.878906 C 1531.042969 2229.355469 1518.695312 2229.84375 1506.34375 2230.324219 C 1502.449219 2230.476562 1502.410156 2236.480469 1506.34375 2236.410156 Z M 1506.34375 2236.417969 " fill-opacity="1" fill-rule="nonzero"/><path fill="#ffffff" d="M 1478.804688 1271.503906 C 1537.054688 1270.097656 1595.300781 1268.699219 1653.550781 1267.300781 C 1653.15625 1284.109375 1652.761719 1300.925781 1652.367188 1317.730469 C 1595.128906 1317.367188 1537.890625 1317.003906 1480.652344 1316.640625 C 1480.039062 1301.597656 1479.421875 1286.550781 1478.804688 1271.503906 Z M 1478.804688 1271.503906 " fill-opacity="1" fill-rule="nonzero"/><path fill="#010101" d="M 1478.765625 1271.652344 C 1490.054688 1273.824219 1569.921875 1271.320312 1653.550781 1269.582031 C 1652.792969 1268.824219 1652.027344 1268.058594 1651.269531 1267.300781 C 1650.824219 1284.109375 1650.375 1300.925781 1649.917969 1317.730469 C 1650.738281 1316.914062 1651.550781 1316.101562 1652.367188 1315.28125 C 1566.140625 1314.449219 1629.515625 1315.945312 1480.652344 1314.925781 L 1482.367188 1316.640625 C 1481.753906 1301.597656 1481.152344 1286.550781 1480.542969 1271.503906 C 1480.449219 1269.269531 1476.972656 1269.265625 1477.066406 1271.503906 C 1477.691406 1286.550781 1478.308594 1301.597656 1478.933594 1316.640625 C 1479.042969 1319.308594 1478.988281 1318.351562 1566.511719 1318.859375 C 1586.132812 1318.976562 1577.148438 1319.957031 1652.375 1320.183594 C 1653.722656 1320.183594 1654.792969 1319.054688 1654.824219 1317.730469 C 1655.164062 1300.925781 1655.5 1284.109375 1655.839844 1267.300781 C 1655.863281 1266.09375 1654.773438 1264.992188 1653.558594 1265.019531 C 1646.140625 1265.222656 1465.527344 1269.101562 1478.773438 1271.644531 Z M 1478.765625 1271.652344 " fill-opacity="1" fill-rule="nonzero"/><path fill="#000000" d="M 958.164062 648.054688 C 977.652344 651.941406 980.328125 658.015625 987.421875 655.457031 C 1003.488281 649.679688 999.476562 615.019531 1013.175781 612.359375 C 1021.335938 610.777344 1030.210938 621.164062 1043.160156 616.300781 C 1044.921875 615.636719 1047.496094 614.269531 1062.109375 590.777344 C 1069.773438 578.453125 1071.769531 574.488281 1074.367188 574.851562 C 1079.898438 575.617188 1081.824219 595.144531 1082.109375 598.042969 C 1083.539062 612.570312 1080.230469 616.355469 1083.675781 621.363281 C 1088.5 628.371094 1099.890625 628.09375 1113.910156 627.753906 C 1132.65625 627.296875 1146.355469 626.964844 1150.683594 618.867188 C 1155.367188 610.113281 1143.203125 603.289062 1142.144531 579.980469 C 1141.558594 567.105469 1145.097656 565.34375 1142.4375 555.285156 C 1136.742188 533.777344 1111.890625 508.585938 1092.925781 500.199219 C 1060.804688 485.988281 1044.953125 506.953125 1025.363281 504.226562 C 1006.484375 501.589844 1001.097656 482.289062 968.464844 498.957031 C 953.09375 506.808594 939.996094 495.539062 928.644531 498.664062 C 894.851562 507.960938 890.792969 640.789062 921.449219 650.566406 C 932.121094 653.964844 941.609375 644.746094 958.179688 648.054688 Z M 958.164062 648.054688 " fill-opacity="1" fill-rule="nonzero"/><path fill="#010101" d="M 957.785156 649.421875 C 966.253906 651.980469 978.828125 661.207031 988.511719 658.0625 C 999.273438 654.570312 1001.710938 640.398438 1004.613281 631.285156 C 1012.992188 605.082031 1027.417969 626.851562 1043.957031 619.230469 C 1058.515625 612.523438 1065.972656 573.027344 1077.582031 583.960938 C 1081.242188 587.40625 1080.214844 600.542969 1080.121094 605.566406 C 1079.921875 616.132812 1077.84375 623.71875 1089 628.828125 C 1102.269531 634.894531 1152.167969 637.492188 1155.289062 616.007812 C 1155.832031 612.289062 1153.921875 609.160156 1152.933594 605.761719 C 1149.601562 594.292969 1145.832031 585.769531 1145.984375 573.453125 C 1146.203125 556.574219 1144.757812 546.0625 1134.625 531.359375 C 1126.210938 519.140625 1114.726562 507.796875 1101.882812 500.222656 C 1081.589844 488.253906 1065.539062 491.917969 1043.957031 496.566406 C 1019.914062 501.746094 1004.59375 483.710938 981.839844 488.617188 C 973.21875 490.480469 964.710938 496.597656 955.8125 496.960938 C 940.511719 497.589844 913.9375 474.808594 900.613281 538.832031 C 894.601562 567.726562 893.195312 601.171875 901.898438 629.6875 C 914.515625 671.058594 937.011719 650.042969 958.15625 652.296875 C 963.582031 652.878906 963.527344 644.40625 958.15625 643.820312 C 947.691406 642.675781 926.449219 649.964844 918.796875 644.011719 C 901.851562 630.828125 899.71875 551.875 916.664062 517.851562 C 923.511719 504.101562 930.871094 502.71875 945.785156 505.183594 C 957.160156 507.0625 963.921875 505.472656 974.539062 501.613281 C 994.351562 494.414062 1007.21875 506.777344 1025.339844 508.949219 C 1043.554688 511.136719 1059.390625 498.453125 1078.191406 500.855469 C 1099.265625 503.554688 1119.566406 521.597656 1130.601562 539.464844 C 1141.496094 557.109375 1136.210938 568.839844 1139.101562 587.183594 C 1140.832031 598.203125 1153.125 614.433594 1139.316406 622.175781 C 1124.84375 630.289062 1089.765625 624.324219 1084.765625 611.09375 C 1081.328125 602.003906 1085.253906 590.289062 1081.027344 580.769531 C 1077.117188 571.960938 1074.644531 571.101562 1067.90625 577.015625 C 1058.027344 585.675781 1054.898438 606.796875 1042.851562 612.957031 C 1030.980469 619.03125 1020.292969 604.78125 1009.152344 610.816406 C 1003.269531 614 1001.523438 621.773438 999.609375 627.570312 C 996.386719 637.320312 996.476562 644.492188 986.53125 649.199219 C 977.050781 653.679688 968.734375 648.527344 958.519531 646.703125 C 956.757812 646.386719 956 648.890625 957.769531 649.429688 Z M 957.785156 649.421875 " fill-opacity="1" fill-rule="nonzero"/><path fill="#010101" d="M 992.816406 761.367188 C 992.816406 765.058594 998.972656 773.019531 1000.929688 775.46875 C 1017.804688 796.589844 1037.683594 797.726562 1042.945312 793.746094 C 1044.210938 792.789062 1044.496094 791.597656 1044.945312 790.492188 C 1045.269531 789.6875 1044.84375 788.761719 1044.328125 788.167969 C 1039.003906 782.015625 1035.933594 789.09375 1017.730469 778.230469 C 1007.699219 772.238281 998.8125 760.972656 994.46875 760.113281 C 993.648438 759.953125 992.824219 760.476562 992.816406 761.375 Z M 992.816406 761.367188 " fill-opacity="1" fill-rule="nonzero"/><path fill="#010101" d="M 1071.824219 642.566406 C 1063.375 648.023438 1057.882812 664.847656 1056.296875 675.28125 C 1052.671875 699.113281 1060.640625 708.246094 1052.347656 712.289062 C 1047.195312 714.800781 1051.746094 722.773438 1056.878906 720.039062 C 1062.550781 717.007812 1064.914062 710.734375 1064.8125 704.558594 C 1064.589844 691.316406 1060.679688 686.453125 1066.808594 663.371094 C 1069.488281 653.269531 1075.789062 640.011719 1071.824219 642.574219 Z M 1071.824219 642.566406 " fill-opacity="1" fill-rule="nonzero"/><path fill="#010101" d="M 946.464844 666.214844 C 948.628906 666.402344 950.9375 667.035156 952.941406 667.847656 C 951.964844 667.453125 955.929688 669.003906 958.992188 671.324219 C 958.0625 670.621094 960.304688 672.234375 962.226562 674.453125 C 962.769531 675.070312 963.125 675.550781 962.886719 675.234375 C 962.574219 674.832031 963.21875 675.695312 963.195312 675.660156 C 963.820312 676.539062 964.261719 677.375 965.066406 678 C 965.265625 678.15625 966.878906 679.089844 965.984375 678.472656 C 967.808594 679.730469 969.359375 679.304688 970.09375 678.238281 C 971.0625 676.832031 970.683594 675.007812 970.667969 676.152344 C 970.691406 674.414062 971.144531 674.304688 969.246094 671.75 C 963.726562 664.320312 955.804688 659.949219 946.480469 659.980469 C 942.546875 659.996094 942.113281 665.851562 946.480469 666.214844 Z M 946.464844 666.214844 " fill-opacity="1" fill-rule="nonzero"/><path fill="#010101" d="M 1047.773438 653.117188 C 1046.675781 647.9375 1046.207031 647.257812 1042.984375 643.78125 C 1033.648438 633.71875 1018.425781 631.222656 1012.929688 633.945312 C 1011.042969 634.871094 1011.664062 637.699219 1013.496094 638.242188 C 1015.984375 638.976562 1027.691406 637.621094 1039.164062 647.605469 C 1040.378906 648.65625 1041.390625 649.957031 1042.628906 650.96875 C 1043.863281 651.980469 1045.15625 652.855469 1046.328125 653.964844 C 1046.976562 654.585938 1047.960938 653.964844 1047.78125 653.125 Z M 1047.773438 653.117188 " fill-opacity="1" fill-rule="nonzero"/><path fill="#010101" d="M 1037.0625 657.5 C 1038.664062 656.980469 1040.132812 655.511719 1040.648438 653.914062 C 1041.546875 652.210938 1041.183594 650.921875 1040.988281 649.492188 C 1040.664062 648.339844 1040.085938 647.34375 1039.242188 646.5 C 1038.785156 646.144531 1038.332031 645.789062 1037.867188 645.441406 C 1036.058594 644.398438 1033.640625 644.152344 1031.832031 645.101562 C 1030.230469 645.621094 1028.765625 647.089844 1028.246094 648.6875 C 1027.351562 650.390625 1027.714844 651.679688 1027.90625 653.109375 C 1028.230469 654.261719 1028.808594 655.257812 1029.652344 656.097656 C 1030.109375 656.453125 1030.566406 656.808594 1031.027344 657.160156 C 1032.789062 658.179688 1035.222656 658.472656 1037.0625 657.5 Z M 1037.0625 657.5 " fill-opacity="1" fill-rule="nonzero"/><path fill="#010101" d="M 1051.445312 727.78125 C 1050.609375 729.1875 1050.578125 729.804688 1048.074219 728.585938 C 1041.554688 725.425781 1034.769531 720.132812 1028.460938 719.414062 C 1020.625 718.515625 1015.984375 726.152344 1021.753906 737.023438 C 1028.710938 750.121094 1038.097656 746.265625 1030.804688 740.648438 C 1022.148438 733.980469 1021.269531 721.152344 1029.089844 723.695312 C 1032.257812 724.722656 1032.109375 725.59375 1044.195312 732.703125 C 1051.367188 736.921875 1056.960938 731.769531 1054.953125 727.78125 C 1054.25 726.390625 1052.195312 726.539062 1051.453125 727.78125 Z M 1051.445312 727.78125 " fill-opacity="1" fill-rule="nonzero"/><path fill="#010101" d="M 1104.355469 665.296875 C 1101.84375 661.847656 1087.03125 658.78125 1076.066406 667.960938 C 1075.269531 668.632812 1075.191406 669.992188 1075.695312 670.84375 C 1077.324219 673.632812 1080.816406 669.824219 1088.769531 673.246094 C 1095.007812 675.929688 1095.71875 679.636719 1098.238281 679.816406 C 1099.085938 679.878906 1100.066406 679.136719 1100.238281 678.292969 C 1100.972656 674.691406 1090.292969 665.085938 1077.109375 667.351562 C 1077.882812 668.679688 1078.65625 670 1079.425781 671.332031 C 1089.976562 662.535156 1101.660156 667.929688 1102.910156 667.808594 C 1104.023438 667.691406 1105.175781 666.429688 1104.347656 665.304688 Z M 1104.355469 665.296875 " fill-opacity="1" fill-rule="nonzero"/><path fill="#010101" d="M 299.832031 280.625 C 300.203125 280.625 300.203125 280.046875 299.832031 280.046875 C 299.460938 280.046875 299.460938 280.625 299.832031 280.625 Z M 299.832031 280.625 " fill-opacity="1" fill-rule="nonzero"/><path fill="#ffffff" d="M 1503.339844 1026.085938 C 1440.960938 1118.664062 1451.046875 1114.460938 1438.332031 1123.433594 C 1430.089844 1129.253906 1426.78125 1128.78125 1348.453125 1140.96875 C 1344.867188 1145.441406 1346.828125 1151.578125 1352.039062 1153.535156 C 1426.308594 1135.109375 1432.59375 1141.816406 1449.46875 1128.316406 C 1464.609375 1116.207031 1454.871094 1118.039062 1511.300781 1032.339844 C 1514.824219 1026.730469 1507.875 1021.753906 1503.339844 1026.085938 Z M 1503.339844 1026.085938 " fill-opacity="1" fill-rule="nonzero"/><path fill="#010101" d="M 1501.769531 1025.175781 C 1442.183594 1111.417969 1452.660156 1107.382812 1442.265625 1118.132812 C 1432.96875 1127.753906 1422.925781 1127.546875 1380.652344 1133.582031 C 1352.515625 1137.589844 1353.144531 1136.261719 1348.058594 1138.109375 C 1343.136719 1139.902344 1342.703125 1147.359375 1345.007812 1151.378906 C 1349.589844 1159.359375 1357.394531 1155.332031 1364.503906 1153.65625 C 1423.945312 1139.609375 1436.363281 1143.308594 1452.46875 1129.894531 C 1465.148438 1119.332031 1461.910156 1114.878906 1499.515625 1056.371094 C 1513.476562 1034.648438 1514.992188 1034.269531 1515.363281 1029.867188 C 1516.019531 1022.054688 1507.257812 1019.078125 1501.578125 1023.082031 C 1497.914062 1025.664062 1501.546875 1031.753906 1505.085938 1029.085938 C 1505.851562 1028.683594 1506.625 1028.28125 1507.386719 1027.886719 C 1508.941406 1029.632812 1508.886719 1031.210938 1507.21875 1032.609375 C 1506.59375 1034.300781 1482.605469 1068.960938 1465.589844 1099.917969 C 1459.753906 1110.527344 1454.964844 1121.09375 1444.445312 1128.085938 C 1433.480469 1135.371094 1420.335938 1136.113281 1407.746094 1138.308594 C 1374.394531 1144.128906 1354.6875 1150.21875 1353.398438 1150.039062 C 1351.273438 1149.746094 1348.183594 1147.746094 1349.890625 1144.453125 C 1350.878906 1142.535156 1351.203125 1143.125 1353.707031 1142.945312 C 1363.414062 1142.265625 1373.429688 1139.5625 1383.035156 1137.945312 C 1431.8125 1129.722656 1439.035156 1132.273438 1454.675781 1104.742188 C 1459.785156 1095.746094 1501.730469 1031.789062 1504.882812 1026.992188 C 1506.175781 1025.027344 1503.070312 1023.265625 1501.753906 1025.160156 Z M 1501.769531 1025.175781 " fill-opacity="1" fill-rule="nonzero"/><path fill="#ffffff" d="M 1248.503906 1154.492188 C 1255.210938 1136.585938 1297.480469 1131.441406 1365.144531 1123.1875 C 1370.335938 1122.554688 1382 1121.554688 1391.90625 1127.390625 C 1403.164062 1134.011719 1404.957031 1146.910156 1397.222656 1154.257812 C 1384.078125 1166.738281 1268.183594 1187.210938 1255.671875 1181.136719 C 1250.433594 1178.59375 1248.625 1173.167969 1247.929688 1171.082031 C 1247.929688 1171.082031 1245.273438 1163.117188 1248.5 1154.492188 Z M 1248.503906 1154.492188 " fill-opacity="1" fill-rule="nonzero"/><path fill="#010101" d="M 1249.128906 1154.855469 C 1254.035156 1144.175781 1268.308594 1140.480469 1278.632812 1137.816406 C 1299.242188 1132.492188 1320.664062 1130.148438 1341.746094 1127.589844 C 1358.800781 1125.519531 1382.050781 1119.746094 1394.671875 1131.578125 C 1400.683594 1137.210938 1402.445312 1146.878906 1395.945312 1152.96875 C 1391.0625 1157.535156 1383.320312 1158.882812 1377.082031 1160.636719 C 1332.261719 1173.246094 1310.847656 1176.390625 1266.253906 1180.117188 C 1258.765625 1180.742188 1252.714844 1178.972656 1250 1171.300781 C 1248.140625 1166.027344 1248.417969 1160.171875 1249.910156 1154.878906 C 1250.417969 1153.0625 1247.746094 1152.382812 1247.109375 1154.105469 C 1242.058594 1167.976562 1246.46875 1185.679688 1265.363281 1184.1875 C 1288.792969 1182.34375 1309.273438 1180.679688 1341.652344 1173.757812 C 1357.847656 1170.289062 1374.980469 1166.941406 1390.320312 1160.558594 C 1400.808594 1156.191406 1407.375 1145.371094 1401.378906 1134.53125 C 1389.503906 1113.0625 1353.082031 1122.929688 1327.664062 1126.433594 C 1314.511719 1128.25 1301.335938 1130.171875 1288.339844 1132.9375 C 1275.339844 1135.707031 1252.851562 1139.554688 1247.804688 1154.296875 C 1247.542969 1155.0625 1248.789062 1155.605469 1249.128906 1154.855469 Z M 1249.128906 1154.855469 " fill-opacity="1" fill-rule="nonzero"/><path fill="#8650e1" d="M 1834.851562 772.578125 L 1841.90625 966.753906 C 1842.078125 971.390625 1845.730469 975.140625 1850.359375 975.425781 C 1860.328125 976.035156 1870.296875 976.644531 1880.273438 977.257812 C 1885.53125 977.582031 1889.941406 973.347656 1889.839844 968.082031 C 1888.582031 903.710938 1887.320312 839.339844 1886.0625 774.96875 C 1885.96875 770.363281 1882.421875 766.566406 1877.832031 766.164062 C 1866.765625 765.199219 1855.707031 764.242188 1844.640625 763.273438 C 1839.25 762.804688 1834.65625 767.171875 1834.851562 772.578125 Z M 1834.851562 772.578125 " fill-opacity="1" fill-rule="nonzero"/><path fill="#000000" d="M 1412.398438 778.902344 C 1413.480469 826.757812 1414.570312 874.625 1415.652344 922.480469 C 1415.863281 931.695312 1423.402344 939.042969 1432.613281 939.011719 C 1520.277344 938.757812 1607.941406 938.492188 1695.605469 938.238281 C 1705.125 938.207031 1712.753906 930.332031 1712.460938 920.8125 C 1711.050781 874.40625 1709.644531 828.003906 1708.238281 781.597656 C 1707.960938 772.546875 1700.613281 765.324219 1691.5625 765.199219 C 1604.222656 764 1516.886719 762.804688 1429.546875 761.605469 C 1419.964844 761.476562 1412.191406 769.320312 1412.40625 778.902344 Z M 1412.398438 778.902344 " fill-opacity="1" fill-rule="nonzero"/><path fill="#010101" d="M 1411.238281 778.902344 C 1411.898438 812.863281 1413.511719 896.238281 1413.667969 903.957031 C 1413.960938 919.035156 1409.167969 940.71875 1437.230469 940.71875 C 1504.128906 940.71875 1671 941.019531 1687.53125 941.011719 C 1698.300781 941.003906 1708.867188 940.300781 1713.6875 928.980469 C 1715.960938 923.640625 1715.488281 928.765625 1712.769531 834.101562 C 1712.3125 818.117188 1711.695312 802.144531 1711.015625 786.171875 C 1710.566406 775.578125 1707.003906 765.484375 1695.402344 762.898438 C 1689.089844 761.484375 1432.3125 758.578125 1431.84375 758.578125 C 1419.554688 758.523438 1409.648438 765.972656 1409.363281 778.917969 C 1409.277344 782.835938 1415.351562 782.835938 1415.453125 778.917969 C 1415.875 761.328125 1435.898438 764.78125 1447.9375 764.960938 C 1673.867188 768.28125 1688.417969 767.835938 1691.570312 767.988281 C 1698.117188 768.3125 1704.050781 772.519531 1705.402344 779.179688 C 1706.726562 785.695312 1705.875 793.226562 1705.992188 799.867188 C 1708.1875 918.902344 1712.289062 921.917969 1707.15625 929.414062 C 1699.335938 940.84375 1695.738281 932.542969 1464.910156 936.886719 C 1410.273438 937.914062 1417.777344 941.523438 1416.203125 880.804688 C 1415.320312 846.84375 1414.441406 812.871094 1413.558594 778.910156 C 1413.519531 777.417969 1411.210938 777.410156 1411.238281 778.910156 Z M 1411.238281 778.902344 " fill-opacity="1" fill-rule="nonzero"/><path fill="#feffff" d="M 1197.003906 1132.398438 C 1197.003906 1132.398438 1238.902344 1110.9375 1305.363281 1107.808594 C 1310.394531 1107.570312 1312.734375 1108.757812 1315.0625 1111.039062 C 1319.90625 1115.808594 1316.335938 1124.671875 1310.394531 1127.976562 C 1304.449219 1131.277344 1297.273438 1131.070312 1290.5625 1132.167969 C 1270.015625 1135.519531 1268.78125 1153.78125 1289.675781 1162.628906 C 1308.011719 1170.394531 1329.164062 1171.316406 1348.105469 1165.171875 C 1360.617188 1161.121094 1363.636719 1168.363281 1356.472656 1175.726562 C 1330.671875 1202.265625 1295.851562 1221.296875 1258.871094 1222.914062 C 1217.816406 1224.699219 1213.117188 1190.046875 1165.089844 1174.507812 C 1135.5625 1164.957031 1169.386719 1146.546875 1197.011719 1132.40625 Z M 1197.003906 1132.398438 " fill-opacity="1" fill-rule="nonzero"/><path fill="#010101" d="M 1305.464844 1126.5625 C 1302.820312 1125.699219 1301.777344 1126.316406 1288.679688 1129.332031 C 1282.835938 1130.675781 1277.039062 1132.167969 1271.246094 1133.695312 C 1264.492188 1135.480469 1252.066406 1138.949219 1253.648438 1148.125 C 1254.273438 1151.765625 1259.011719 1145.78125 1264.328125 1143.101562 C 1269.453125 1140.511719 1273.523438 1140.34375 1291.792969 1135.011719 C 1303.761719 1131.515625 1304.449219 1131.640625 1306.273438 1129.664062 C 1307.242188 1128.613281 1306.808594 1127.011719 1305.457031 1126.570312 Z M 1305.464844 1126.5625 " fill-opacity="1" fill-rule="nonzero"/><path fill="#010101" d="M 1269.921875 1148.773438 C 1286.691406 1178.492188 1334.078125 1174.636719 1352.863281 1163.726562 C 1354.226562 1162.9375 1353.558594 1160.984375 1352.101562 1160.890625 C 1337.199219 1159.984375 1324.992188 1166.71875 1305.742188 1164.207031 C 1293.53125 1162.613281 1280.933594 1156.871094 1273.800781 1146.507812 C 1272.179688 1144.152344 1268.484375 1146.222656 1269.921875 1148.773438 Z M 1269.921875 1148.773438 " fill-opacity="1" fill-rule="nonzero"/><path fill="#010101" d="M 1270.007812 1177.417969 C 1290.679688 1196.175781 1344.449219 1197.039062 1352.828125 1186.304688 C 1353.546875 1185.386719 1353.375 1184.011719 1352.125 1183.640625 C 1346.109375 1181.894531 1334.921875 1188.460938 1311.761719 1186.390625 C 1290.15625 1184.460938 1281.421875 1178.277344 1271.492188 1174.871094 C 1270.0625 1174.375 1268.902344 1176.40625 1270.007812 1177.410156 Z M 1270.007812 1177.417969 " fill-opacity="1" fill-rule="nonzero"/><path fill="#010101" d="M 1256.367188 1187.132812 C 1256.367188 1192.0625 1281.628906 1210.65625 1312.085938 1208.980469 C 1333.066406 1207.820312 1335.539062 1201.152344 1331.769531 1200.324219 C 1324.613281 1198.757812 1298.074219 1210.789062 1263.417969 1190.171875 C 1261.367188 1188.949219 1259.050781 1186.523438 1256.53125 1186.925781 C 1256.4375 1186.941406 1256.367188 1187.046875 1256.367188 1187.132812 Z M 1256.367188 1187.132812 " fill-opacity="1" fill-rule="nonzero"/><path fill="#010101" d="M 1240.101562 1198.792969 C 1254.34375 1211.785156 1270.410156 1220.039062 1289.535156 1223.59375 C 1295.886719 1224.773438 1301.636719 1225.371094 1307.828125 1223.191406 C 1309.148438 1222.726562 1309.109375 1221.019531 1307.828125 1220.53125 C 1297.394531 1216.605469 1270.679688 1217.550781 1242.96875 1195.921875 C 1240.96875 1194.359375 1238.125 1196.988281 1240.101562 1198.785156 Z M 1240.101562 1198.792969 " fill-opacity="1" fill-rule="nonzero"/><path fill="#feffff" d="M 798.871094 1255.6875 C 806.058594 1244.582031 792.34375 1230.578125 782.195312 1227.710938 C 774.953125 1225.664062 768.503906 1228.308594 761.484375 1229.867188 C 730.8125 1236.691406 759.863281 1190.339844 734.4375 1186.160156 C 726.988281 1184.9375 719.316406 1190.21875 712.984375 1193.308594 C 704.507812 1197.457031 693.085938 1201.035156 686.472656 1207.90625 C 684.839844 1209.597656 686.550781 1211.832031 688.589844 1211.539062 C 695.984375 1210.488281 699.765625 1207.140625 721.6875 1195.5625 C 725.441406 1193.585938 730.28125 1190.355469 734.699219 1191.675781 C 752.488281 1197.015625 722.675781 1245.300781 768.757812 1232.988281 C 796.390625 1225.601562 797.15625 1258.34375 798.871094 1255.6875 Z M 798.871094 1255.6875 " fill-opacity="1" fill-rule="nonzero"/><path fill="#feffff" d="M 803.695312 910.371094 C 802.953125 951.375 816.035156 1064.425781 753.085938 1201.800781 C 751.5 1205.253906 756.632812 1208.277344 758.214844 1204.800781 C 832.464844 1042.046875 803.855469 901.5625 803.703125 910.371094 Z M 803.695312 910.371094 " fill-opacity="1" fill-rule="nonzero"/><path fill="#feffff" d="M 759.707031 1428.484375 C 764.660156 1442.070312 755.726562 1451.769531 745.734375 1449.753906 C 731.742188 1446.925781 736.972656 1433.015625 726.054688 1429.636719 C 721.222656 1428.144531 716.054688 1430.03125 712.351562 1433.222656 C 707.902344 1437.046875 706.164062 1442.6875 704.324219 1448.058594 C 698.519531 1465.046875 688.171875 1463.609375 678.019531 1467.140625 C 672.019531 1469.226562 686.960938 1479.386719 703.023438 1464.789062 C 713.542969 1455.230469 710.960938 1442.742188 718.953125 1438.113281 C 728.078125 1432.820312 724.941406 1447.695312 736.441406 1454.652344 C 743.75 1459.078125 754.273438 1458.375 760.265625 1452.015625 C 766.097656 1445.8125 767.921875 1433.949219 761.40625 1427.503906 C 760.726562 1426.832031 759.351562 1427.503906 759.714844 1428.492188 Z M 759.707031 1428.484375 " fill-opacity="1" fill-rule="nonzero"/><path fill="#feffff" d="M 710.496094 1276.441406 C 701.90625 1285.570312 684.109375 1353.660156 705.566406 1423.910156 C 707.199219 1429.234375 708.3125 1437.1875 713.386719 1440.277344 C 714.492188 1440.949219 715.898438 1440.292969 716.261719 1439.113281 C 717.925781 1433.695312 714 1427.21875 712.414062 1422.027344 C 686.664062 1337.738281 717.160156 1269.363281 710.496094 1276.441406 Z M 710.496094 1276.441406 " fill-opacity="1" fill-rule="nonzero"/><path fill="#feffff" d="M 1170.484375 941.933594 C 1155.613281 984.898438 1156.324219 1035.167969 1167.492188 1078.835938 C 1171.023438 1092.648438 1174.886719 1109.269531 1184.300781 1120.375 C 1185.984375 1122.367188 1188.449219 1120.117188 1188.171875 1118.117188 C 1185.398438 1097.816406 1153.074219 1047.957031 1175.644531 943.355469 C 1176.378906 939.96875 1171.601562 938.671875 1170.476562 941.933594 Z M 1170.484375 941.933594 " fill-opacity="1" fill-rule="nonzero"/><path fill="#feffff" d="M 1519.785156 1188.949219 C 1518.773438 1189.089844 1508.871094 1188.800781 1505.488281 1188.378906 C 1488.269531 1186.191406 1478.371094 1177.21875 1468.054688 1169.945312 C 1465.953125 1168.464844 1463.796875 1171.269531 1464.785156 1173.214844 C 1473.207031 1189.875 1502.109375 1199.234375 1516.941406 1195.378906 C 1518.363281 1195.007812 1519.90625 1194.921875 1521.359375 1194.675781 C 1525.171875 1194.027344 1523.484375 1188.445312 1519.785156 1188.949219 Z M 1519.785156 1188.949219 " fill-opacity="1" fill-rule="nonzero"/><path fill="#feffff" d="M 973.078125 1421.035156 C 990.148438 1415.179688 1012.582031 1401.121094 1019.605469 1386.0625 C 1020.441406 1384.277344 1018.417969 1382.628906 1016.878906 1383.949219 C 1005.875 1393.449219 997.074219 1406.957031 971.695312 1416.003906 C 968.566406 1417.125 969.886719 1422.132812 973.078125 1421.035156 Z M 973.078125 1421.035156 " fill-opacity="1" fill-rule="nonzero"/><path fill="#feffff" d="M 943.355469 1483.933594 C 1047.417969 1487.554688 1138.097656 1412.667969 1160.613281 1345.464844 C 1161.324219 1343.339844 1158.125 1342.058594 1157.035156 1343.960938 C 1148.621094 1358.648438 1140.199219 1373.464844 1129.921875 1386.949219 C 1085.054688 1445.835938 1013.703125 1480.167969 943.355469 1480.742188 C 941.300781 1480.757812 941.308594 1483.855469 943.355469 1483.925781 Z M 943.355469 1483.933594 " fill-opacity="1" fill-rule="nonzero"/><path fill="#010101" d="M 1070.054688 1694.375 C 1065.023438 1697.007812 1066.699219 1700.726562 1053.050781 1721.027344 C 1038.046875 1743.34375 1012.992188 1768.652344 982.390625 1787.46875 C 976.878906 1790.855469 958.371094 1797.570312 963.710938 1806.804688 C 969.34375 1816.550781 984.964844 1803.765625 990.683594 1799.980469 C 1025.015625 1777.253906 1051.34375 1745.679688 1069.027344 1710.902344 C 1071.25 1706.53125 1075.285156 1701.082031 1074.203125 1696.058594 C 1073.800781 1694.195312 1071.574219 1693.570312 1070.054688 1694.367188 Z M 1070.054688 1694.375 " fill-opacity="1" fill-rule="nonzero"/><path fill="#010101" d="M 815.972656 1642.8125 C 804.746094 1666.761719 792.898438 1686.769531 764.769531 1694.984375 C 747.691406 1699.96875 719.007812 1692.765625 713.347656 1732.820312 C 711.632812 1744.953125 694.484375 2157.023438 694.113281 2218.855469 C 694.089844 2222.625 699.632812 2222.53125 699.910156 2218.855469 C 705.730469 2141.128906 720.035156 1747.886719 720.058594 1747.191406 C 722.183594 1684.480469 752.296875 1720.082031 792.582031 1687.371094 C 821.359375 1664.003906 818.808594 1636.777344 815.972656 1642.820312 Z M 815.972656 1642.8125 " fill-opacity="1" fill-rule="nonzero"/><path fill="#010101" d="M 1006.460938 1822.585938 C 1012.660156 1843.472656 1019.929688 1851.378906 1028.863281 1896.285156 C 1049.289062 1998.96875 1029.527344 2076.941406 1055.175781 2227.648438 C 1055.851562 2231.597656 1061.847656 2229.921875 1061.183594 2225.996094 C 1039.296875 2096.59375 1051.476562 1993.613281 1034.824219 1903.046875 C 1030.867188 1881.546875 1020.542969 1840.011719 1008.703125 1821.632812 C 1007.96875 1820.5 1006.035156 1821.195312 1006.453125 1822.585938 Z M 1006.460938 1822.585938 " fill-opacity="1" fill-rule="nonzero"/><path fill="#feffff" d="M 1666.648438 790.53125 C 1677.917969 828.320312 1682.5625 862.910156 1682.714844 880.117188 C 1682.816406 890.929688 1678.734375 898.828125 1668.25 902.042969 C 1665.296875 902.945312 1664.863281 907.800781 1668.25 908.472656 C 1676.757812 910.15625 1684.324219 903.179688 1687.089844 895.535156 C 1690.890625 884.996094 1688.25 872.074219 1686.855469 861.300781 C 1683.6875 836.84375 1678.109375 812.863281 1669.726562 789.6875 C 1669.039062 787.789062 1666.054688 788.546875 1666.648438 790.539062 Z M 1666.648438 790.53125 " fill-opacity="1" fill-rule="nonzero"/><path fill="#feffff" d="M 1617.949219 911.066406 C 1622.113281 914.675781 1627.855469 914.636719 1630.636719 912.953125 C 1634.972656 910.339844 1634.222656 907.574219 1632.058594 907.992188 C 1631.289062 908.140625 1630.265625 908.648438 1630.644531 908.503906 C 1630.476562 908.5625 1628.761719 909.105469 1628.605469 909.035156 C 1628.691406 909.019531 1628.777344 909.011719 1628.859375 908.996094 C 1627.664062 909.160156 1628.257812 909.097656 1627.460938 909.257812 C 1626.417969 909.476562 1627.097656 909.351562 1627.105469 909.335938 C 1627.074219 909.453125 1625.160156 909.375 1625.042969 909.359375 C 1624.558594 909.320312 1624.972656 909.4375 1625.035156 909.367188 C 1624.890625 909.523438 1623.242188 908.933594 1623.042969 908.859375 C 1622.925781 908.8125 1622.546875 908.625 1623.019531 908.859375 C 1622.152344 908.433594 1622.113281 908.425781 1621.328125 907.867188 C 1622.160156 908.457031 1619.609375 905.976562 1617.957031 907.777344 C 1617.160156 908.648438 1616.976562 910.210938 1617.957031 911.050781 Z M 1617.949219 911.066406 " fill-opacity="1" fill-rule="nonzero"/><path fill="#010101" d="M 1882.886719 774.015625 C 1879.570312 778.34375 1878.527344 774.597656 1882.390625 937.851562 C 1882.546875 944.46875 1881.03125 953.113281 1885.800781 958.347656 C 1886.84375 959.488281 1889.078125 959.558594 1890.105469 958.347656 C 1894.726562 952.875 1892.933594 944.558594 1892.855469 937.851562 C 1892.492188 908.316406 1890.273438 803.847656 1889.839844 793.414062 C 1889.570312 786.890625 1890.605469 778.902344 1886.195312 773.585938 C 1885.234375 772.425781 1883.636719 773.042969 1882.894531 774.007812 Z M 1882.886719 774.015625 " fill-opacity="1" fill-rule="nonzero"/><path fill="#010101" d="M 1102.140625 118.652344 C 1175.582031 5.386719 1174.222656 9.40625 1173.613281 4.097656 C 1173.394531 2.242188 1171.828125 0.496094 1169.765625 1.160156 C 1164.09375 2.992188 1167.367188 -0.03125 1095.015625 114.488281 C 1092.164062 119 1099.265625 123.09375 1102.148438 118.652344 Z M 1102.140625 118.652344 " fill-opacity="1" fill-rule="nonzero"/><path fill="#010101" d="M 1233.773438 168.566406 C 1283.347656 128.003906 1284.390625 127.878906 1287.96875 121.449219 C 1289.171875 119.285156 1287.15625 116.257812 1284.613281 117.082031 C 1276.980469 119.554688 1275.464844 121.757812 1227.011719 161.804688 C 1222.914062 165.1875 1228.09375 173.210938 1233.773438 168.566406 Z M 1233.773438 168.566406 " fill-opacity="1" fill-rule="nonzero"/><path fill="#010101" d="M 1262.667969 270.222656 C 1343.589844 264.804688 1345.632812 265.609375 1355.515625 260.839844 C 1357.476562 259.890625 1356.757812 257.054688 1354.945312 256.476562 C 1344.765625 253.183594 1343.390625 254.242188 1262.667969 259.9375 C 1256.105469 260.402344 1256.042969 270.671875 1262.667969 270.222656 Z M 1262.667969 270.222656 " fill-opacity="1" fill-rule="nonzero"/><path fill="#010101" d="M 1192.699219 540.214844 C 1215.757812 478.082031 1217.328125 476.800781 1219.128906 465.269531 C 1219.453125 463.167969 1216.796875 461.761719 1215.550781 463.765625 C 1209.398438 473.640625 1209.738281 475.625 1186.410156 538.476562 C 1184.949219 542.417969 1191.246094 544.117188 1192.699219 540.207031 Z M 1192.699219 540.214844 " fill-opacity="1" fill-rule="nonzero"/><path fill="#010101" d="M 1222.605469 554.9375 C 1247.296875 527.5625 1252.027344 523.269531 1255.9375 515 C 1256.832031 513.097656 1254.917969 510.648438 1252.859375 511.921875 C 1244.847656 516.921875 1241.03125 522.292969 1217.171875 549.503906 C 1213.9375 553.195312 1219.277344 558.621094 1222.605469 554.9375 Z M 1222.605469 554.9375 " fill-opacity="1" fill-rule="nonzero"/><path fill="#010101" d="M 1939.832031 673.828125 C 1952.1875 656.640625 1963.023438 639.769531 1973.214844 621.117188 C 1981.925781 605.179688 1994.476562 588.566406 1997.90625 570.625 C 1998.957031 565.136719 1992.574219 560.699219 1988.214844 564.980469 C 1974.421875 578.550781 1967.035156 599.796875 1958.140625 616.820312 C 1948.734375 634.824219 1941.277344 652.558594 1934.199219 671.453125 C 1932.894531 674.949219 1937.9375 676.453125 1939.824219 673.828125 Z M 1939.832031 673.828125 " fill-opacity="1" fill-rule="nonzero"/><path fill="#010101" d="M 1981.878906 718.476562 C 2039.402344 699.960938 2041.367188 700.820312 2048.5 694.359375 C 2051.929688 691.246094 2048.933594 686.398438 2045.046875 686.011719 C 2035.59375 685.0625 2034.652344 687.101562 1978.417969 705.90625 C 1970.511719 708.546875 1973.851562 721.066406 1981.886719 718.476562 Z M 1981.878906 718.476562 " fill-opacity="1" fill-rule="nonzero"/><path fill="#010101" d="M 2008.988281 798.761719 C 2032.324219 806.726562 2033.5625 808.121094 2037.6875 805.699219 C 2039.527344 804.625 2039.757812 802.546875 2038.988281 800.746094 C 2037.21875 796.636719 2035.160156 797.007812 2011.585938 789.332031 C 2005.570312 787.378906 2003.058594 796.742188 2008.988281 798.761719 Z M 2008.988281 798.761719 " fill-opacity="1" fill-rule="nonzero"/></svg>