<svg xmlns="http://www.w3.org/2000/svg" xmlns:xlink="http://www.w3.org/1999/xlink" width="2800" zoomAndPan="magnify" viewBox="0 0 2100 2250.000011" height="3000" preserveAspectRatio="xMidYMid meet" version="1.0"><path fill="#010101" d="M 86.511719 117.851562 C 202.019531 107.792969 259.042969 213.652344 219.402344 295.085938 C 217.679688 298.625 222.046875 302.527344 225.066406 299.457031 C 246.527344 277.648438 282.636719 272.128906 309.226562 287.808594 C 335.683594 303.40625 348.460938 337.390625 339.957031 366.640625 C 338.859375 370.414062 342.96875 372.882812 346.128906 371.386719 C 399.664062 346.027344 464.609375 347.933594 517.382812 374.421875 C 601.019531 416.394531 641.191406 518.855469 611.394531 607.558594 C 610.460938 610.347656 612.9375 613.234375 615.714844 613.234375 C 699.652344 613.179688 783.980469 684.71875 787.984375 782.078125 C 788.207031 787.503906 796.40625 787.550781 796.453125 782.078125 C 797.121094 691.4375 712.441406 604.089844 615.714844 604.265625 C 617.15625 606.160156 618.59375 608.050781 620.035156 609.941406 C 639.402344 552.046875 629.984375 486.066406 597.089844 434.863281 C 543.359375 351.226562 430.9375 321.804688 341.878906 364.132812 C 343.933594 365.714844 345.996094 367.300781 348.050781 368.882812 C 357.539062 336.097656 343.109375 298.003906 313.304688 280.816406 C 283.640625 263.699219 243.632812 269.925781 219.953125 294.367188 C 221.847656 295.824219 223.730469 297.28125 225.621094 298.742188 C 258.726562 229.367188 226.203125 142.53125 147.371094 118.363281 C 127.664062 112.324219 106.257812 110.316406 86.191406 115.578125 C 84.953125 115.902344 85.164062 117.992188 86.503906 117.875 Z M 86.511719 117.851562 " fill-opacity="1" fill-rule="nonzero"/><path fill="#010101" d="M 1402.988281 705.082031 C 1408.195312 607.902344 1500.421875 544.714844 1579.621094 561.824219 C 1583.21875 562.601562 1585.839844 558.390625 1583.226562 555.628906 C 1563.003906 534.230469 1556.277344 501.210938 1567.554688 473.8125 C 1578.679688 446.796875 1606.234375 428.085938 1635.242188 426.769531 C 1637.6875 426.660156 1639.703125 424.386719 1638.964844 421.878906 C 1621.832031 364.070312 1633.132812 299.839844 1666.828125 250.109375 C 1723.472656 166.53125 1838.195312 143.023438 1923.464844 187.644531 C 1926.8125 189.398438 1930.308594 185.886719 1928.5625 182.546875 C 1891.078125 110.519531 1944.144531 24.011719 2027.246094 27.148438 C 2032.03125 27.328125 2032.023438 19.886719 2027.246094 19.707031 C 1939.007812 16.382812 1881.882812 108.875 1922.125 186.316406 C 1923.824219 184.617188 1925.527344 182.914062 1927.222656 181.21875 C 1813.28125 121.507812 1660.773438 178.136719 1628.691406 319.277344 C 1620.851562 353.757812 1621.472656 389.984375 1631.515625 423.941406 C 1632.753906 422.316406 1633.996094 420.691406 1635.234375 419.054688 C 1603.316406 420.480469 1573.339844 440.609375 1560.863281 470.21875 C 1548.074219 500.582031 1555.429688 537.117188 1577.972656 560.875 C 1579.167969 558.8125 1580.375 556.742188 1581.574219 554.675781 C 1485.945312 534.230469 1392.269531 622.261719 1398.292969 705.082031 C 1398.511719 708.070312 1402.800781 708.101562 1402.964844 705.082031 Z M 1402.988281 705.082031 " fill-opacity="1" fill-rule="nonzero"/><path fill="#ffffff" d="M 72.289062 2219.984375 C 141.050781 2073.753906 209.8125 1927.523438 278.574219 1781.289062 C 333.253906 1800.042969 387.933594 1818.792969 442.613281 1837.542969 C 484.335938 1690.082031 526.046875 1542.621094 567.769531 1395.160156 C 739.054688 1371.457031 910.34375 1347.746094 1081.628906 1324.046875 C 1137.136719 1416.035156 1192.640625 1508.03125 1248.136719 1600.015625 C 1319.492188 1619.609375 1390.835938 1639.199219 1462.1875 1658.800781 C 1593.625 1853.09375 1725.050781 2047.390625 1856.488281 2241.6875 Z M 72.289062 2219.984375 " fill-opacity="1" fill-rule="nonzero"/><path fill="#010101" d="M 74.9375 2221.527344 C 129.203125 2107.917969 267.246094 1815.796875 282.449219 1783.554688 C 280.761719 1784.242188 279.070312 1784.933594 277.382812 1785.617188 C 332.046875 1804.421875 386.695312 1823.296875 441.34375 1842.160156 C 443.804688 1843.007812 446.558594 1841.179688 447.238281 1838.8125 C 479.953125 1723.996094 563.246094 1429.023438 572.453125 1396.449219 C 571.324219 1397.578125 570.195312 1398.707031 569.066406 1399.835938 C 702.222656 1381.375 1044.796875 1334 1082.929688 1328.722656 C 1081.101562 1327.976562 1079.273438 1327.238281 1077.449219 1326.492188 C 1119.527344 1396.246094 1225.027344 1571.140625 1235.699219 1588.832031 C 1239.855469 1595.71875 1242.207031 1603.347656 1250.246094 1605.660156 C 1284.960938 1615.636719 1453.230469 1661.195312 1455.773438 1662.191406 C 1463.800781 1665.328125 1469.085938 1677.851562 1473.824219 1684.859375 C 1479.796875 1693.691406 1592.074219 1859.8125 1594.300781 1862.964844 C 1606.289062 1879.996094 1619.378906 1896.183594 1631.46875 1913.128906 C 1665.855469 1961.34375 1640.210938 1931.964844 1852.460938 2244.039062 C 1855.816406 2248.972656 1863.894531 2244.332031 1860.527344 2239.320312 C 1654.929688 1933.726562 1678.25 1973.320312 1651.105469 1934.511719 C 1628.058594 1901.554688 1608.578125 1866.21875 1586.019531 1832.886719 C 1466.539062 1656.355469 1468.671875 1658.425781 1466.484375 1656.285156 C 1461.277344 1651.179688 1450.109375 1650.324219 1443.125 1648.40625 C 1374.453125 1629.5625 1253.304688 1596.53125 1252.839844 1596.242188 C 1249.421875 1594.09375 1251.890625 1596.777344 1085.824219 1321.601562 C 1084.585938 1319.554688 1082.539062 1319.066406 1080.34375 1319.367188 C 947.191406 1337.808594 604.617188 1385.21875 566.484375 1390.480469 C 564.863281 1390.707031 563.511719 1392.402344 563.097656 1393.867188 C 530.5625 1508.738281 447.167969 1803.667969 438.007812 1836.265625 C 439.96875 1835.152344 441.929688 1834.039062 443.898438 1832.917969 C 389.1875 1814.277344 334.46875 1795.652344 279.773438 1776.953125 C 278.042969 1776.363281 275.5 1777.3125 274.703125 1779.015625 C 157.933594 2028 173.207031 1994.695312 69.652344 2218.429688 C 68.007812 2221.96875 73.238281 2225.097656 74.945312 2221.519531 Z M 74.9375 2221.527344 " fill-opacity="1" fill-rule="nonzero"/><path fill="#ffffff" d="M 1175.207031 1477.238281 C 1155.285156 1609.25 1130.480469 1641.902344 1151.714844 1662.488281 C 1160.539062 1671.042969 1155.824219 1668.109375 1362.785156 1690.578125 C 1366.730469 1691.007812 1375.765625 1694.898438 1382.695312 1690.492188 C 1393.753906 1683.457031 1392.8125 1662.503906 1390.476562 1651.894531 C 1387.847656 1639.953125 1382.789062 1632.09375 1371.300781 1628.464844 C 1370.699219 1628.277344 1290.816406 1586.527344 1287.203125 1582.558594 C 1272.507812 1566.453125 1271.269531 1545.53125 1271.09375 1541.554688 C 1269.777344 1512.707031 1288.933594 1501.335938 1282.144531 1488.921875 C 1276.96875 1479.441406 1258.910156 1478.535156 1223.003906 1477.128906 C 1203.476562 1476.355469 1187.082031 1476.707031 1175.207031 1477.230469 Z M 1175.207031 1477.238281 " fill-opacity="1" fill-rule="nonzero"/><path fill="#010101" d="M 1174.148438 1476.949219 C 1164.734375 1510.207031 1160.355469 1544.90625 1152.367188 1578.574219 C 1144.652344 1611.101562 1134.644531 1637.710938 1143.640625 1657.695312 C 1150.367188 1672.621094 1165.625 1673.65625 1179.898438 1675.269531 C 1182.257812 1675.535156 1362.597656 1695.648438 1366.316406 1696.457031 C 1408.699219 1705.609375 1401.1875 1639.738281 1377.371094 1627.382812 C 1374.53125 1625.914062 1373.976562 1626.300781 1369.890625 1624.121094 C 1332.675781 1604.320312 1291.703125 1580.191406 1292.171875 1580.605469 C 1285.304688 1574.609375 1276.417969 1558.023438 1276.207031 1539.667969 C 1275.917969 1514.015625 1300.164062 1495.355469 1282.511719 1480.808594 C 1266.828125 1467.882812 1195 1469.5 1175.199219 1470.316406 C 1166.300781 1470.683594 1166.261719 1484.578125 1175.199219 1484.179688 C 1193.722656 1483.363281 1247.789062 1483.300781 1265.363281 1486.40625 C 1290.175781 1490.796875 1272.304688 1502.097656 1267.347656 1524.820312 C 1262.847656 1545.453125 1268.515625 1572.238281 1284.535156 1586.824219 C 1287.929688 1589.914062 1289.554688 1590.558594 1334.359375 1613.535156 C 1345.839844 1619.421875 1357.359375 1626.722656 1369.445312 1631.363281 C 1386.664062 1637.976562 1388.304688 1649.25 1387.164062 1665.296875 C 1386.742188 1671.230469 1386.617188 1677.914062 1383.160156 1683.039062 C 1378.601562 1689.792969 1371.230469 1686.960938 1364.605469 1685.824219 C 1358.355469 1684.75 1168.746094 1665.289062 1164.386719 1664.222656 C 1134.0625 1656.828125 1151.589844 1611.503906 1156.453125 1591.554688 C 1163.484375 1562.734375 1175.515625 1507.601562 1176.285156 1477.246094 C 1176.316406 1476 1174.472656 1475.773438 1174.140625 1476.957031 Z M 1174.148438 1476.949219 " fill-opacity="1" fill-rule="nonzero"/><path fill="#ffffff" d="M 1583.355469 1926.082031 C 1611.890625 2056.496094 1600.378906 2095.859375 1627.570312 2107.503906 C 1638.863281 2112.34375 1633.414062 2111.285156 1834.753906 2058.367188 C 1838.589844 2057.355469 1848.421875 2057.765625 1853.328125 2051.171875 C 1861.148438 2040.648438 1852.78125 2021.417969 1846.8125 2012.339844 C 1840.09375 2002.121094 1832.550781 1996.585938 1820.535156 1997.3125 C 1819.910156 1997.351562 1730.382812 1986.871094 1725.589844 1984.460938 C 1706.113281 1974.660156 1697.480469 1955.558594 1695.894531 1951.917969 C 1684.367188 1925.445312 1698.191406 1907.976562 1687.425781 1898.808594 C 1679.207031 1891.804688 1662.011719 1897.40625 1627.972656 1908.910156 C 1609.464844 1915.167969 1594.269531 1921.351562 1583.359375 1926.082031 Z M 1583.355469 1926.082031 " fill-opacity="1" fill-rule="nonzero"/><path fill="#010101" d="M 1582.261719 1926.082031 C 1585.367188 1960.4375 1593.632812 1994.320312 1598.199219 2028.554688 C 1602.21875 2058.667969 1602.425781 2105.929688 1630.597656 2112.921875 C 1639.796875 2115.203125 1640.957031 2113.941406 1715.167969 2094.730469 C 1829.53125 2065.136719 1816.898438 2066.933594 1836.863281 2063.035156 C 1842.609375 2061.914062 1848.25 2061.601562 1853.21875 2058.109375 C 1858.867188 2054.125 1861.335938 2047.53125 1861.484375 2040.796875 C 1861.796875 2027.167969 1854.324219 2016.140625 1845.980469 2006.128906 C 1838.847656 1997.574219 1830.800781 1994.390625 1819.910156 1993.996094 C 1817.257812 1993.902344 1750.917969 1984.351562 1736.578125 1982.132812 C 1728.957031 1980.957031 1727.652344 1980.179688 1728.570312 1980.542969 C 1731.214844 1981.609375 1712.542969 1974.910156 1701.429688 1951.667969 C 1688.925781 1925.527344 1707.585938 1898.007812 1684.28125 1890.875 C 1664.710938 1884.890625 1598.457031 1912.09375 1579.855469 1920.105469 C 1571.691406 1923.613281 1578.734375 1935.601562 1586.851562 1932.074219 C 1603.402344 1924.898438 1654.210938 1905.59375 1671.9375 1902.238281 C 1690.90625 1898.652344 1686.109375 1911.324219 1685.742188 1925.335938 C 1684.941406 1956.4375 1705.863281 1983.238281 1725.796875 1989.828125 C 1729.605469 1991.089844 1727.035156 1990.664062 1784.890625 1996.992188 C 1796.335938 1998.242188 1808.21875 2000.601562 1819.769531 2000.6875 C 1822.082031 2000.703125 1824.285156 2000.429688 1826.605469 2000.789062 C 1843.035156 2003.320312 1846.9375 2019.875 1850.175781 2031.746094 C 1851.785156 2037.652344 1853.046875 2046.378906 1846.960938 2050.238281 C 1842.226562 2053.242188 1835.378906 2053.011719 1830.046875 2054.410156 C 1820.722656 2056.863281 1669.40625 2097.066406 1660.089844 2099.554688 C 1640.363281 2104.816406 1620.804688 2115.441406 1611.785156 2075.667969 C 1608.1875 2059.8125 1600.234375 1970.613281 1584.402344 1925.792969 C 1584.019531 1924.710938 1582.136719 1924.773438 1582.253906 1926.082031 Z M 1582.261719 1926.082031 " fill-opacity="1" fill-rule="nonzero"/><path fill="#010101" d="M 1221.300781 1527.160156 C 1220.554688 1539.03125 1227.480469 1561.914062 1232.066406 1572.53125 C 1245.882812 1604.515625 1268.914062 1620.019531 1290.902344 1622.464844 C 1302.257812 1623.726562 1319.839844 1621.902344 1327.101562 1611.800781 C 1328.605469 1609.707031 1326.113281 1606.6875 1323.765625 1607.457031 C 1315.4375 1610.191406 1307.925781 1618.011719 1288.753906 1614.984375 C 1262.949219 1610.914062 1245.8125 1588.957031 1235.917969 1564.972656 C 1228.671875 1547.40625 1227.964844 1536.136719 1223.230469 1526.632812 C 1222.738281 1525.644531 1221.355469 1526.203125 1221.292969 1527.152344 Z M 1221.300781 1527.160156 " fill-opacity="1" fill-rule="nonzero"/><path fill="#010101" d="M 1276.464844 1606.359375 L 1276.804688 1606.304688 C 1276.277344 1606.234375 1275.746094 1606.164062 1275.226562 1606.09375 C 1277.558594 1607.464844 1282.285156 1603.945312 1291.273438 1598.691406 C 1293.726562 1597.261719 1295.992188 1596.359375 1296.226562 1593.632812 C 1296.335938 1592.34375 1295.269531 1591.382812 1294.195312 1590.964844 C 1292.015625 1590.117188 1291.128906 1591.257812 1278.457031 1599.628906 C 1276.851562 1600.6875 1274.097656 1602.539062 1274.214844 1604.328125 C 1274.308594 1603.984375 1274.398438 1603.636719 1274.492188 1603.292969 C 1273.332031 1604.9375 1274.632812 1606.65625 1276.480469 1606.367188 Z M 1276.464844 1606.359375 " fill-opacity="1" fill-rule="nonzero"/><path fill="#010101" d="M 1256.816406 1596.40625 C 1257.734375 1596.203125 1257.5625 1597.089844 1259.789062 1596.40625 C 1261.804688 1595.773438 1261.921875 1595.640625 1267.449219 1593.027344 C 1273.683594 1590.085938 1276.617188 1589.265625 1276.789062 1586.621094 C 1276.828125 1585.96875 1276.402344 1585.34375 1275.871094 1585.007812 C 1273.886719 1583.78125 1272.679688 1584.894531 1260.390625 1591.820312 C 1256.140625 1594.21875 1257.183594 1595.089844 1256.441406 1595.765625 C 1256.148438 1596.039062 1256.464844 1596.484375 1256.816406 1596.40625 Z M 1256.816406 1596.40625 " fill-opacity="1" fill-rule="nonzero"/><path fill="#010101" d="M 1242.867188 1580.160156 C 1252.597656 1576.394531 1249.148438 1577.847656 1256.085938 1574.5 C 1266.140625 1569.652344 1267.363281 1569.433594 1268.804688 1567.480469 C 1270.027344 1565.824219 1268.359375 1563.597656 1266.5625 1563.566406 C 1264.210938 1563.535156 1261.851562 1565.246094 1259.8125 1566.289062 C 1245.585938 1573.566406 1250.574219 1570.726562 1241.3125 1576.457031 C 1239.453125 1577.605469 1240.648438 1581.015625 1242.867188 1580.160156 Z M 1242.867188 1580.160156 " fill-opacity="1" fill-rule="nonzero"/><path fill="#010101" d="M 1225.769531 1548.949219 C 1238.128906 1547.734375 1250.347656 1545.328125 1262.5625 1543.085938 C 1266.273438 1542.402344 1264.726562 1536.640625 1260.988281 1537.398438 C 1249.035156 1539.824219 1237.007812 1542.089844 1225.300781 1545.515625 C 1223.621094 1546.003906 1223.558594 1548.957031 1225.769531 1548.957031 Z M 1225.769531 1548.949219 " fill-opacity="1" fill-rule="nonzero"/><path fill="#010101" d="M 1148.6875 1640.609375 C 1182.1875 1654.464844 1356.128906 1677.882812 1388.890625 1676.523438 C 1391.761719 1676.40625 1392.710938 1671.835938 1389.605469 1671.253906 C 1376.109375 1668.738281 1311.707031 1666.316406 1208.160156 1648.128906 C 1188.679688 1644.703125 1168.785156 1639.167969 1148.964844 1638.5625 C 1147.699219 1638.523438 1147.683594 1640.1875 1148.6875 1640.601562 Z M 1148.6875 1640.609375 " fill-opacity="1" fill-rule="nonzero"/><path fill="#010101" d="M 1343.457031 1668.894531 C 1349.253906 1667.320312 1344.460938 1655.523438 1362.253906 1637.835938 C 1368.613281 1631.515625 1371.042969 1631.859375 1371.53125 1629.019531 C 1371.804688 1627.460938 1371.136719 1625.71875 1369.429688 1625.3125 C 1366.589844 1624.636719 1364.371094 1626.933594 1362.285156 1628.558594 C 1343.199219 1643.480469 1335.992188 1670.902344 1343.457031 1668.886719 Z M 1343.457031 1668.894531 " fill-opacity="1" fill-rule="nonzero"/><path fill="#010101" d="M 1154.097656 1589.851562 C 1159.847656 1592.863281 1180.46875 1596.039062 1184.910156 1627.34375 C 1186.460938 1638.25 1185.230469 1642.195312 1187.011719 1646.203125 C 1188.023438 1648.476562 1191.089844 1647.433594 1191.792969 1645.582031 C 1193.015625 1642.359375 1192.25 1638.265625 1192.027344 1634.886719 C 1191.347656 1624.519531 1189.644531 1614.199219 1184.476562 1605.238281 C 1177.277344 1592.746094 1162.867188 1584.945312 1155.332031 1585.265625 C 1153.023438 1585.367188 1151.816406 1588.667969 1154.089844 1589.859375 Z M 1154.097656 1589.851562 " fill-opacity="1" fill-rule="nonzero"/><path fill="#010101" d="M 1651.191406 1953.183594 C 1661.304688 1983.820312 1675.128906 2017.96875 1708.214844 2029.542969 C 1740.875 2040.96875 1771.261719 2014.941406 1770.921875 1993.339844 C 1770.890625 1991.527344 1768.09375 1990.476562 1767.246094 1992.34375 C 1763.238281 2001.1875 1760.621094 2012.792969 1745.007812 2021.664062 C 1732.664062 2028.6875 1718.015625 2028.257812 1705.28125 2022.460938 C 1677.128906 2009.640625 1665.273438 1979.050781 1654.351562 1952.304688 C 1653.574219 1950.40625 1650.507812 1951.121094 1651.183594 1953.175781 Z M 1651.191406 1953.183594 " fill-opacity="1" fill-rule="nonzero"/><path fill="#010101" d="M 1618.53125 2093.546875 C 1644.566406 2089.921875 1633.59375 2093.121094 1678.402344 2083.8125 C 1734.75 2072.105469 1792.140625 2057.027344 1853.660156 2036.921875 C 1857.0625 2035.808594 1855.605469 2030.421875 1852.175781 2031.535156 C 1775.457031 2056.527344 1717.515625 2070.148438 1648.429688 2084.417969 C 1638.203125 2086.527344 1628.191406 2089.515625 1618.003906 2091.648438 C 1616.734375 2091.914062 1617.308594 2093.71875 1618.523438 2093.546875 Z M 1618.53125 2093.546875 " fill-opacity="1" fill-rule="nonzero"/><path fill="#010101" d="M 1813.125 2047.09375 C 1814.308594 2043.34375 1812.027344 2024.09375 1828.808594 2007.1875 C 1830.410156 2005.570312 1832.410156 2004.230469 1833.6875 2002.347656 C 1835.089844 2000.285156 1832.722656 1996.945312 1830.277344 1997.917969 C 1826.042969 1999.605469 1822.480469 2004.246094 1819.746094 2007.78125 C 1808 2022.941406 1806.234375 2041.816406 1808.898438 2047.648438 C 1809.777344 2049.570312 1812.570312 2048.832031 1813.125 2047.09375 Z M 1813.125 2047.09375 " fill-opacity="1" fill-rule="nonzero"/><path fill="#010101" d="M 1605.9375 2052.464844 C 1645.527344 2060.171875 1649.417969 2068.6875 1662.992188 2082.722656 C 1665.117188 2084.921875 1668.605469 2082.121094 1667.164062 2079.507812 C 1657.949219 2062.78125 1627.777344 2045.90625 1605.9375 2050.464844 C 1604.957031 2050.667969 1604.933594 2052.277344 1605.9375 2052.472656 Z M 1605.9375 2052.464844 " fill-opacity="1" fill-rule="nonzero"/><path fill="#010101" d="M 1662.851562 1965.445312 C 1671.867188 1961.132812 1693.347656 1948.546875 1695.332031 1947.058594 C 1697.464844 1945.457031 1695.699219 1942.351562 1693.230469 1943.472656 C 1691.269531 1944.359375 1670.019531 1957.054688 1661.519531 1963.179688 C 1660.152344 1964.167969 1661.304688 1966.183594 1662.84375 1965.445312 Z M 1662.851562 1965.445312 " fill-opacity="1" fill-rule="nonzero"/><path fill="#010101" d="M 1671.6875 1984.164062 C 1673.882812 1984.617188 1674.488281 1983.929688 1694.164062 1971.679688 C 1700.515625 1967.726562 1700.859375 1967.679688 1701.824219 1966.605469 C 1703.589844 1964.632812 1701.910156 1961.125 1699.125 1961.972656 C 1697.675781 1962.417969 1697.675781 1962.535156 1684.148438 1971.34375 C 1671.523438 1979.570312 1670.683594 1980.078125 1670.292969 1981.726562 C 1670.058594 1982.714844 1670.597656 1983.953125 1671.679688 1984.171875 Z M 1671.6875 1984.164062 " fill-opacity="1" fill-rule="nonzero"/><path fill="#010101" d="M 1688.234375 2005.421875 C 1691.589844 2003.664062 1711.429688 1982.988281 1712.503906 1980.957031 C 1713.367188 1979.308594 1711.585938 1977.316406 1709.878906 1978.335938 C 1707.941406 1979.492188 1688.296875 2000.5 1686.738281 2003.917969 C 1686.296875 2004.898438 1687.214844 2005.949219 1688.234375 2005.414062 Z M 1688.234375 2005.421875 " fill-opacity="1" fill-rule="nonzero"/><path fill="#010101" d="M 1705.023438 2018.996094 C 1711.054688 2011.476562 1724.476562 1989.207031 1724.894531 1986.980469 C 1725.292969 1984.839844 1723.003906 1983.535156 1721.347656 1984.917969 C 1719.082031 1986.8125 1706.230469 2010.175781 1703.101562 2017.882812 C 1702.679688 2018.925781 1704.324219 2019.875 1705.023438 2019.003906 Z M 1705.023438 2018.996094 " fill-opacity="1" fill-rule="nonzero"/><path fill="#010101" d="M 1729.527344 2018.941406 C 1730.820312 2016.503906 1733.996094 2011.648438 1737.328125 2003.5625 C 1742.089844 1991.996094 1743.484375 1990.15625 1742.222656 1987.738281 C 1741.949219 1987.207031 1741.1875 1986.886719 1740.617188 1987.082031 C 1737.964844 1988 1737.226562 1991.652344 1736.320312 1993.988281 C 1728.867188 2013.296875 1730.132812 2011.984375 1728.328125 2018.433594 C 1728.132812 2019.144531 1729.175781 2019.609375 1729.527344 2018.941406 Z M 1729.527344 2018.941406 " fill-opacity="1" fill-rule="nonzero"/><path fill="#010101" d="M 1749.351562 2012.730469 C 1751.90625 2004.527344 1752.589844 2001.636719 1754.488281 1994.28125 C 1755.320312 1991.058594 1756.566406 1987.621094 1754.933594 1986.726562 C 1752.238281 1985.238281 1751.84375 1989.761719 1749.65625 1999.574219 C 1748.730469 2003.753906 1747.957031 2007.933594 1747.234375 2012.144531 C 1747 2013.515625 1748.917969 2014.101562 1749.34375 2012.730469 Z M 1749.351562 2012.730469 " fill-opacity="1" fill-rule="nonzero"/><path fill="#010101" d="M 774.191406 1266.5625 C 774.492188 1266.5625 774.492188 1266.097656 774.191406 1266.097656 C 773.886719 1266.097656 773.886719 1266.5625 774.191406 1266.5625 Z M 774.191406 1266.5625 " fill-opacity="1" fill-rule="nonzero"/><path fill="#000000" d="M 827.28125 1196.425781 C 1091.820312 1179.644531 1279.53125 1166.0625 1365.351562 1155.6875 C 1467.101562 1143.394531 1506.183594 1239.082031 1548.992188 1345.808594 C 1642.847656 1579.800781 1660.460938 1699.625 1694.640625 1761.277344 C 1705.660156 1781.160156 1724.902344 1806.71875 1722.34375 1840.796875 C 1721.425781 1853.046875 1717.695312 1866.265625 1724.515625 1881.722656 C 1733.078125 1901.128906 1748.945312 1902.964844 1748.792969 1911.597656 C 1748.542969 1925.03125 1709.859375 1933.976562 1624.617188 1950.8125 C 1541.519531 1967.226562 1511.351562 1971.945312 1499.457031 1955.792969 C 1491.003906 1944.3125 1497.511719 1930.066406 1481.773438 1906.925781 C 1472.597656 1893.4375 1453.96875 1883.933594 1452.957031 1840.554688 C 1452.484375 1820.070312 1375.6875 1544.992188 1331.453125 1405.796875 C 1021.003906 1377.339844 887.808594 1440.203125 821.6875 1364.484375 C 784.871094 1322.320312 782.238281 1255.722656 827.289062 1196.425781 Z M 827.28125 1196.425781 " fill-opacity="1" fill-rule="nonzero"/><path fill="#010101" d="M 827.28125 1198.433594 C 962.398438 1194.003906 1239.769531 1173.246094 1331.945312 1163.851562 C 1362.183594 1160.769531 1392.160156 1154.851562 1421.636719 1166.007812 C 1452.582031 1177.714844 1474.378906 1204.433594 1491.042969 1231.917969 C 1527.175781 1291.519531 1580.25 1437.664062 1602.699219 1503.65625 C 1635.1875 1599.128906 1662.082031 1706.628906 1685.089844 1754.398438 C 1696.003906 1777.054688 1712.738281 1796.75 1716.339844 1824.289062 C 1719.339844 1847.21875 1707.195312 1868.328125 1723.84375 1892.324219 C 1728.640625 1899.238281 1735.167969 1903.332031 1741.039062 1909.066406 C 1742.027344 1910.03125 1743.257812 1912.53125 1743.03125 1911.113281 C 1743.164062 1911.9375 1742.496094 1912.421875 1742.992188 1911.628906 C 1737.300781 1920.585938 1705.65625 1927.5 1694.78125 1930.113281 C 1667.210938 1936.738281 1587.203125 1953.160156 1555.445312 1957.753906 C 1472.664062 1969.726562 1520.988281 1940.164062 1475.972656 1891.210938 C 1462.554688 1876.617188 1459.847656 1858.511719 1458.523438 1839.644531 C 1456.273438 1807.480469 1369.183594 1505.765625 1336.980469 1404.273438 C 1336.15625 1401.664062 1334.078125 1400.304688 1331.453125 1400.0625 C 1035.464844 1373.027344 909.773438 1427.132812 838.847656 1372.84375 C 795.269531 1339.472656 781.328125 1265.636719 831.773438 1199.054688 C 835.8125 1193.722656 826.792969 1188.53125 822.792969 1193.808594 C 759.882812 1276.832031 789.242188 1369.363281 859 1396.996094 C 940.449219 1429.257812 1067.136719 1387.53125 1331.445312 1411.535156 C 1329.601562 1410.132812 1327.757812 1408.726562 1325.921875 1407.324219 C 1358.105469 1508.582031 1441.1875 1798.664062 1447.144531 1838.171875 C 1447.035156 1837.472656 1447.230469 1838.335938 1447.289062 1839.644531 C 1450.234375 1904.449219 1479.46875 1892.464844 1487.710938 1935.890625 C 1489.128906 1943.339844 1489.734375 1951.105469 1493.960938 1957.644531 C 1506.757812 1977.4375 1537.753906 1971.421875 1557.015625 1968.691406 C 1587.574219 1964.355469 1670.472656 1947.882812 1699.34375 1941.035156 C 1717.238281 1936.785156 1754.363281 1928.921875 1754.636719 1911.773438 C 1754.863281 1897.65625 1733.136719 1896.683594 1727.261719 1871.984375 C 1722.445312 1851.722656 1735.253906 1837.058594 1721.796875 1801.371094 C 1712.714844 1777.296875 1700.152344 1765.957031 1685.582031 1729.210938 C 1658.429688 1660.746094 1554.300781 1272.566406 1467.101562 1185.675781 C 1441.234375 1159.902344 1406.652344 1147.046875 1370.078125 1150.671875 C 1080.019531 1179.433594 1005.511719 1177.644531 827.28125 1194.417969 C 824.761719 1194.65625 824.660156 1198.519531 827.28125 1198.433594 Z M 827.28125 1198.433594 " fill-opacity="1" fill-rule="nonzero"/><path fill="#000000" d="M 686.304688 1256.179688 C 670.761719 1349.117188 724.773438 1417.457031 844.085938 1403.695312 C 868.753906 1400.855469 915.464844 1390.746094 1065.640625 1258.050781 C 1104.007812 1224.152344 1134.855469 1194.859375 1156.097656 1174.195312 C 1149.410156 1265.847656 1136.574219 1298.164062 1126.9375 1364.289062 C 1113.261719 1458.105469 1129.8125 1438.519531 1127.265625 1472.316406 C 1126.214844 1486.28125 1121.730469 1490.195312 1123.0625 1496.128906 C 1126.683594 1512.246094 1167.109375 1515.820312 1195.886719 1518.539062 C 1304.6875 1528.8125 1338.980469 1535.574219 1346.28125 1519.625 C 1350.5625 1510.277344 1341.003906 1503.085938 1344.335938 1479.324219 C 1346.335938 1465.046875 1351.3125 1456.78125 1355.539062 1447.113281 C 1363.804688 1428.230469 1365.0625 1413.527344 1368.140625 1378.492188 C 1384.984375 1186.484375 1386.765625 1174.101562 1388.390625 1101.207031 C 1391.988281 940.40625 1390.011719 868.257812 1330.324219 847.71875 C 1313.179688 841.660156 1291.3125 839.3125 1291.113281 839.3125 C 1204.222656 839.3125 1059.601562 945.128906 992.539062 1000.363281 C 853.054688 1115.210938 750.402344 1201.757812 686.304688 1256.179688 Z M 686.304688 1256.179688 " fill-opacity="1" fill-rule="nonzero"/><path fill="#010101" d="M 683.667969 1255.449219 C 674.28125 1303.972656 685.527344 1357.835938 728.492188 1387.054688 C 762.273438 1410.03125 805.808594 1412.8125 845.253906 1408.007812 C 894.261719 1402.039062 952.917969 1356.933594 992.039062 1326.03125 C 1037.660156 1289.992188 1092.691406 1242.378906 1159.421875 1177.519531 C 1156.742188 1176.414062 1154.066406 1175.300781 1151.386719 1174.195312 C 1143.703125 1277.539062 1112.976562 1375.730469 1116.65625 1431.179688 C 1117.589844 1445.207031 1125.539062 1457.527344 1121.785156 1477.804688 C 1120.152344 1486.648438 1112.640625 1497.738281 1125.832031 1507.742188 C 1138.3125 1517.207031 1165.4375 1520.203125 1181.300781 1521.882812 C 1196.429688 1523.488281 1289.019531 1532.796875 1308.15625 1533.667969 C 1324.980469 1534.4375 1347.464844 1535.15625 1351.652344 1518.808594 C 1354.671875 1507.015625 1341.777344 1494.269531 1353.148438 1464.308594 C 1370.210938 1419.367188 1366.402344 1465.980469 1387.007812 1219.136719 C 1392.890625 1148.664062 1397.871094 1020.21875 1391.652344 949.777344 C 1386.296875 889.085938 1373.796875 850.730469 1313.972656 837.800781 C 1303.519531 835.542969 1293.175781 833.402344 1282.519531 834.328125 C 1141.433594 846.574219 922.539062 1050.847656 683.730469 1253.597656 C 680.140625 1256.640625 685.324219 1261.777344 688.890625 1258.757812 C 726.9375 1226.457031 976.894531 1019.921875 993.519531 1006.238281 C 1057.640625 953.472656 1219.59375 832.203125 1301.480469 846.027344 C 1343.894531 853.1875 1364.957031 867.066406 1375.355469 910.210938 C 1399.71875 1011.253906 1371.601562 1295.582031 1361.507812 1398.328125 C 1355.328125 1461.21875 1330.597656 1461.910156 1341.660156 1508.738281 C 1342.585938 1512.675781 1343.238281 1514.824219 1341.628906 1518.179688 C 1341.324219 1518.808594 1340.640625 1519.640625 1341.035156 1519.128906 C 1332.164062 1530.859375 1259.363281 1519.953125 1187.929688 1513.003906 C 1173.976562 1511.648438 1141.402344 1508.589844 1130.824219 1499.605469 C 1121.28125 1491.503906 1138.308594 1483.914062 1129.957031 1448.6875 C 1126.261719 1433.089844 1122.882812 1429.492188 1130.058594 1375.824219 C 1138.621094 1311.773438 1153.816406 1268.535156 1160.789062 1174.203125 C 1161.101562 1169.992188 1155.511719 1168.195312 1152.757812 1170.878906 C 1096 1226.097656 928.074219 1384.742188 850.074219 1398.378906 C 844.65625 1399.332031 833.011719 1400.605469 822.761719 1401.019531 C 726.46875 1404.902344 676.480469 1347.078125 688.9375 1256.921875 C 689.402344 1253.535156 684.34375 1251.9375 683.660156 1255.464844 Z M 683.667969 1255.449219 " fill-opacity="1" fill-rule="nonzero"/><path fill="#ffffff" d="M 899.367188 718.929688 C 873.089844 720.429688 849.0625 708.453125 818.503906 693.21875 C 796.109375 682.058594 782.945312 671.628906 759.292969 670.25 C 678.816406 665.578125 641.582031 758.304688 577.488281 878.882812 C 517.929688 990.929688 494.484375 1011.585938 501.988281 1059.699219 C 503.382812 1068.648438 513.75 1129.191406 558.886719 1153.195312 C 600.949219 1175.566406 641.074219 1149.125 658.953125 1172.949219 C 672.964844 1191.617188 652.445312 1213.339844 666.902344 1263.355469 C 682.398438 1316.996094 707.15625 1313.03125 749.851562 1276.230469 C 804.851562 1228.8125 808.320312 1187.988281 845.722656 1133.710938 C 878.859375 1085.632812 938.511719 1027.152344 1011.132812 989.910156 C 1045.179688 972.449219 1095.089844 952.976562 1100.542969 915.394531 C 1101.214844 910.765625 1100.871094 908.234375 1097.5625 883.359375 C 1086.480469 799.894531 1087.769531 808.558594 1086.757812 801.769531 C 1086.757812 801.769531 1072.367188 704.925781 1049.949219 685.753906 C 1035.121094 673.066406 1014.535156 673.960938 995.730469 679.191406 C 944.164062 693.554688 933.71875 716.96875 899.359375 718.929688 Z M 899.367188 718.929688 " fill-opacity="1" fill-rule="nonzero"/><path fill="#010101" d="M 899.367188 716.351562 C 854.558594 717.738281 804.71875 676.34375 774.632812 668.707031 C 742.308594 660.503906 708.058594 673.058594 684.640625 695.601562 C 638.421875 740.09375 610.898438 813.03125 545.957031 928.472656 C 513.96875 985.339844 491.214844 1015.835938 498.359375 1060.988281 C 504.710938 1101.128906 526.171875 1143.832031 563.773438 1159.679688 C 604.753906 1176.949219 653.855469 1151.34375 659.894531 1184.382812 C 662.214844 1197.0625 657.933594 1211.011719 657.691406 1223.792969 C 657.101562 1255.316406 670.324219 1310.027344 701.878906 1307.40625 C 718 1306.066406 732.65625 1294.976562 744.839844 1285.277344 C 805.925781 1236.652344 813.621094 1188.050781 847.417969 1138.09375 C 881.753906 1087.34375 934.191406 1040.058594 986.550781 1008.246094 C 1035.871094 978.289062 1101.167969 960.84375 1104.832031 913.746094 C 1105.238281 908.585938 1104.132812 901.976562 1100.101562 871.402344 C 1094.074219 825.75 1085.972656 747.789062 1065.789062 702.417969 C 1043.21875 651.65625 986.125 672.164062 938.371094 700.308594 C 926.058594 707.5625 913.867188 713.644531 899.367188 714.601562 C 893.839844 714.964844 893.800781 723.613281 899.367188 723.25 C 931.242188 721.132812 947.90625 700.253906 983.121094 687.675781 C 1001.480469 681.117188 1023.363281 675.003906 1041.613281 685.179688 C 1051.578125 690.734375 1056.394531 701.226562 1060.425781 711.441406 C 1076.875 753.089844 1084.371094 814.738281 1083.179688 805.910156 C 1083.957031 811.679688 1097.113281 907.9375 1096.644531 913.738281 C 1094.222656 944.023438 1053.664062 964.332031 1027.160156 977.433594 C 974.824219 1003.296875 927.304688 1033.417969 877.183594 1088.261719 C 803.121094 1169.308594 813.722656 1216.101562 747.164062 1273.53125 C 709.585938 1305.957031 686.53125 1314.113281 671.84375 1266.695312 C 656.71875 1217.871094 674.03125 1196.199219 665.289062 1176.351562 C 651.488281 1145.03125 608.949219 1166.738281 572.617188 1154.914062 C 540.222656 1144.375 520.871094 1113.398438 511.242188 1082.410156 C 490.6875 1016.25 515.515625 1005.3125 587.964844 867.144531 C 640.101562 767.722656 675.292969 690.183594 732.921875 676.789062 C 749.429688 672.949219 765.910156 672.933594 781.910156 678.953125 C 805.964844 687.996094 855.863281 724.113281 899.359375 721.488281 C 902.636719 721.292969 902.691406 716.242188 899.359375 716.34375 Z M 899.367188 716.351562 " fill-opacity="1" fill-rule="nonzero"/><path fill="#2e287a" d="M 889.140625 1045.695312 L 887.488281 1041.75 C 885.792969 1037.675781 887.417969 1032.976562 891.28125 1030.835938 C 942.597656 1002.347656 993.921875 973.851562 1045.242188 945.363281 C 1048.230469 943.707031 1049.964844 940.445312 1049.671875 937.035156 C 1043.320312 864.039062 1036.960938 791.042969 1030.609375 718.050781 C 1030.3125 714.679688 1032.007812 711.441406 1034.960938 709.765625 C 1110.867188 666.589844 1186.773438 623.40625 1262.679688 580.230469 C 1268.148438 577.117188 1275.007812 580.699219 1275.589844 586.964844 C 1283.09375 668.039062 1290.597656 749.113281 1298.09375 830.1875 C 1298.414062 833.652344 1296.636719 836.96875 1293.578125 838.617188 C 1162.804688 909.074219 1032.023438 979.535156 901.25 1049.992188 C 896.738281 1052.421875 891.117188 1050.425781 889.148438 1045.703125 Z M 889.140625 1045.695312 " fill-opacity="1" fill-rule="nonzero"/><path fill="#ffffff" d="M 1157.109375 755.566406 C 1139.992188 771.601562 1153.238281 800.324219 1176.542969 797.722656 C 1199.847656 795.113281 1206.425781 764.175781 1186.195312 752.320312 C 1176.886719 746.863281 1164.984375 748.195312 1157.109375 755.574219 Z M 1157.109375 755.566406 " fill-opacity="1" fill-rule="nonzero"/><path fill="#010101" d="M 1156.90625 754.828125 C 1149.902344 756.78125 1143.464844 770.898438 1149.011719 783.992188 C 1158.578125 806.597656 1191.0625 805.691406 1199.511719 782.351562 C 1203.359375 771.742188 1199.730469 759.285156 1190.945312 752.257812 C 1180.957031 744.265625 1164.292969 743.757812 1155.253906 753.707031 C 1153.363281 755.785156 1155.933594 759.714844 1158.4375 757.832031 C 1162.308594 754.929688 1166.199219 752.5 1171.117188 751.898438 C 1186.164062 750.054688 1197.832031 763.589844 1195.164062 777.421875 C 1191.378906 797.03125 1165.695312 801.746094 1155.246094 784.988281 C 1151.019531 778.203125 1150.875 769.359375 1154.398438 762.578125 C 1155.613281 760.238281 1159.699219 754.039062 1156.914062 754.820312 Z M 1156.90625 754.828125 " fill-opacity="1" fill-rule="nonzero"/><path fill="#ffffff" d="M 910.800781 481.898438 C 924.742188 472.863281 946.691406 475.410156 960.101562 486.25 C 967.296875 492.066406 974.152344 501.988281 976.433594 544.183594 C 978.628906 584.800781 982.683594 650.710938 953.300781 664.015625 C 943.214844 668.582031 937.484375 663.199219 930.417969 669.625 C 925.988281 673.652344 921.847656 681.582031 924.390625 732.542969 C 925.265625 750.015625 925.964844 753.457031 922.929688 757.363281 C 912.03125 771.375 871.113281 767.996094 858.675781 748.1875 C 845.015625 726.433594 877.378906 694.238281 882.679688 598.242188 C 872.335938 600.351562 862.886719 596.265625 859.421875 589.066406 C 852.71875 575.179688 868.007812 563.808594 887.28125 569.480469 C 887.480469 562.421875 888.066406 552.714844 889.714844 541.296875 C 894.394531 508.964844 897.015625 490.851562 910.808594 481.914062 Z M 910.800781 481.898438 " fill-opacity="1" fill-rule="nonzero"/><path fill="#010101" d="M 911.207031 483.378906 C 927.125 476.972656 951.703125 478.839844 962.089844 494.308594 C 974.660156 513.027344 974.269531 590.511719 972.542969 610.5625 C 966.765625 677.800781 940.386719 653.917969 927.148438 666.359375 C 911.613281 680.953125 922.390625 738.652344 920.40625 751.332031 C 918.171875 765.605469 871.363281 765.957031 861.390625 743.414062 C 853.0625 724.570312 882.179688 690.898438 887.402344 598.226562 C 887.589844 594.886719 884.234375 593.175781 881.402344 593.65625 C 873.667969 594.972656 862.753906 591.992188 862.644531 582.722656 C 862.511719 571.4375 878.789062 572.097656 886.003906 574.003906 C 889.03125 574.804688 891.863281 572.527344 891.964844 569.464844 C 892.527344 551.5625 894.984375 533.605469 898.433594 516.03125 C 900.582031 505.117188 903.390625 492.601562 913.066406 485.800781 C 917.761719 482.5 913.457031 474.785156 908.5 477.984375 C 897.179688 485.300781 892.757812 497.863281 890.027344 510.496094 C 885.855469 529.746094 883.179688 549.773438 882.546875 569.457031 C 884.53125 567.949219 886.515625 566.429688 888.507812 564.921875 C 875.027344 561.339844 852.921875 564.492188 853.195312 582.722656 C 853.4375 598.820312 870.1875 605.132812 883.925781 602.796875 C 881.925781 601.269531 879.925781 599.753906 877.925781 598.226562 C 872.886719 686.152344 845.558594 719.457031 851.359375 742.910156 C 859.421875 775.507812 928.976562 781.199219 929.769531 749.558594 C 930.269531 729.554688 924.882812 692.746094 931.09375 676.671875 C 931.179688 676.453125 932.8125 673.722656 932.480469 674.109375 C 937.898438 667.953125 946.203125 672.792969 956.554688 667.53125 C 986.816406 652.167969 983.136719 586.683594 981.269531 552.335938 C 980.21875 533.078125 979.042969 503.046875 968.253906 488.867188 C 955.503906 472.101562 925.949219 466.699219 909.710938 480.808594 C 908.597656 481.777344 909.78125 483.949219 911.207031 483.371094 Z M 911.207031 483.378906 " fill-opacity="1" fill-rule="nonzero"/><path fill="#000000" d="M 882.507812 570.042969 C 890.496094 568.554688 894.433594 571.878906 900.636719 568.90625 C 907.277344 565.722656 909.449219 558.296875 910.972656 555.683594 C 924.890625 531.902344 938.800781 508.117188 952.71875 484.335938 C 991.238281 557.574219 974.984375 642.1875 955.324219 662.148438 C 948.1875 669.394531 936.769531 673.269531 927.527344 669.027344 C 926.414062 681.464844 925.304688 693.894531 924.191406 706.335938 C 949.128906 699.765625 971.304688 683.28125 984.777344 661.289062 C 995.285156 644.152344 998.992188 629.8125 1003.769531 606.324219 C 1010.167969 574.882812 1007.753906 551.035156 1002.929688 503.335938 C 998.875 463.242188 989.074219 460.882812 965.296875 457.46875 C 908.660156 449.316406 895.085938 445.503906 881.667969 452.851562 C 866.722656 461.03125 859.265625 475.867188 851.832031 492.59375 C 839.644531 520.039062 845.253906 527.1875 837.511719 532.402344 C 819.703125 544.378906 792.511719 504.972656 738.167969 501.875 C 724.265625 501.078125 700.597656 497.894531 680.777344 512.582031 C 663.878906 525.101562 653.433594 548.667969 632.582031 551.394531 C 607.542969 554.660156 584.875 523.691406 560.691406 535.101562 C 550.871094 539.742188 545.578125 551.019531 545.007812 561.871094 C 544.292969 575.554688 547.964844 584.015625 567.355469 645.1875 C 583.964844 697.59375 574.539062 700.355469 582.75 729.46875 C 593.554688 767.769531 629.617188 778.691406 656.695312 743.875 C 666.121094 731.757812 672.503906 717.464844 682.257812 705.609375 C 708.636719 673.558594 760.101562 665.914062 794.660156 688.90625 C 812.417969 700.722656 845.496094 737.335938 868.894531 687.714844 C 882.414062 659.050781 888.796875 627.058594 887.328125 595.402344 C 873.929688 596.015625 863.601562 592.148438 862.527344 586.972656 C 861.296875 581.03125 871.96875 571.996094 882.5 570.035156 Z M 882.507812 570.042969 " fill-opacity="1" fill-rule="nonzero"/><path fill="#010101" d="M 882.507812 572.457031 C 890.316406 571.484375 897.925781 574.789062 904.808594 569.582031 C 910.800781 565.054688 913.757812 556.460938 917.441406 550.164062 C 930.003906 528.695312 942.566406 507.21875 955.121094 485.753906 L 950.304688 485.753906 C 975.828125 534.867188 979.414062 591.65625 965.085938 638.109375 C 960.304688 653.617188 947.578125 674.171875 928.277344 666.34375 C 926.445312 665.601562 924.882812 667.441406 924.742188 669.035156 C 923.628906 681.472656 922.515625 693.902344 921.402344 706.34375 C 921.238281 708.179688 923.316406 709.480469 924.9375 709.035156 C 1013.171875 684.921875 1018.535156 581.765625 1004.757812 491.34375 C 998.960938 453.289062 982.871094 456.6875 928.269531 448.789062 C 898.503906 444.484375 868.046875 433.355469 844.109375 503 C 839.527344 516.335938 840.046875 522.164062 838.335938 526.226562 C 830.195312 545.570312 797.292969 506.980469 749.9375 499.78125 C 692.585938 491.0625 679.152344 507.53125 658.472656 530.410156 C 650.765625 538.929688 641.851562 547.859375 629.632812 548.265625 C 604.414062 549.105469 578.46875 515.011719 553.585938 535.746094 C 519.476562 564.164062 568.210938 620.613281 575.140625 702.324219 C 577.140625 725.933594 582.550781 754.53125 606.8125 765.359375 C 631.011719 776.152344 652.984375 756.375 665.429688 737.445312 C 673.304688 725.46875 679.71875 712.34375 690.074219 702.195312 C 715.277344 677.464844 757.269531 672.046875 787.453125 688.65625 C 811.683594 701.984375 847.394531 748.53125 875.652344 681.402344 C 887.265625 653.8125 892.261719 624.746094 891.054688 595.410156 C 890.976562 593.441406 889.414062 591.625 887.332031 591.6875 C 852.363281 592.699219 868.675781 576.929688 883.503906 573.640625 C 888.175781 572.605469 886.199219 565.417969 881.527344 566.460938 C 872.894531 568.386719 856.347656 576.597656 858.953125 587.976562 C 861.421875 598.75 879.011719 599.378906 887.339844 599.136719 L 883.621094 595.417969 C 884.8125 624.378906 879.816406 653.4375 868.394531 680.128906 C 863.671875 691.171875 857.335938 705.585938 844.390625 708.625 C 815.582031 715.386719 801.738281 671.152344 747.304688 672.15625 C 726.53125 672.539062 705.90625 679.722656 689.910156 693.070312 C 670.433594 709.324219 663.710938 735.6875 644.382812 751.863281 C 621.1875 771.273438 596.511719 759.652344 587.023438 731.757812 C 578.867188 707.765625 585.816406 692.660156 571.957031 648.480469 C 551.1875 582.308594 547.515625 576.890625 548.386719 561.878906 C 549.164062 548.503906 557.632812 536.121094 572.023438 536.136719 C 586.050781 536.152344 598.132812 545.601562 610.578125 550.777344 C 635.421875 561.105469 648.921875 551.222656 665.3125 532.757812 C 683.574219 512.203125 694.476562 503.242188 726.132812 504.503906 C 788.707031 506.988281 801.480469 534.214844 826.933594 537.78125 C 831.9375 538.480469 837.152344 537.429688 840.996094 533.972656 C 844.703125 530.640625 845.472656 525.949219 846.359375 521.285156 C 849.871094 502.847656 861.789062 473.332031 875.695312 461.15625 C 891.800781 447.0625 909.695312 452.851562 959.957031 460.042969 C 967.699219 461.148438 977.554688 461.34375 984.527344 465.40625 C 993.503906 470.628906 996.53125 481.769531 998.140625 491.296875 C 1000.546875 505.554688 1004.261719 547.796875 1004.414062 565.488281 C 1004.601562 587.035156 1001.054688 608.363281 995.261719 629.089844 C 984.347656 668.164062 956.949219 694.496094 923.449219 703.65625 C 924.625 704.550781 925.808594 705.457031 926.984375 706.351562 C 928.097656 693.910156 929.210938 681.480469 930.324219 669.042969 C 929.148438 669.9375 927.964844 670.839844 926.789062 671.738281 C 942.777344 678.226562 958.28125 666.613281 965.316406 652.761719 C 981.460938 620.996094 988.988281 548.117188 955.121094 482.953125 C 954.140625 481.058594 951.324219 481.207031 950.304688 482.953125 C 904.597656 561.066406 907.914062 556.832031 904.941406 561.285156 C 899.117188 570.003906 890.515625 566.304688 881.863281 567.738281 C 879.214844 568.175781 879.800781 572.804688 882.5 572.472656 Z M 882.507812 572.457031 " fill-opacity="1" fill-rule="nonzero"/><path fill="#2e287a" d="M 836.777344 519.730469 C 852.535156 536.261719 923.09375 466.527344 971.648438 489.925781 C 993.136719 500.277344 1000.5 524.148438 1009.148438 520.726562 C 1018.371094 517.066406 1015.242188 487.839844 1011.917969 472.542969 C 1009.257812 460.285156 1004.035156 437.757812 983.953125 419.609375 C 941.992188 381.671875 858.160156 393.113281 849.691406 414.421875 C 844.726562 426.925781 858.675781 429.914062 862.105469 437.773438 C 866.808594 448.53125 849.855469 459.1875 840.75 483.972656 C 836.878906 494.511719 830.164062 512.792969 836.769531 519.738281 Z M 836.777344 519.730469 " fill-opacity="1" fill-rule="nonzero"/><path fill="#ffffff" d="M 794.667969 688.914062 C 798.484375 682.027344 805.417969 685.472656 820.386719 676.210938 C 845.132812 660.902344 845.964844 639.253906 859.132812 638.960938 C 869.308594 638.726562 869.75 651.625 888.9375 662.0625 C 892.671875 664.09375 910.722656 673.90625 930.417969 669.640625 C 948.910156 665.632812 951.355469 652.984375 964.199219 654.613281 C 979.6875 656.574219 988.714844 676.59375 989.535156 678.453125 C 1010.503906 726.542969 940.996094 811.179688 850.945312 765.628906 C 813.652344 746.769531 785.515625 705.46875 794.675781 688.921875 Z M 794.667969 688.914062 " fill-opacity="1" fill-rule="nonzero"/><path fill="#010101" d="M 795.851562 689.601562 C 800.023438 683.496094 819.726562 686.386719 839.355469 662.386719 C 845.714844 654.613281 855.015625 632.957031 866.644531 645.816406 C 876.382812 656.582031 883.683594 665.570312 903.703125 671.183594 C 932.757812 679.324219 944.902344 665.648438 955.003906 659.585938 C 968.71875 651.351562 981.757812 668.234375 986.722656 679.410156 C 1004.960938 720.453125 950.164062 799.652344 864.167969 767.640625 C 822.167969 752.007812 789.335938 706.980469 797.691406 690.683594 C 799.746094 686.671875 793.695312 683.125 791.640625 687.148438 C 784.800781 700.527344 794.683594 717.425781 802.367188 728.160156 C 841.363281 782.667969 919.839844 803.15625 969.460938 754.328125 C 1005.398438 718.96875 1002.097656 676.664062 977.46875 657.414062 C 957.019531 641.433594 947.089844 661.523438 933.25 665.890625 C 912.5 672.4375 887.964844 662.261719 874.109375 646.484375 C 869.585938 641.339844 865.242188 635.480469 857.570312 636.578125 C 843.300781 638.625 841.964844 662.222656 815.632812 676.570312 C 808.820312 680.273438 797.558594 680.773438 793.496094 688.214844 C 792.636719 689.777344 794.871094 691.039062 795.859375 689.59375 Z M 795.851562 689.601562 " fill-opacity="1" fill-rule="nonzero"/><path fill="#000000" d="M 783.695312 1031.683594 C 788.394531 1028.984375 785.679688 1023.855469 790.464844 1018.515625 C 801.441406 1006.246094 828.09375 1019.535156 835.628906 1008.378906 C 838.289062 1004.441406 837.542969 998.960938 838.949219 998.9375 C 840.710938 998.90625 840.054688 1007.515625 844.5 1011.257812 C 850.914062 1016.667969 866.886719 1011.074219 876.886719 1002.777344 C 897.390625 985.777344 902.214844 949.667969 889.09375 936.707031 C 882.515625 930.199219 860.800781 927.289062 888.695312 916.710938 C 892.535156 915.257812 909.539062 911.683594 913.550781 905.898438 C 915.699219 902.792969 917.097656 897.671875 914.988281 894.496094 C 912.3125 890.464844 904.902344 891.003906 900.371094 891.507812 C 831.96875 899.105469 796.855469 921.539062 796.855469 921.539062 C 780.761719 931.820312 769.285156 944.179688 746.324219 968.910156 C 721.753906 995.367188 767.863281 1040.773438 783.703125 1031.683594 Z M 783.695312 1031.683594 " fill-opacity="1" fill-rule="nonzero"/><path fill="#010101" d="M 741.148438 976.527344 C 729.996094 993.519531 748.550781 1022.234375 768.328125 1031.925781 C 774.570312 1034.984375 784.910156 1037.476562 788.363281 1029.222656 C 789.671875 1026.101562 789.648438 1022.773438 791.992188 1020.039062 C 803.003906 1007.203125 833.003906 1025.410156 839.355469 1005.875 C 839.558594 1005.25 840.453125 1002.847656 840.171875 1002.175781 L 840.289062 1001.53125 C 837.9375 1000.027344 837.105469 1000.058594 837.785156 1001.609375 C 836.664062 1004.378906 840.78125 1011.253906 842.765625 1012.996094 C 853.117188 1022.09375 879.496094 1009.453125 890.527344 990.421875 C 901.867188 970.863281 905.128906 941.230469 884.507812 929.992188 C 883.402344 929.382812 878.140625 927.601562 877.878906 926.261719 C 877.464844 924.199219 883.457031 921.957031 884.8125 921.359375 C 893.988281 917.289062 905.066406 916.578125 913.214844 910.3125 C 918.507812 906.242188 921.613281 896.636719 916.25 891.40625 C 910.304688 885.609375 894.464844 889.101562 883.707031 890.769531 C 854.914062 895.230469 813.636719 906.132812 791.113281 921.871094 C 776.984375 931.742188 764.640625 944.988281 751.695312 958.882812 C 746.933594 963.996094 741.804688 968.746094 738.851562 975.167969 C 737.335938 978.46875 742.214844 981.363281 743.765625 978.039062 C 745.960938 973.335938 748.511719 970.253906 767.339844 950.773438 C 780.058594 937.609375 791.144531 927.117188 807.179688 919.289062 C 846.214844 900.21875 904.285156 892.339844 909.78125 894.519531 C 913.882812 896.148438 913.636719 901.230469 911.019531 904.398438 C 905.875 910.625 895.109375 911.253906 887.933594 913.886719 C 882.671875 915.816406 871.066406 919.367188 872.054688 926.832031 C 873.425781 937.199219 896.898438 930.496094 893.304688 964.683594 C 889.085938 1004.777344 850.152344 1018.015625 844.265625 1006.808594 C 842.875 1004.160156 843.417969 999.414062 841.027344 997.367188 C 839.550781 996.097656 837.597656 996.425781 836.460938 997.964844 C 833.789062 1001.585938 835.898438 1006.566406 831.144531 1009.296875 C 823.617188 1013.625 811.699219 1010.039062 803.394531 1010.824219 C 780.480469 1012.996094 789.4375 1031.480469 777.847656 1030.710938 C 765.089844 1029.863281 737.476562 1008.410156 741.476562 976.597656 C 741.5 976.429688 741.25 976.398438 741.171875 976.511719 Z M 741.148438 976.527344 " fill-opacity="1" fill-rule="nonzero"/><path fill="#000000" d="M 1285.734375 689.863281 C 1274.277344 687.046875 1254.210938 686.640625 1245.320312 698.480469 C 1243.0625 701.484375 1241.949219 704.714844 1242.339844 727.539062 C 1242.753906 751.839844 1243.039062 764.253906 1246.808594 777.460938 C 1250.824219 791.511719 1254.394531 804.207031 1263.199219 806.519531 C 1273.597656 809.25 1283.140625 795.378906 1290.394531 799.441406 C 1296.699219 802.96875 1293.929688 815.90625 1296.816406 816.402344 C 1300.210938 816.996094 1306.78125 799.558594 1310.882812 781.929688 C 1315.511719 762.035156 1315.0625 747.355469 1314.46875 731.816406 C 1313.589844 708.605469 1310.734375 696.003906 1285.726562 689.863281 Z M 1285.734375 689.863281 " fill-opacity="1" fill-rule="nonzero"/><path fill="#010101" d="M 1286.269531 687.910156 C 1268.984375 682.4375 1241.660156 685.3125 1239.597656 707.332031 C 1238.152344 722.78125 1239.0625 738.964844 1240.050781 754.421875 C 1240.898438 767.785156 1243.695312 780.941406 1248.550781 793.449219 C 1252.886719 804.609375 1260.933594 813.664062 1273.683594 808.371094 C 1277.375 806.835938 1286.316406 799.332031 1289.84375 803.4375 C 1292.988281 807.09375 1290.675781 813.265625 1293.050781 817.28125 C 1302.15625 832.671875 1317.707031 782.140625 1318.066406 749.035156 C 1318.183594 738.519531 1317.925781 715.699219 1313.667969 706.046875 C 1308.898438 695.234375 1297.480469 689.523438 1286.566406 686.851562 C 1282.667969 685.894531 1281.007812 691.894531 1284.910156 692.867188 C 1311.792969 699.554688 1310.835938 713.855469 1311.496094 738.683594 C 1312.6875 783.464844 1298.671875 807.839844 1297.410156 811.351562 C 1297.222656 811.65625 1297.035156 811.960938 1296.847656 812.261719 C 1295.664062 813.382812 1296.34375 813.875 1298.863281 813.742188 C 1298.894531 813.71875 1298.46875 810.847656 1298.460938 810.785156 C 1297.511719 802.976562 1294.527344 793.144531 1284.464844 795.730469 C 1274.804688 798.207031 1265.082031 810.207031 1257.371094 797.480469 C 1245.148438 777.320312 1245.578125 745.503906 1245.351562 723.226562 C 1245.28125 716.65625 1243.6875 706.179688 1247.71875 700.308594 C 1255.238281 689.367188 1273.707031 690.066406 1285.195312 691.808594 C 1287.71875 692.191406 1288.816406 688.710938 1286.269531 687.902344 Z M 1286.269531 687.910156 " fill-opacity="1" fill-rule="nonzero"/><path fill="#010101" d="M 750.738281 936.25 C 761.566406 930.347656 748.542969 908.75 730.859375 924.769531 C 724.914062 930.152344 719.238281 941.773438 710.582031 941.433594 C 706.753906 941.277344 704.519531 938.957031 701.769531 936.519531 C 695.054688 930.558594 687.605469 928.511719 679.578125 933.648438 C 670.816406 939.261719 667.273438 949.980469 657.769531 954.804688 C 648.023438 959.753906 636.289062 959.117188 625.671875 958.992188 C 595.703125 958.65625 569.136719 966.902344 549.101562 992.710938 C 543.265625 1000.230469 535.902344 1010.636719 536.113281 1020.5625 C 536.15625 1022.640625 538.671875 1023.082031 539.785156 1021.558594 C 546.992188 1011.664062 547.570312 999.03125 568.34375 982.695312 C 607.660156 951.785156 636.722656 975.441406 663.125 959.085938 C 670.683594 954.40625 674.171875 946.460938 680.628906 940.722656 C 691.980469 930.636719 697.722656 943.222656 704.960938 946.523438 C 712.675781 950.050781 720.816406 945.527344 725.871094 939.632812 C 729.707031 935.167969 732.546875 929.328125 737.722656 926.214844 C 747.945312 920.050781 752.863281 929.546875 749.019531 934.015625 C 747.984375 935.214844 749.265625 937.050781 750.746094 936.25 Z M 750.738281 936.25 " fill-opacity="1" fill-rule="nonzero"/><path fill="#010101" d="M 720.132812 799.746094 C 720.039062 817.9375 730.265625 860.054688 716.605469 927.429688 C 715.46875 933.027344 713.617188 938.644531 713.191406 944.34375 C 713.011719 946.710938 716.777344 947.800781 717.78125 945.589844 C 729.488281 919.753906 734.082031 831.175781 722.609375 799.417969 C 722.140625 798.128906 720.140625 798.265625 720.132812 799.753906 Z M 720.132812 799.746094 " fill-opacity="1" fill-rule="nonzero"/><path fill="#010101" d="M 774.441406 1057.851562 C 781.179688 1064.539062 781.601562 1076.667969 772.765625 1081.941406 C 765.144531 1086.503906 758.304688 1081.734375 750.441406 1083.0625 C 730.960938 1086.347656 738.695312 1115.273438 700.253906 1140.3125 C 678.949219 1154.183594 670.0625 1149.949219 662.734375 1155.648438 C 661.34375 1156.730469 662.410156 1158.605469 663.65625 1159.125 C 669.796875 1161.695312 679.703125 1157.398438 685.519531 1155.179688 C 708.769531 1146.3125 726.289062 1129.570312 736.074219 1110.128906 C 739.359375 1103.597656 741.476562 1093.757812 748.023438 1089.601562 C 754.808594 1085.289062 763.925781 1090.894531 771.441406 1087.453125 C 783.9375 1081.742188 785.898438 1065.386719 775.753906 1056.53125 C 774.859375 1055.75 773.582031 1056.996094 774.441406 1057.84375 Z M 774.441406 1057.851562 " fill-opacity="1" fill-rule="nonzero"/><path fill="#010101" d="M 987.65625 783.546875 C 986.605469 791.246094 984.164062 798.804688 982.792969 806.488281 C 961.996094 922.699219 935.554688 950.328125 938.347656 959.320312 C 938.613281 960.167969 939.445312 960.402344 940.199219 960.074219 C 945.65625 957.714844 947.71875 947.925781 949.898438 942.753906 C 970.097656 894.894531 983.160156 843.359375 987.386719 808.191406 C 988.375 799.980469 987.890625 791.855469 988.515625 783.664062 C 988.554688 783.183594 987.71875 783.058594 987.65625 783.546875 Z M 987.65625 783.546875 " fill-opacity="1" fill-rule="nonzero"/><path fill="#010101" d="M 945.042969 875.777344 C 942.355469 879.511719 941.226562 883.753906 937.90625 893.570312 C 936.644531 897.300781 936.636719 896.722656 936.480469 899.929688 C 936.402344 901.589844 939.140625 902.777344 940.847656 897.796875 C 944.308594 887.695312 946.613281 880.664062 946.667969 876.214844 C 946.683594 875.277344 945.515625 875.109375 945.035156 875.769531 Z M 945.042969 875.777344 " fill-opacity="1" fill-rule="nonzero"/><path fill="#010101" d="M 537.730469 1073.933594 C 538.058594 1081.210938 546.222656 1093.914062 550.660156 1099.699219 C 576.222656 1133.011719 622.566406 1139.308594 629.773438 1134.398438 C 630.730469 1133.742188 630.941406 1132.164062 629.773438 1131.5625 C 626.199219 1129.726562 621.210938 1130.800781 617.257812 1130.527344 C 603.558594 1129.570312 589.0625 1124.964844 575.808594 1116.535156 C 549.5625 1099.832031 542.710938 1078.308594 538.945312 1073.4375 C 538.5625 1072.945312 537.707031 1073.367188 537.730469 1073.941406 Z M 537.730469 1073.933594 " fill-opacity="1" fill-rule="nonzero"/><path fill="#010101" d="M 627.015625 1100.679688 C 634.378906 1111.445312 649.449219 1113.53125 654.914062 1108.898438 C 655.691406 1108.238281 655.007812 1107.085938 654.144531 1107.03125 C 650.78125 1106.8125 638.328125 1110.292969 628.824219 1099.292969 C 627.972656 1098.3125 626.277344 1099.605469 627.015625 1100.6875 Z M 627.015625 1100.679688 " fill-opacity="1" fill-rule="nonzero"/><path fill="#010101" d="M 826.183594 674.804688 C 831.113281 706.566406 874.863281 731.625 892.929688 727.785156 C 894.128906 727.53125 893.910156 725.925781 892.929688 725.566406 C 888.445312 723.933594 858.9375 723.039062 837.511719 693.382812 C 833.269531 687.507812 830.195312 680.921875 826.988281 674.460938 C 826.746094 673.976562 826.117188 674.34375 826.183594 674.796875 Z M 826.183594 674.804688 " fill-opacity="1" fill-rule="nonzero"/><path fill="#010101" d="M 944.589844 721.070312 C 954.773438 723.3125 962.890625 714.609375 962.289062 709.679688 C 962.167969 708.652344 960.976562 707.945312 960.140625 708.792969 C 958.125 710.824219 954.367188 719.015625 944.808594 719.464844 C 943.921875 719.503906 943.648438 720.867188 944.589844 721.078125 Z M 944.589844 721.070312 " fill-opacity="1" fill-rule="nonzero"/><path fill="#ffffff" d="M 1209.9375 956.578125 C 1164.019531 1016.800781 1134.792969 1246.039062 1125.007812 1308.882812 C 1108.617188 1414.15625 1108.632812 1408.046875 1111.246094 1414.5625 C 1111.722656 1415.753906 1113.425781 1416.640625 1114.445312 1415.410156 C 1118.976562 1409.9375 1118.269531 1409.425781 1120.207031 1396.949219 C 1151.488281 1195.578125 1160.96875 1123.484375 1180.398438 1051.554688 C 1195.300781 996.355469 1205.632812 981.550781 1211.335938 957.179688 C 1211.546875 956.285156 1210.449219 955.917969 1209.9375 956.585938 Z M 1209.9375 956.578125 " fill-opacity="1" fill-rule="nonzero"/><path fill="#ffffff" d="M 877.378906 1396.902344 C 917.035156 1404.554688 952.507812 1373.878906 979.117188 1348.425781 C 1005.644531 1323.050781 1139.804688 1192.160156 1148.0625 1184.042969 C 1152.140625 1180.03125 1145.890625 1173.789062 1141.796875 1177.777344 C 1106.925781 1211.636719 1003.527344 1313.382812 986.46875 1330.140625 C 953.992188 1362.023438 923.207031 1393.140625 877.722656 1394.433594 C 876.359375 1394.472656 875.9375 1396.628906 877.386719 1396.910156 Z M 877.378906 1396.902344 " fill-opacity="1" fill-rule="nonzero"/><path fill="#ffffff" d="M 1388.8125 1158.324219 C 1383.144531 1182.570312 1360.246094 1359.640625 1348.203125 1451.386719 C 1345.152344 1474.652344 1344.867188 1472.722656 1346.289062 1488.054688 C 1346.359375 1488.796875 1347.316406 1488.945312 1347.582031 1488.226562 C 1353.621094 1471.898438 1350.695312 1486.617188 1358.628906 1426.175781 C 1362.269531 1398.394531 1390.789062 1184.578125 1391.605469 1158.707031 C 1391.652344 1157.117188 1389.179688 1156.753906 1388.8125 1158.324219 Z M 1388.8125 1158.324219 " fill-opacity="1" fill-rule="nonzero"/><path fill="#ffffff" d="M 795.734375 1272.800781 C 814.859375 1290.753906 840.296875 1291.386719 860.214844 1281.78125 C 886.84375 1268.9375 889.761719 1239.460938 903.796875 1216.609375 C 920.742188 1189.007812 954.109375 1189.203125 982.589844 1184.664062 C 1029.828125 1177.128906 1065.167969 1147.894531 1096.605469 1112.84375 C 1107.496094 1100.703125 1119.761719 1088.03125 1128.191406 1074.027344 C 1128.96875 1072.734375 1127.195312 1071.402344 1126.128906 1072.441406 C 1110.101562 1087.96875 1100.699219 1107.09375 1067.535156 1137.035156 C 994.632812 1202.855469 954.039062 1169.554688 914.800781 1198.972656 C 892.472656 1215.714844 891.933594 1246.078125 874.609375 1266.371094 C 855.902344 1288.28125 818.191406 1291.121094 796.117188 1272.433594 C 795.851562 1272.207031 795.472656 1272.574219 795.726562 1272.820312 Z M 795.734375 1272.800781 " fill-opacity="1" fill-rule="nonzero"/><path fill="#ffffff" d="M 1194.601562 1058.351562 C 1213.804688 1056.886719 1228.929688 1073.078125 1233.925781 1090.394531 C 1245.171875 1129.339844 1208.058594 1170.910156 1213.484375 1213.699219 C 1215.726562 1231.398438 1226.476562 1245.175781 1235.730469 1259.800781 C 1263.316406 1303.382812 1230.429688 1313.964844 1213.515625 1336.898438 C 1205.765625 1347.414062 1204.402344 1359.6875 1211.132812 1371.136719 C 1218.761719 1384.121094 1235.257812 1394.824219 1233.582031 1411.597656 C 1231.277344 1434.667969 1204.097656 1444.609375 1193.761719 1463.289062 C 1187.167969 1475.199219 1187.875 1494.476562 1202.402344 1499.972656 C 1204.214844 1500.65625 1205.359375 1497.792969 1203.707031 1496.875 C 1196.097656 1492.617188 1193.101562 1484.25 1193.988281 1475.835938 C 1196.734375 1449.636719 1239.1875 1438.242188 1237.746094 1407.953125 C 1236.632812 1384.503906 1204.953125 1373.03125 1211.40625 1349.65625 C 1216.25 1332.132812 1240.953125 1320.542969 1248.480469 1300.71875 C 1260.5625 1268.898438 1219.027344 1244.359375 1216.957031 1209.074219 C 1214.441406 1166.179688 1253.335938 1123.105469 1234.113281 1082.199219 C 1226.941406 1066.960938 1212.238281 1054.515625 1194.617188 1056.609375 C 1193.527344 1056.738281 1193.472656 1058.445312 1194.617188 1058.359375 Z M 1194.601562 1058.351562 " fill-opacity="1" fill-rule="nonzero"/><path fill="#ffffff" d="M 1380.429688 1388.582031 C 1405.375 1390.410156 1420.9375 1410.648438 1426.058594 1433.71875 C 1431.117188 1456.523438 1428.34375 1480.367188 1434.511719 1503 C 1449.144531 1556.738281 1496.304688 1544.214844 1513.585938 1574.578125 C 1531.371094 1605.839844 1489.480469 1645.667969 1516.574219 1680.804688 C 1532.855469 1701.921875 1564.792969 1712.351562 1565.734375 1741.195312 C 1566.492188 1764.414062 1550.324219 1781.382812 1556.917969 1815.359375 C 1559.984375 1831.152344 1562.140625 1834.941406 1604.527344 1943.300781 C 1605.515625 1945.828125 1609.644531 1944.730469 1608.648438 1942.164062 C 1565.757812 1831.984375 1555.046875 1813.304688 1561.3125 1783.96875 C 1565.71875 1763.363281 1576.414062 1741.945312 1564.738281 1721.722656 C 1551.492188 1698.785156 1519.289062 1688.992188 1512.757812 1663.4375 C 1505.800781 1636.1875 1530.40625 1605.542969 1519.984375 1577.746094 C 1510.050781 1551.261719 1475.546875 1548.714844 1456.5 1532.253906 C 1426.625 1506.433594 1439.648438 1456.71875 1426.414062 1421.683594 C 1419.582031 1403.597656 1401.625 1383.625 1380.328125 1387.8125 C 1379.882812 1387.894531 1380.015625 1388.535156 1380.429688 1388.566406 Z M 1380.429688 1388.582031 " fill-opacity="1" fill-rule="nonzero"/><path fill="#ffffff" d="M 888.421875 557.769531 C 894.945312 559.425781 905.617188 549.074219 909.703125 543.140625 C 921.613281 525.863281 914.988281 512.855469 912.988281 517.914062 C 911.519531 521.644531 911.527344 525.667969 910.519531 529.535156 C 905.414062 549.136719 890.882812 552.210938 887.800781 556.242188 C 887.386719 556.777344 887.832031 557.621094 888.421875 557.769531 Z M 888.421875 557.769531 " fill-opacity="1" fill-rule="nonzero"/><path fill="#ffffff" d="M 885.621094 545.234375 C 887.109375 543.53125 896.167969 533.296875 897.296875 531.335938 C 897.695312 530.640625 897.53125 529.195312 896.378906 529.125 C 894.347656 529.007812 887.394531 538.042969 883.292969 542.910156 C 881.800781 544.683594 884.296875 546.738281 885.613281 545.226562 Z M 885.621094 545.234375 " fill-opacity="1" fill-rule="nonzero"/><path fill="#ffffff" d="M 986.800781 534.027344 C 987.011719 538.859375 989.121094 540.792969 992.894531 555.566406 C 996.820312 570.929688 999.394531 593.675781 999.667969 603.761719 C 999.878906 611.707031 998.820312 619.554688 998.703125 627.46875 C 998.695312 628.203125 999.808594 628.367188 999.996094 627.640625 C 1002.460938 617.765625 1003.441406 591.59375 1001.667969 578.339844 C 1000.398438 568.859375 995.082031 540.472656 988.949219 533.132812 C 988.25 532.292969 986.753906 532.976562 986.800781 534.019531 Z M 986.800781 534.027344 " fill-opacity="1" fill-rule="nonzero"/><path fill="#ffffff" d="M 844.773438 961.210938 C 849.574219 960.890625 856.371094 962.929688 859.867188 964.699219 C 867.695312 968.660156 869.339844 973.460938 872.421875 974.503906 C 873.394531 974.832031 874.21875 973.976562 874.289062 973.082031 C 874.65625 968.425781 866.015625 962.550781 861.773438 960.597656 C 855.265625 957.597656 851.039062 957.476562 844.390625 958.417969 C 842.8125 958.640625 843.175781 961.320312 844.773438 961.210938 Z M 844.773438 961.210938 " fill-opacity="1" fill-rule="nonzero"/><path fill="#ffffff" d="M 836.625 974.457031 C 836.933594 975.082031 839.871094 981.207031 840.867188 982.15625 C 842.117188 983.355469 843.402344 982.648438 843.488281 981.480469 C 843.621094 979.734375 840.828125 974.597656 839.832031 972.582031 C 838.796875 970.488281 835.457031 972.125 836.617188 974.457031 Z M 836.625 974.457031 " fill-opacity="1" fill-rule="nonzero"/><path fill="#ffffff" d="M 1282.253906 739.40625 C 1283.484375 740.761719 1283.980469 740.621094 1285.523438 740.628906 C 1287.671875 740.644531 1287.773438 740.582031 1293.507812 740.015625 C 1298.335938 739.539062 1301.589844 739.5625 1304.132812 737.507812 C 1304.890625 736.902344 1304.640625 735.523438 1303.824219 735.101562 C 1302.375 734.355469 1302.726562 734.402344 1301.097656 734.324219 C 1297.921875 734.167969 1287.585938 735.351562 1284.886719 735.9375 C 1283.507812 736.230469 1283.03125 736.121094 1282.050781 737.820312 C 1281.746094 738.347656 1281.863281 738.972656 1282.253906 739.40625 Z M 1282.253906 739.40625 " fill-opacity="1" fill-rule="nonzero"/><path fill="#ffffff" d="M 1284.785156 759.886719 C 1293.578125 762.765625 1295.332031 763.496094 1297.097656 763.472656 C 1298.21875 763.457031 1298.398438 762.128906 1297.617188 761.535156 C 1296.445312 760.640625 1295.113281 760.277344 1285.5625 757.039062 C 1283.851562 756.453125 1282.777344 759.234375 1284.777344 759.886719 Z M 1284.785156 759.886719 " fill-opacity="1" fill-rule="nonzero"/><path fill="#010101" d="M 880.796875 583.75 C 881.628906 584.269531 883.535156 584.199219 884.089844 584.132812 C 884.066406 584.132812 885 584.015625 884.421875 584.078125 C 885.871094 583.90625 886.796875 584.046875 887.265625 584.078125 C 886.71875 584.039062 888.152344 584.078125 890.222656 584.910156 C 889.527344 584.628906 890.929688 585.152344 892.292969 586.117188 C 892.371094 586.171875 892.96875 586.621094 892.433594 586.210938 L 893 586.644531 C 892.121094 585.953125 894.121094 587.5 894.875 588.636719 C 895.210938 589.144531 895.5 589.632812 895.894531 590.109375 C 896.636719 590.972656 898.214844 591.136719 899.15625 590.527344 C 903.59375 587.664062 895.367188 578.121094 885.511719 579.15625 C 879.964844 579.742188 879.355469 582.847656 880.796875 583.757812 Z M 880.796875 583.75 " fill-opacity="1" fill-rule="nonzero"/><path fill="#010101" d="M 946.28125 559.019531 C 943.960938 565.0625 944.25 578.96875 945.105469 585.898438 C 946.824219 599.792969 952.070312 605.628906 944.441406 608.113281 C 941.828125 608.960938 941.351562 613.304688 944.441406 613.902344 C 948.753906 614.738281 952.632812 611.351562 954.070312 607.472656 C 955.929688 602.476562 953.8125 597.128906 952.710938 592.21875 C 948.769531 574.667969 951.859375 563.707031 951.835938 559.777344 C 951.8125 556.414062 947.378906 556.148438 946.28125 559.019531 Z M 946.28125 559.019531 " fill-opacity="1" fill-rule="nonzero"/><path fill="#010101" d="M 937.140625 622.070312 C 933.988281 619.03125 926.523438 621.304688 925.464844 627.019531 C 924.953125 629.757812 925.886719 633.804688 928.585938 634.5 C 929.5 634.734375 931.46875 634.71875 931.179688 633.746094 C 931.125 633.550781 931.078125 633.355469 931.046875 633.152344 C 931.125 633.636719 931.03125 632.148438 930.929688 631.671875 C 930.875 631.425781 930.976562 632.007812 930.96875 631.976562 C 930.914062 631.527344 930.914062 631.011719 930.324219 630.085938 C 930.726562 631.222656 929.707031 629.058594 930.324219 627.058594 C 930.480469 626.542969 930.128906 627.410156 930.316406 627.058594 C 930.378906 626.941406 930.640625 626.480469 930.710938 626.363281 C 930.890625 626.0625 930.394531 626.714844 930.710938 626.351562 C 931.375 625.617188 931.382812 625.773438 931.414062 625.65625 C 930.757812 626.117188 931.554688 625.539062 932.308594 625.167969 C 932.660156 624.996094 931.910156 625.296875 932.285156 625.183594 C 934.464844 624.488281 935.148438 625.160156 935.648438 624.847656 C 935.539062 624.917969 934.984375 624.863281 935.996094 624.847656 C 937.375 624.824219 938.183594 623.066406 937.148438 622.070312 Z M 937.140625 622.070312 " fill-opacity="1" fill-rule="nonzero"/><path fill="#010101" d="M 938.933594 560.234375 C 938.082031 553.324219 920.273438 548.988281 916.023438 553.261719 C 913.890625 555.410156 915.167969 558.242188 918.5 558.242188 C 919.425781 558.242188 920.289062 557.816406 921.675781 557.628906 C 920.71875 557.761719 922.8125 557.378906 925.699219 557.667969 C 925.039062 557.605469 926.332031 557.746094 926.300781 557.746094 C 926.367188 557.753906 926.867188 557.828125 926.414062 557.761719 C 928.222656 558.039062 930.042969 558.554688 931.652344 559.386719 C 934.597656 560.90625 934.890625 562.011719 936.300781 562.242188 C 937.46875 562.4375 939.109375 561.714844 938.933594 560.234375 Z M 938.933594 560.234375 " fill-opacity="1" fill-rule="nonzero"/><path fill="#010101" d="M 960.398438 562.6875 C 962.359375 561.589844 962.234375 561.519531 962.042969 561.667969 C 962.585938 561.269531 963.164062 560.96875 963.753906 560.65625 C 963.511719 560.78125 963.996094 560.460938 965.707031 560.132812 C 965.441406 560.1875 965.148438 560.101562 967.304688 560.148438 C 967.722656 560.15625 966.859375 560.046875 967.265625 560.148438 C 968.167969 560.367188 967.792969 560.203125 969.125 560.671875 C 969.523438 560.8125 968.734375 560.453125 969.09375 560.671875 C 972.097656 562.421875 971.855469 563.007812 973.257812 563.207031 C 975.351562 563.519531 976.699219 562.109375 976.644531 560.632812 C 976.488281 556.800781 970.574219 554.421875 966.8125 554.4375 C 960.070312 554.46875 954.710938 560.179688 957.839844 562.515625 C 958.585938 563.078125 959.574219 563.160156 960.398438 562.695312 Z M 960.398438 562.6875 " fill-opacity="1" fill-rule="nonzero"/><path fill="#010101" d="M 971.714844 570.089844 C 972.953125 569.683594 974.097656 568.546875 974.503906 567.300781 C 975.195312 565.980469 974.914062 564.984375 974.769531 563.871094 C 974.519531 562.976562 974.066406 562.203125 973.414062 561.542969 C 973.054688 561.269531 972.707031 560.988281 972.347656 560.71875 C 970.945312 559.910156 969.0625 559.714844 967.660156 560.453125 C 966.421875 560.859375 965.28125 561.996094 964.875 563.238281 C 964.183594 564.5625 964.460938 565.558594 964.609375 566.671875 C 964.859375 567.566406 965.3125 568.339844 965.964844 569 L 967.03125 569.824219 C 968.402344 570.617188 970.292969 570.84375 971.714844 570.089844 Z M 971.714844 570.089844 " fill-opacity="1" fill-rule="nonzero"/><path fill="#010101" d="M 933.164062 568.4375 C 934.542969 567.988281 935.8125 566.726562 936.253906 565.347656 C 937.023438 563.886719 936.714844 562.773438 936.550781 561.542969 C 936.269531 560.554688 935.773438 559.691406 935.046875 558.957031 C 934.652344 558.65625 934.261719 558.351562 933.863281 558.039062 C 932.308594 557.136719 930.222656 556.925781 928.65625 557.746094 C 927.28125 558.195312 926.011719 559.457031 925.566406 560.835938 C 924.796875 562.296875 925.109375 563.410156 925.273438 564.640625 C 925.550781 565.628906 926.050781 566.492188 926.773438 567.226562 C 927.171875 567.527344 927.558594 567.832031 927.957031 568.144531 C 929.476562 569.023438 931.578125 569.273438 933.164062 568.4375 Z M 933.164062 568.4375 " fill-opacity="1" fill-rule="nonzero"/><path fill="#010101" d="M 852.019531 488.328125 C 857.382812 482.851562 878.972656 471.546875 886.625 468.496094 C 912.398438 458.214844 939.125 457.808594 963.394531 465.15625 C 985.421875 471.828125 989.527344 478.753906 998.171875 481.097656 C 998.609375 481.214844 999.070312 480.703125 998.789062 480.296875 C 989.160156 466.277344 923.699219 438.792969 868.117188 474.171875 C 861.921875 478.109375 857.5 483.613281 851.730469 487.964844 C 851.460938 488.175781 851.777344 488.570312 852.011719 488.328125 Z M 852.019531 488.328125 " fill-opacity="1" fill-rule="nonzero"/><path fill="#010101" d="M 870.460938 474.761719 C 862.917969 479.890625 872.367188 497.839844 875.582031 493.03125 C 877.011719 490.890625 873.089844 489.558594 871.625 483.636719 C 870.949219 480.894531 871.324219 479.152344 871.238281 476.925781 C 871.230469 476.660156 870.675781 474.613281 870.460938 474.761719 Z M 870.460938 474.761719 " fill-opacity="1" fill-rule="nonzero"/><path fill="#010101" d="M 894.238281 465.28125 C 893.722656 467.617188 893.4375 465.859375 896.332031 475.550781 C 898.105469 481.488281 900.253906 478.957031 899.546875 476.660156 C 899.398438 476.195312 895.949219 466.785156 895.640625 466.402344 C 895.515625 466.253906 894.285156 465.078125 894.238281 465.273438 Z M 894.238281 465.28125 " fill-opacity="1" fill-rule="nonzero"/><path fill="#010101" d="M 937.996094 457.980469 C 936.386719 458.9375 938.050781 460.660156 937.867188 464.941406 C 937.765625 467.328125 937.140625 467.027344 937.5625 470.171875 C 937.640625 470.746094 937.578125 471.316406 937.515625 471.890625 C 937.460938 472.367188 938.144531 472.605469 938.449219 472.28125 C 940.808594 469.742188 941.5 469.160156 941.328125 464.832031 C 941.226562 462.167969 940.261719 456.625 937.996094 457.980469 Z M 937.996094 457.980469 " fill-opacity="1" fill-rule="nonzero"/><path fill="#010101" d="M 988 476.628906 C 987.230469 477.324219 987.371094 478.242188 987.292969 479.136719 C 987.292969 479.199219 987.058594 480.429688 986.964844 481.511719 C 986.933594 481.855469 986.964844 481.371094 986.996094 481.292969 C 986.957031 481.394531 986.957031 481.542969 986.933594 481.652344 C 986.714844 482.78125 986.707031 482.664062 986.902344 483.722656 C 986.957031 484.023438 987.019531 484.429688 987.003906 484.125 C 987.035156 484.570312 986.582031 485.894531 986.398438 486.296875 C 986.117188 486.921875 986.707031 487.636719 987.371094 487.269531 C 988.234375 486.796875 988.933594 486.164062 989.664062 485.519531 C 990.5 484.78125 991.292969 484.421875 991.675781 482.65625 C 992.742188 477.703125 989.8125 475.003906 988.015625 476.628906 Z M 988 476.628906 " fill-opacity="1" fill-rule="nonzero"/><path fill="#010101" d="M 901.027344 642.523438 C 901.679688 644.222656 901.148438 645.179688 903.304688 648.554688 C 905.851562 652.542969 913.992188 659.328125 919.886719 662.886719 C 934.722656 671.851562 946.628906 667.394531 946.226562 661.476562 C 946.15625 660.472656 945.59375 659.710938 944.636719 659.390625 C 939.492188 657.671875 938.832031 664.871094 921.488281 655.910156 C 910.359375 650.160156 910.1875 647.34375 904.324219 643.761719 C 903.367188 643.179688 902.261719 642.9375 901.34375 642.273438 C 901.195312 642.167969 900.957031 642.34375 901.027344 642.523438 Z M 901.027344 642.523438 " fill-opacity="1" fill-rule="nonzero"/><path fill="#010101" d="M 743.710938 419.070312 C 746.464844 421.546875 810.453125 478.988281 815.179688 480.601562 C 816.167969 480.933594 816.882812 479.761719 816.457031 478.941406 C 814.152344 474.511719 747.046875 419.289062 745.101562 417.683594 C 744.136719 416.890625 742.753906 418.222656 743.710938 419.078125 Z M 743.710938 419.070312 " fill-opacity="1" fill-rule="nonzero"/><path fill="#010101" d="M 765.792969 475.648438 C 808.011719 490.4375 805.636719 489.886719 808.929688 490.011719 C 809.996094 490.050781 810.152344 488.710938 809.425781 488.175781 C 806.679688 486.148438 808.066406 486.984375 766.640625 472.550781 C 764.6875 471.867188 763.847656 474.964844 765.785156 475.648438 Z M 765.792969 475.648438 " fill-opacity="1" fill-rule="nonzero"/><path fill="#010101" d="M 804.40625 424.894531 C 816.191406 443.914062 817.941406 447.324219 821.734375 451.210938 C 822.519531 452.011719 824.074219 451.195312 823.6875 450.074219 C 821.921875 445.011719 820.199219 442.765625 807.878906 422.867188 C 806.523438 420.675781 803.042969 422.691406 804.414062 424.894531 Z M 804.40625 424.894531 " fill-opacity="1" fill-rule="nonzero"/><path fill="#010101" d="M 1038.15625 518.460938 C 1052.976562 504.253906 1099.050781 460.628906 1102.054688 455.761719 C 1102.660156 454.78125 1101.46875 453.660156 1100.503906 454.214844 C 1095.664062 456.992188 1052.714844 499.523438 1035.785156 516.085938 C 1034.234375 517.605469 1036.601562 519.953125 1038.15625 518.460938 Z M 1038.15625 518.460938 " fill-opacity="1" fill-rule="nonzero"/><path fill="#010101" d="M 1047.601562 542.652344 C 1076.898438 525.433594 1076.679688 525.808594 1078.828125 523.371094 C 1079.410156 522.710938 1078.851562 521.722656 1077.980469 521.910156 C 1074.59375 522.648438 1074.796875 522.859375 1045.941406 539.8125 C 1044.121094 540.878906 1045.769531 543.71875 1047.601562 542.644531 Z M 1047.601562 542.652344 " fill-opacity="1" fill-rule="nonzero"/><path fill="#010101" d="M 1041.117188 580.324219 C 1084.011719 574.019531 1082.113281 574.71875 1083.949219 573.085938 C 1084.464844 572.632812 1084.363281 571.605469 1083.722656 571.3125 C 1081.140625 570.105469 1082.515625 570.515625 1040.097656 576.597656 C 1037.644531 576.945312 1038.679688 580.683594 1041.125 580.324219 Z M 1041.117188 580.324219 " fill-opacity="1" fill-rule="nonzero"/><path fill="#010101" d="M 1192.320312 517.386719 C 1194.710938 523.488281 1213.859375 572.480469 1218.015625 577.757812 C 1218.839844 578.800781 1220.925781 577.964844 1220.753906 576.621094 C 1219.890625 569.949219 1197.714844 520.570312 1195.660156 515.976562 C 1194.828125 514.109375 1191.574219 515.457031 1192.328125 517.386719 Z M 1192.320312 517.386719 " fill-opacity="1" fill-rule="nonzero"/><path fill="#010101" d="M 1239.421875 521.308594 C 1242.882812 553.914062 1242.519531 554.761719 1244.332031 560.414062 C 1244.777344 561.792969 1246.644531 561.457031 1246.769531 560.085938 C 1247.304688 554.296875 1246.714844 552.839844 1243.21875 521.316406 C 1242.953125 518.917969 1239.164062 518.878906 1239.421875 521.316406 Z M 1239.421875 521.308594 " fill-opacity="1" fill-rule="nonzero"/><path fill="#010101" d="M 1270.773438 569.359375 C 1286.097656 524.703125 1286.972656 523.464844 1286.691406 518.242188 C 1286.636719 517.167969 1285.195312 516.34375 1284.386719 517.285156 C 1280.652344 521.613281 1280.144531 524.757812 1265.425781 567.878906 C 1264.273438 571.265625 1269.621094 572.710938 1270.773438 569.351562 Z M 1270.773438 569.359375 " fill-opacity="1" fill-rule="nonzero"/><path fill="#2e287a" d="M 1331.097656 203.804688 C 1298.21875 249.300781 1303.566406 315.128906 1344.835938 354 C 1390.648438 397.160156 1467.480469 394.621094 1510.277344 345.117188 C 1552.511719 296.273438 1545.910156 219.839844 1494.789062 179.816406 C 1443.074219 139.339844 1367.648438 153.21875 1331.097656 203.796875 Z M 1331.097656 203.804688 " fill-opacity="1" fill-rule="nonzero"/><path fill="#010101" d="M 148.40625 1001.816406 C 165.195312 1011.066406 190.828125 1007.492188 222.695312 1038.277344 C 245.96875 1060.757812 258.617188 1090.417969 257.417969 1122.785156 C 257.144531 1130.25 266.179688 1132.761719 271.171875 1128.480469 C 317.601562 1088.613281 385.660156 1101.042969 415.300781 1154.316406 C 420.507812 1163.679688 434.832031 1155.3125 429.667969 1145.917969 C 394.953125 1082.683594 313.5625 1069.210938 259.785156 1117.085938 C 264.367188 1118.984375 268.953125 1120.886719 273.539062 1122.785156 C 273.5625 1086.980469 258.40625 1053.207031 232.121094 1028.867188 C 181.527344 982 142.476562 998.558594 148.414062 1001.824219 Z M 148.40625 1001.816406 " fill-opacity="1" fill-rule="nonzero"/><path fill="#010101" d="M 122.535156 830.5 C 168.652344 829.792969 215.160156 854.230469 220.828125 904.375 C 221.371094 909.214844 225.449219 911.472656 229.886719 909.574219 C 262.734375 895.5 300.820312 906.539062 321.632812 935.445312 C 326.511719 942.234375 337.886719 935.757812 332.972656 928.816406 C 308.011719 893.507812 263.214844 881.613281 223.816406 899.175781 C 226.765625 900.375 229.707031 901.574219 232.65625 902.769531 C 225.339844 854.972656 171.5 809.910156 122.480469 830.0625 C 122.261719 830.148438 122.269531 830.5 122.535156 830.492188 Z M 122.535156 830.5 " fill-opacity="1" fill-rule="nonzero"/><path fill="#010101" d="M 250.761719 1296.984375 C 278.722656 1295.230469 300.953125 1287.300781 329.378906 1295.699219 C 358.644531 1304.355469 382.804688 1323.183594 397.757812 1349.773438 C 399.6875 1353.203125 405.152344 1354.199219 407.882812 1351.078125 C 431.3125 1324.257812 469.085938 1320.441406 498.113281 1340.46875 C 505.375 1345.484375 511.910156 1333.816406 504.960938 1328.746094 C 471.949219 1304.703125 425.085938 1311.164062 398.769531 1341.957031 C 402.148438 1342.394531 405.515625 1342.828125 408.894531 1343.265625 C 392.308594 1315.492188 366.21875 1295.496094 335.097656 1286.421875 C 273.847656 1268.566406 243.179688 1297.449219 250.769531 1296.976562 Z M 250.761719 1296.984375 " fill-opacity="1" fill-rule="nonzero"/><path fill="#010101" d="M 1532.328125 910.421875 C 1561.445312 897.773438 1587.257812 885.046875 1619.542969 883.007812 C 1650.34375 881.0625 1680.824219 887.101562 1707.933594 901.953125 C 1711.476562 903.890625 1716.714844 902.304688 1717.632812 898.007812 C 1729.128906 844.238281 1783.09375 814.621094 1835.113281 827.425781 C 1843.574219 829.511719 1846.632812 817.484375 1838.660156 814.550781 C 1781.863281 793.621094 1715.265625 836.585938 1704.898438 894.496094 C 1708.128906 893.179688 1711.359375 891.867188 1714.597656 890.550781 C 1658.835938 865.714844 1576.625 860.078125 1529.542969 906.8125 C 1527.554688 908.78125 1530.0625 911.402344 1532.328125 910.421875 Z M 1532.328125 910.421875 " fill-opacity="1" fill-rule="nonzero"/><path fill="#010101" d="M 1571.597656 1067.636719 C 1614.859375 1061.027344 1649.816406 1053.300781 1691.558594 1073.234375 C 1694.664062 1074.71875 1697.597656 1073.871094 1699.613281 1071.125 C 1718.597656 1045.28125 1744.984375 1034.425781 1776.230469 1032.640625 C 1783.839844 1032.207031 1783.824219 1021.308594 1776.230469 1020.816406 C 1741.304688 1018.570312 1709.390625 1037.453125 1689.441406 1065.175781 C 1692.125 1064.476562 1694.8125 1063.769531 1697.496094 1063.066406 C 1660.300781 1045.75 1605.066406 1038.480469 1571.378906 1067.269531 C 1571.191406 1067.425781 1571.402344 1067.667969 1571.589844 1067.636719 Z M 1571.597656 1067.636719 " fill-opacity="1" fill-rule="nonzero"/><path fill="#010101" d="M 1700.601562 1209.527344 C 1726.101562 1200.542969 1765.945312 1175.746094 1819.242188 1207.183594 C 1831.851562 1214.625 1827.53125 1172.957031 1902.730469 1154.152344 C 1908.511719 1152.703125 1907.414062 1143.316406 1901.304688 1143.613281 C 1865.8125 1145.371094 1834.675781 1169.523438 1817.179688 1199.304688 L 1825.046875 1197.242188 C 1789.359375 1176.460938 1727.285156 1170.964844 1699.738281 1208.398438 C 1699.351562 1208.925781 1699.996094 1209.734375 1700.601562 1209.527344 Z M 1700.601562 1209.527344 " fill-opacity="1" fill-rule="nonzero"/><path fill="#010101" d="M 331.269531 2168.917969 C 344.625 2161.460938 361.867188 2140.109375 415.945312 2089.632812 C 419.191406 2086.605469 414.964844 2081.023438 411.167969 2083.445312 C 398.878906 2091.257812 379.566406 2082.96875 378.140625 2062.117188 C 375.511719 2023.535156 424.429688 2006.488281 454.414062 1914.851562 C 458.65625 1901.890625 468.628906 1866.886719 465.453125 1853.625 C 464.835938 1851.054688 460.835938 1850.386719 459.613281 1852.863281 C 454.046875 1864.132812 453.652344 1911.128906 418.570312 1970.660156 C 396.371094 2008.332031 355.765625 2040.058594 372.226562 2076.089844 C 379.238281 2091.4375 400.386719 2101.097656 415.136719 2090.246094 C 413.542969 2088.183594 411.953125 2086.121094 410.359375 2084.058594 C 363.210938 2134.492188 338.039062 2156.097656 331.003906 2168.667969 C 330.910156 2168.832031 331.097656 2169.011719 331.253906 2168.917969 Z M 331.269531 2168.917969 " fill-opacity="1" fill-rule="nonzero"/><path fill="#010101" d="M 986.980469 1599.875 C 1001.179688 1638.484375 1067.519531 1755.480469 1140.660156 1887.894531 C 1142.257812 1890.777344 1147.222656 1891.875 1149.464844 1889.03125 C 1172.167969 1860.300781 1194.867188 1831.582031 1217.570312 1802.851562 C 1214.542969 1802.460938 1211.523438 1802.074219 1208.496094 1801.683594 C 1394.011719 2149.046875 1384.742188 2136.421875 1397.34375 2149.117188 C 1400.027344 2151.824219 1404.152344 2149.015625 1403.4375 2145.566406 C 1399.886719 2128.339844 1402.785156 2138.367188 1218.472656 1795.855469 C 1216.863281 1792.863281 1211.6875 1791.765625 1209.398438 1794.6875 C 1186.78125 1823.492188 1164.160156 1852.300781 1141.539062 1881.109375 C 1144.476562 1881.488281 1147.410156 1881.863281 1150.34375 1882.246094 C 1108.808594 1807.597656 1067.703125 1732.695312 1025.058594 1658.683594 C 997.058594 1610.089844 985.5 1595.84375 986.980469 1599.882812 Z M 986.980469 1599.875 " fill-opacity="1" fill-rule="nonzero"/><path fill="#010101" d="M 1295.058594 2065.160156 C 1298.808594 2071.480469 1315.902344 2101.277344 1321.546875 2105.992188 C 1322.519531 2106.8125 1324.269531 2106.070312 1323.835938 2104.664062 C 1321.640625 2097.59375 1302.203125 2072.328125 1296.320312 2064.421875 C 1295.773438 2063.691406 1294.566406 2064.328125 1295.058594 2065.160156 Z M 1295.058594 2065.160156 " fill-opacity="1" fill-rule="nonzero"/><path fill="#010101" d="M 573 1398.542969 C 567.097656 1431.210938 566.070312 1450.09375 556.039062 1553.695312 C 552.207031 1593.214844 551.328125 1597.300781 552.949219 1605.285156 C 553.578125 1608.40625 557.617188 1607.683594 558.574219 1605.285156 C 561.671875 1597.527344 561.679688 1588.511719 562.429688 1580.253906 C 562.492188 1579.570312 575.792969 1433.351562 575.863281 1398.925781 C 575.863281 1397.328125 573.292969 1396.878906 573 1398.535156 Z M 573 1398.542969 " fill-opacity="1" fill-rule="nonzero"/><path fill="#010101" d="M 561.324219 1737.445312 C 561.617188 1739.710938 561.308594 1741.75 561.261719 1743.953125 C 561.191406 1747.554688 566.289062 1766.363281 556.269531 1796 C 555.773438 1797.472656 558.046875 1798.421875 558.769531 1797.050781 C 561.261719 1792.390625 563.679688 1787.425781 564.878906 1782.257812 C 567.097656 1772.675781 567.929688 1761.863281 566.484375 1752.132812 C 564.746094 1740.449219 563.6875 1742.203125 561.484375 1737.398438 C 561.449219 1737.320312 561.308594 1737.351562 561.316406 1737.445312 Z M 561.324219 1737.445312 " fill-opacity="1" fill-rule="nonzero"/><path fill="#010101" d="M 264.398438 1880.6875 C 269.394531 1925.460938 270.363281 1961.226562 257.707031 2003.484375 C 249.292969 2031.574219 243.6875 2033.378906 247.21875 2040.347656 C 247.992188 2041.871094 249.96875 2042.503906 251.546875 2042.105469 C 257.820312 2040.542969 259.550781 2032.105469 261.582031 2026.757812 C 278.027344 1983.511719 284.589844 1925.738281 268.34375 1880.152344 C 267.644531 1878.183594 264.132812 1878.28125 264.40625 1880.6875 Z M 264.398438 1880.6875 " fill-opacity="1" fill-rule="nonzero"/><path fill="#010101" d="M 209.507812 2118.496094 C 195.683594 2155.574219 200.96875 2135.710938 191.378906 2168.878906 C 189.738281 2174.542969 187.597656 2180.34375 189.324219 2186.234375 C 189.855469 2188.042969 192.089844 2188.609375 193.441406 2187.324219 C 197.863281 2183.105469 198.90625 2177.042969 200.324219 2171.34375 C 207.058594 2144.15625 204.035156 2157.746094 206.910156 2137.167969 C 208.238281 2127.65625 210.535156 2115.761719 209.515625 2118.503906 Z M 209.507812 2118.496094 " fill-opacity="1" fill-rule="nonzero"/><path fill="#010101" d="M 1436.261719 1935.867188 C 1445.226562 1959.289062 1458.570312 1984.429688 1482.574219 2029.417969 C 1488.195312 2039.941406 1493.773438 2050.339844 1502.082031 2058.996094 C 1504.5625 2061.582031 1508.640625 2058.886719 1507.871094 2055.625 C 1504.429688 2040.960938 1496.757812 2028.765625 1477.25 1993.894531 C 1465.847656 1973.507812 1454.515625 1952.859375 1440.753906 1933.96875 C 1439.257812 1931.914062 1435.171875 1933.039062 1436.253906 1935.867188 Z M 1436.261719 1935.867188 " fill-opacity="1" fill-rule="nonzero"/><path fill="#010101" d="M 1535.511719 2123.882812 C 1543.472656 2140.3125 1536.335938 2128.980469 1547.46875 2149.269531 C 1549.4375 2152.851562 1550.238281 2155.101562 1553.757812 2156.757812 C 1557.515625 2158.527344 1560.308594 2154.183594 1557.570312 2148.398438 C 1557.304688 2147.832031 1551.320312 2136.949219 1551.015625 2136.40625 C 1549.507812 2133.65625 1547.589844 2130.761719 1545.4375 2128.503906 C 1543.433594 2126.417969 1542.074219 2123.40625 1540.554688 2120.9375 C 1538.5625 2117.707031 1533.882812 2120.535156 1535.511719 2123.890625 Z M 1535.511719 2123.882812 " fill-opacity="1" fill-rule="nonzero"/><path fill="#010101" d="M 826.855469 1478.800781 C 834.21875 1627.851562 890.765625 1829.992188 950.730469 1976.410156 C 954.5 1985.605469 957.707031 1995.449219 963.257812 2003.714844 C 967.164062 2009.539062 976.160156 2005.949219 974.589844 1998.9375 C 970.8125 1982.039062 941.28125 1926.976562 902.785156 1800.539062 C 858.417969 1654.8125 846.207031 1558.234375 831.324219 1478.1875 C 830.855469 1475.664062 826.714844 1476.234375 826.847656 1478.792969 Z M 826.855469 1478.800781 " fill-opacity="1" fill-rule="nonzero"/><path fill="#010101" d="M 997.433594 2057.71875 C 1020.808594 2099.695312 1024.449219 2109.109375 1029.457031 2112.445312 C 1031.066406 2113.519531 1033.574219 2112.121094 1033.433594 2110.167969 C 1032.980469 2103.890625 1030.75 2103.113281 1001.683594 2055.238281 C 1000.042969 2052.527344 995.886719 2054.949219 997.433594 2057.71875 Z M 997.433594 2057.71875 " fill-opacity="1" fill-rule="nonzero"/><path fill="#010101" d="M 1333.394531 238.378906 C 1322.792969 239.050781 1319.28125 256.84375 1317.894531 265.359375 C 1311.25 306.238281 1338.203125 346.816406 1364.097656 348.253906 C 1366.121094 348.363281 1367.035156 345.710938 1365.710938 344.363281 C 1353.296875 331.707031 1338.039062 323.773438 1330.332031 297.535156 C 1326.308594 283.835938 1325.867188 268.082031 1330.636719 253.855469 C 1332.394531 248.609375 1335.601562 243.945312 1333.484375 238.449219 C 1333.46875 238.410156 1333.4375 238.378906 1333.402344 238.378906 Z M 1333.394531 238.378906 " fill-opacity="1" fill-rule="nonzero"/><path fill="#010101" d="M 1415.558594 371.839844 C 1419.199219 376.429688 1417.378906 374.335938 1418.917969 376.625 C 1421.503906 380.472656 1420.367188 379.015625 1420.554688 378.632812 C 1420.523438 378.695312 1420.570312 378.882812 1420.578125 378.953125 C 1420.695312 380.425781 1421.152344 380.859375 1422.109375 382.050781 C 1427.03125 388.183594 1430.789062 384.355469 1429.328125 381.203125 C 1428.414062 379.242188 1428.695312 379.605469 1426.492188 377.832031 C 1425.410156 376.96875 1424.789062 376.363281 1423.386719 376.238281 C 1422.804688 376.183594 1422.71875 376.191406 1423.597656 376.332031 C 1417.582031 372.273438 1420.789062 374.851562 1416.203125 371.207031 C 1415.742188 370.84375 1415.191406 371.386719 1415.558594 371.855469 Z M 1415.558594 371.839844 " fill-opacity="1" fill-rule="nonzero"/></svg>